<svg width="20" height="20" viewBox="0 0 20 20" fill="none" xmlns="http://www.w3.org/2000/svg">
<circle cx="10" cy="10" r="10" fill="#BBC893"/>
<mask id="mask0_27_124" style="mask-type:luminance" maskUnits="userSpaceOnUse" x="2" y="2" width="15" height="14">
<path d="M2 2H17V15.0979H2V2Z" fill="white"/>
</mask>
<g mask="url(#mask0_27_124)">
<path d="M10.9917 13.3224C11.6937 13.5494 12.3229 13.9196 13.0683 13.784C13.3841 13.8599 13.769 13.6029 14.0505 13.5211C14.5778 13.6216 14.9546 13.2436 15.2823 13.1005C16.3156 12.649 16.2268 12.717 15.2422 12.4508C14.9603 12.21 13.2945 11.3917 14.2935 11.2181C14.8261 11.1255 15.3191 10.9377 15.6999 10.47C15.9887 10.0556 16.9235 9.74974 17 9.26319C15.6541 8.98737 15.3379 9.13509 16.08 7.73889C16.0771 7.73889 16.0742 7.73889 16.071 7.73889C16.784 6.442 16.0984 7.13634 15.8366 6.13655C15.7961 5.37711 16.7177 2.70738 15.6177 4.42781C15.5584 4.52044 15.4672 4.64646 15.3727 4.74828C15.1358 5.00323 14.8363 5.14427 14.4739 5.17306C14.4706 5.17306 14.5328 5.18892 14.4518 5.16805C14.3712 5.14761 14.1609 5.40382 14.0971 5.47851C13.607 6.05393 13.2409 5.50438 12.8249 5.98591C12.4649 6.36939 12.3855 6.90392 11.9936 7.27529C11.0695 6.83799 11.7457 4.03891 11.2266 3.80482C11.2057 3.79605 11.1869 3.78729 11.1693 3.77936C11.1443 3.76726 11.1169 3.75558 11.1169 3.75558C11.0952 3.79313 11.0736 3.82818 11.0523 3.86198C10.417 4.87513 9.98539 4.33267 9.25558 3.58867C9.19463 3.52649 9.14799 3.62914 9.08949 3.6475C8.94999 3.69174 8.84036 3.62288 8.73031 3.529C8.23245 3.10463 8.30036 2.33517 7.72519 2.00052C7.84014 2.39025 7.8925 2.78374 7.91173 3.1885C7.91173 3.19267 7.91541 3.18266 7.91582 3.186C7.92318 3.4301 8.05082 4.10859 7.70391 4.13363C7.5636 4.14364 7.48137 4.21708 7.39423 4.33893C7.23019 4.6039 7.24778 5.27738 7.33164 5.44095C7.40569 5.58616 7.35046 5.47809 7.35046 5.47809C7.35987 5.51189 7.35169 5.51272 7.34514 5.52274C7.08374 5.92708 6.2762 5.51356 6.17475 5.84362C6.66156 6.60014 6.99292 7.43428 7.5861 8.11777C7.73705 8.29887 8.11668 8.54381 7.76446 8.68861C7.56114 8.77248 7.30628 8.55424 7.14346 8.59639C7.06492 8.61642 7.12792 8.59973 7.12792 8.59973C6.45006 8.74661 6.23815 8.01304 5.57543 7.99301C5.2183 7.8478 4.92253 7.61537 4.5474 7.50104C4.43326 7.46599 4.27985 7.38587 4.20417 7.529C3.72063 7.79522 3.21132 7.68089 2.70732 7.53442C1.60238 7.39672 1.94151 7.54986 2.70609 7.90037C3.08164 8.27884 3.25304 8.72574 3.35695 9.2465C3.35286 9.23273 3.35941 9.22272 3.34836 9.20603C3.395 9.50062 3.01373 9.41466 3.33241 9.69215C3.79508 10.0944 4.83458 10.8601 4.08145 11.438C2.99736 12.2709 3.43795 12.0147 4.41281 12.2734C5.16798 12.5638 5.89329 12.8 6.70901 12.6919C7.82664 12.9398 5.97225 14.5476 5.62698 15.0212C5.80575 15.2444 6.37602 14.8497 6.62556 14.8263C8.06186 14.6732 9.61108 14.6122 10.5835 13.4652C10.7119 13.3141 10.732 13.375 10.8179 13.3275C10.9042 13.2799 10.9455 13.3078 10.9917 13.3224Z" fill="#30800F"/>
</g>
<mask id="mask1_27_124" style="mask-type:luminance" maskUnits="userSpaceOnUse" x="8" y="4" width="6" height="14">
<path d="M8.5069 4.3334H13.5559V18H8.5069V4.3334Z" fill="white"/>
</mask>
<g mask="url(#mask1_27_124)">
<path d="M8.54619 4.34509C8.76178 4.91467 8.96019 5.49051 9.14755 6.07011C9.33491 6.65012 9.50714 7.23514 9.66014 7.82642L9.71741 8.04841L9.77059 8.27124C9.80741 8.41937 9.83932 8.56875 9.87123 8.71814C9.93545 9.01732 9.99395 9.31567 10.0553 9.61444C10.1772 10.2116 10.2979 10.8087 10.4317 11.4016C10.4967 11.6983 10.565 11.9942 10.6399 12.2875C10.7139 12.5813 10.7929 12.8738 10.8809 13.1625C11.0588 13.7396 11.2728 14.3059 11.5252 14.8521C11.6516 15.125 11.789 15.392 11.9351 15.6533L12.0455 15.8485L12.1621 16.0396C12.2002 16.1039 12.2407 16.1661 12.282 16.2274C12.3241 16.2892 12.3634 16.3522 12.4072 16.4119C12.5773 16.6551 12.7618 16.8846 12.9566 17.102C13.1202 17.2735 13.2912 17.4359 13.472 17.5806C13.5403 17.6353 13.5522 17.7363 13.4986 17.806L13.3971 17.9378C13.3403 18.0125 13.2319 18.0209 13.164 17.9562C12.9746 17.7763 12.7999 17.5852 12.6383 17.3854C12.4444 17.1388 12.2648 16.8838 12.1028 16.6188C11.7804 16.0889 11.5055 15.5356 11.2736 14.9664C11.1541 14.6835 11.0441 14.3968 10.9434 14.1068C10.8412 13.8181 10.7454 13.526 10.6595 13.2314C10.4873 12.6422 10.3507 12.0447 10.2308 11.4454C10.1122 10.8458 10.0075 10.2449 9.90109 9.64491C9.84791 9.34488 9.79718 9.04361 9.74114 8.74526C9.71332 8.59629 9.6855 8.44691 9.65277 8.29836L9.60573 8.07553L9.55459 7.85313C9.41632 7.26143 9.25841 6.67349 9.08537 6.09014C8.91192 5.5072 8.72742 4.92677 8.52533 4.35302L8.54619 4.34509Z" fill="#819F56"/>
<path d="M9.71456 8.38554C9.68224 8.32754 9.71374 8.31043 9.72479 8.28081C9.73951 8.25327 9.75424 8.22573 9.76979 8.1986C9.80047 8.14436 9.83156 8.09136 9.86347 8.03879C9.9281 7.93447 9.99151 7.83057 10.0471 7.72333C10.1576 7.50843 10.2496 7.28519 10.3069 7.04901C10.3216 6.99017 10.3327 6.9305 10.3458 6.87083C10.3581 6.81116 10.3646 6.75024 10.3744 6.68974C10.3855 6.62965 10.3883 6.56789 10.3957 6.50697L10.4047 6.41517L10.4092 6.32295C10.4272 6.07634 10.4149 5.82806 10.4067 5.57978L10.4227 5.5777C10.4575 5.82431 10.4865 6.073 10.491 6.3242L10.4935 6.41809L10.491 6.51281C10.4886 6.5754 10.4902 6.63883 10.4832 6.70184C10.4771 6.76443 10.4738 6.82744 10.4644 6.89045C10.4542 6.95304 10.4464 7.01605 10.4346 7.07822C10.4198 7.14039 10.408 7.20298 10.3908 7.26432C10.3716 7.32525 10.3568 7.38742 10.3343 7.44709C10.291 7.56727 10.239 7.68452 10.1776 7.7951C10.1183 7.90735 10.0516 8.01459 9.98251 8.11765C9.94733 8.16939 9.91133 8.21988 9.8741 8.26912L9.81806 8.34256C9.79597 8.3651 9.79392 8.40015 9.72847 8.39431L9.71456 8.38554Z" fill="#819F56"/>
<path d="M7.61796 6.55457C7.76196 6.74359 7.91169 6.92761 8.06919 7.10287C8.22668 7.27854 8.38418 7.45421 8.55927 7.61111C8.73559 7.76633 8.93113 7.89444 9.1234 8.02254C9.31854 8.14647 9.52308 8.24995 9.73622 8.34134L9.70717 8.43898C9.59181 8.4056 9.47317 8.3743 9.36476 8.32047C9.25186 8.27583 9.14918 8.21115 9.04445 8.15064C8.84113 8.0192 8.66277 7.85438 8.48932 7.68955C8.3175 7.52181 8.14855 7.35198 8.00046 7.16295C7.85401 6.97309 7.71533 6.77697 7.60242 6.56416L7.61796 6.55457Z" fill="#819F56"/>
<path d="M10.1875 10.5821C10.1413 10.5087 10.1773 10.5024 10.1879 10.4753C10.2022 10.4511 10.2169 10.4277 10.2329 10.4052C10.2636 10.3589 10.2955 10.3146 10.329 10.2717C10.3953 10.1861 10.4632 10.1039 10.5242 10.018C10.6457 9.84604 10.7565 9.66828 10.8486 9.4755C10.9422 9.28438 11.0208 9.08284 11.0916 8.87754C11.1292 8.77531 11.1603 8.67057 11.193 8.56625C11.2102 8.51451 11.2233 8.4611 11.2384 8.40852L11.2847 8.25079L11.3072 8.25538C11.2806 8.47404 11.247 8.69185 11.2016 8.90925C11.1799 9.01775 11.1509 9.12499 11.1231 9.23348L11.0723 9.39329C11.0552 9.44629 11.0343 9.49845 11.0155 9.55144C10.9737 9.65618 10.9267 9.75841 10.8743 9.85939C10.8461 9.90863 10.8183 9.95787 10.788 10.0059C10.7557 10.0522 10.7246 10.0997 10.6902 10.1444C10.6236 10.2354 10.552 10.3201 10.4796 10.4023C10.4428 10.4427 10.4047 10.482 10.3663 10.5195L10.3073 10.5759C10.284 10.5909 10.2861 10.6272 10.2055 10.5963L10.1875 10.5821Z" fill="#819F56"/>
<path d="M8.1649 9.20468C8.31626 9.3453 8.46926 9.48259 8.62553 9.61361C8.78262 9.74422 8.93398 9.88108 9.10212 9.99458C9.14466 10.0221 9.18762 10.0497 9.23057 10.076L9.36434 10.1481C9.40771 10.1736 9.45352 10.194 9.49852 10.2162L9.5648 10.2512C9.58648 10.2637 9.60898 10.275 9.63148 10.2854C9.8082 10.3797 9.99025 10.4544 10.1743 10.5375L10.1383 10.6752C10.0864 10.6664 10.0344 10.6547 9.98288 10.6434C9.95711 10.6368 9.93093 10.6313 9.90557 10.6234L9.8307 10.598C9.78079 10.5804 9.73007 10.5629 9.6818 10.542L9.53821 10.474C9.34921 10.3776 9.1823 10.2445 9.01826 10.1152C8.85339 9.98582 8.68608 9.8598 8.54044 9.70917C8.46762 9.63364 8.39685 9.55644 8.33099 9.47466C8.26472 9.39371 8.20172 9.31025 8.14526 9.22096L8.1649 9.20468Z" fill="#819F56"/>
<path d="M9.22733 6.45525C9.19378 6.41311 9.21587 6.40643 9.22078 6.38849C9.22815 6.37222 9.23592 6.35678 9.2441 6.34134C9.26047 6.31004 9.27724 6.28 9.29565 6.25037C9.33124 6.19237 9.36765 6.13562 9.39996 6.07679C9.46337 5.95995 9.51901 5.83894 9.56442 5.71084C9.60983 5.58357 9.64828 5.45171 9.68101 5.31776C9.71578 5.18423 9.74114 5.0482 9.76978 4.91217L9.78369 4.91384C9.77796 5.05279 9.76692 5.19216 9.75055 5.33111C9.74237 5.4008 9.73132 5.47007 9.71987 5.53975C9.70555 5.6086 9.69123 5.67787 9.67242 5.7463C9.63437 5.88275 9.58528 6.01962 9.51164 6.1423C9.47605 6.20447 9.43719 6.26372 9.3971 6.32047C9.37665 6.34843 9.35578 6.37597 9.3341 6.40226L9.30137 6.4419C9.28747 6.45359 9.29115 6.4757 9.23919 6.46277L9.22733 6.45525Z" fill="#819F56"/>
<path d="M8.00497 5.49969C8.09784 5.59316 8.18906 5.68663 8.28479 5.7751C8.37929 5.86356 8.47051 5.95619 8.57238 6.03589C8.67465 6.11518 8.7896 6.17443 8.89637 6.24161C9.00519 6.30671 9.11687 6.36262 9.23142 6.41937L9.20483 6.507C9.07187 6.48071 8.94546 6.42688 8.82887 6.35928C8.7131 6.29001 8.61329 6.1978 8.51347 6.10975C8.41447 6.02087 8.31302 5.93408 8.22629 5.8331C8.14038 5.73128 8.05815 5.62655 7.99188 5.50971L8.00497 5.49969Z" fill="#819F56"/>
<path d="M4.28232 8.75525C4.53472 8.9305 4.78468 9.1091 5.03381 9.28936C5.28254 9.46962 5.53371 9.64697 5.77426 9.84016C6.24389 10.2303 6.75157 10.5683 7.26906 10.8896C7.78779 11.2088 8.3241 11.498 8.87841 11.7425C9.43395 11.9833 10.0067 12.1844 10.5941 12.3033L10.5397 12.5646C9.93386 12.4202 9.3505 12.2065 8.78964 11.9487C8.22837 11.6912 7.68551 11.3953 7.16229 11.0686C6.90007 10.9055 6.64439 10.7327 6.39402 10.5516C6.26884 10.4611 6.14448 10.3689 6.02257 10.2733C5.90067 10.1794 5.77958 10.0768 5.66462 9.9787C5.43022 9.78175 5.20031 9.57686 4.96754 9.37657L4.26923 8.77319L4.28232 8.75525Z" fill="#819F56"/>
<path d="M7.03058 14.1744C7.30221 13.9929 7.57507 13.8085 7.87166 13.6616C8.01975 13.5882 8.17234 13.5222 8.33025 13.468C8.49061 13.4125 8.64484 13.3762 8.79784 13.3249C9.10383 13.2256 9.40328 13.11 9.69742 12.9852C9.84346 12.9205 9.98869 12.8533 10.129 12.7787C10.1994 12.7411 10.2689 12.7027 10.3356 12.661C10.4023 12.6201 10.4685 12.575 10.5221 12.527L10.617 12.6147C10.5598 12.6881 10.4939 12.7419 10.428 12.7962C10.3953 12.8233 10.361 12.8483 10.3266 12.8721C10.2926 12.8972 10.2575 12.9201 10.2223 12.9426C10.0811 13.0332 9.93428 13.1125 9.78414 13.1834C9.63442 13.2556 9.48019 13.3169 9.32433 13.372C9.16765 13.4242 9.00933 13.4722 8.84938 13.5114C8.69065 13.554 8.52661 13.5848 8.37525 13.6228C8.22102 13.6624 8.06925 13.7138 7.91993 13.7734C7.77103 13.8339 7.62294 13.8995 7.4773 13.9716C7.33167 14.0434 7.18767 14.1206 7.04121 14.1936L7.03058 14.1744Z" fill="#819F56"/>
<path d="M14.604 12.8087C14.4375 12.7924 14.2718 12.7715 14.1061 12.7561C13.9408 12.7402 13.7752 12.7311 13.6103 12.7286C13.4454 12.7265 13.2814 12.7332 13.1194 12.7494C12.9599 12.767 12.7909 12.7966 12.6232 12.8129C12.4555 12.8333 12.2865 12.845 12.1175 12.8517C11.9482 12.8554 11.7784 12.8529 11.6095 12.8383C11.4401 12.8254 11.2711 12.8028 11.1034 12.7686C11.0613 12.7599 11.0196 12.7507 10.9778 12.7394C10.9361 12.7294 10.8944 12.7177 10.8535 12.7039C10.7708 12.6764 10.6886 12.6493 10.6076 12.6005L10.6661 12.4828C10.7348 12.5091 10.8146 12.5274 10.8936 12.542C10.9721 12.5575 11.0531 12.5687 11.1341 12.5788C11.2957 12.5988 11.4589 12.6101 11.6221 12.6184C11.9498 12.6309 12.2783 12.6326 12.608 12.6172C12.7733 12.6113 12.9349 12.5904 13.1084 12.5846C13.2789 12.5783 13.4491 12.5863 13.6173 12.6034C13.9543 12.6372 14.282 12.7123 14.6073 12.7866L14.604 12.8087Z" fill="#819F56"/>
<path d="M12.7705 10.0655C12.7075 10.0597 12.7193 10.0338 12.7075 10.0142C12.6997 9.99375 12.6923 9.97289 12.6854 9.95244C12.6706 9.91071 12.6592 9.86773 12.6486 9.82517C12.6293 9.7388 12.6134 9.65158 12.6023 9.56354C12.577 9.38745 12.5766 9.20927 12.586 9.03318C12.5921 8.94556 12.5995 8.85793 12.6101 8.77072C12.6216 8.68392 12.6355 8.59713 12.651 8.51117C12.6825 8.33925 12.7222 8.16942 12.7672 8.00168L12.7836 8.00502C12.7651 8.17777 12.7431 8.34927 12.7341 8.52202C12.7279 8.60798 12.7242 8.69394 12.7222 8.77948C12.7189 8.86544 12.7189 8.95098 12.7201 9.0361C12.7218 9.20677 12.7361 9.37618 12.7537 9.54393C12.7627 9.62822 12.7774 9.71167 12.7905 9.79513C12.7983 9.83727 12.804 9.87942 12.8097 9.92198L12.8179 9.98582C12.8171 10.0088 12.8392 10.0246 12.7868 10.0609L12.7705 10.0655Z" fill="#819F56"/>
<path d="M14.9333 9.19548C14.7819 9.32359 14.6179 9.43333 14.4514 9.53932C14.284 9.64447 14.1057 9.72876 13.9281 9.81597C13.8844 9.83809 13.8402 9.86145 13.7952 9.88148L13.661 9.94658L13.5227 10.0046C13.4773 10.0246 13.4282 10.0367 13.3808 10.0526L13.3084 10.0734L13.2347 10.0897L13.1603 10.1043L13.1235 10.1118L13.085 10.1156C13.0343 10.1202 12.984 10.126 12.9328 10.1268C12.8813 10.1239 12.8301 10.1223 12.7794 10.1172L12.7843 10.0042C12.9701 9.98914 13.1529 9.94491 13.335 9.89108C13.5162 9.83684 13.7027 9.78468 13.8811 9.70873C14.0599 9.63404 14.2292 9.53807 14.4027 9.4496C14.5765 9.36239 14.7479 9.26934 14.9222 9.17838L14.9333 9.19548Z" fill="#819F56"/>
<path d="M14.9341 6.37804L14.1266 8.07718C14.0586 8.21572 13.9907 8.36093 13.9155 8.49988C13.8414 8.63967 13.7641 8.77737 13.6851 8.91382C13.5264 9.1863 13.3603 9.45419 13.184 9.71499C12.8322 10.2374 12.4505 10.7394 12.0353 11.2134C11.6217 11.6883 11.1684 12.131 10.6661 12.5182L10.5123 12.3025C11.0077 11.9462 11.456 11.5189 11.8721 11.0624C12.2861 10.6029 12.6645 10.1093 13.0151 9.59648C13.3644 9.08156 13.6958 8.5558 13.9719 7.99623C14.118 7.71749 14.2787 7.44793 14.4358 7.17628C14.5933 6.90547 14.7525 6.6355 14.9149 6.36719L14.9341 6.37804Z" fill="#819F56"/>
</g>
</svg>
