<svg width="20" height="20" viewBox="0 0 20 20" fill="none" xmlns="http://www.w3.org/2000/svg">
<circle cx="10" cy="10" r="10" fill="#BBC893"/>
<path d="M11.2985 8.72952C12.9952 7.44411 14.5998 7.03378 16.7189 6.96803C16.0329 7.6789 15.1014 8.12429 14.1436 8.37442C13.1857 8.62455 12.1933 8.69337 11.2078 8.74885L11.2985 8.72952ZM5.89179 12.3868C6.02875 12.3477 6.16688 12.312 6.30578 12.2798C6.27912 12.269 6.25287 12.2581 6.22621 12.2473L5.89179 12.3868ZM6.30578 12.2798C6.63407 12.4123 6.96237 12.5448 7.29066 12.6774C7.93663 12.9384 8.58962 13.2014 9.28159 13.3125C10.2423 13.4666 11.2572 13.3152 12.1404 12.8856C10.3558 12.0375 8.25923 11.8235 6.30578 12.2798ZM6.99892 9.71377C7.15057 8.86445 6.96787 7.97166 7.24724 7.15178C6.649 7.54236 6.22365 8.15167 5.94342 8.7999C5.66319 9.44813 5.51514 10.1408 5.36897 10.8281C5.24983 11.3873 5.13232 11.98 5.32376 12.513L5.36454 12.5914C6.08151 11.7298 6.80426 10.8029 6.99892 9.71377Z" fill="#B1E187"/>
<mask id="mask0_27_77" style="mask-type:luminance" maskUnits="userSpaceOnUse" x="0" y="2" width="20" height="17">
<path d="M15.5525 2L19.6724 10.2259L4.1199 18.0153L8.32322e-06 9.78936L15.5525 2Z" fill="white"/>
</mask>
<g mask="url(#mask0_27_77)">
<path d="M9.25993 15.438C8.58215 15.7597 7.7718 15.6823 7.08882 15.4009C6.40543 15.1198 5.823 14.6548 5.25017 14.1959C4.85452 13.8783 4.45847 13.5609 4.06282 13.2433C3.98257 13.2712 3.90152 13.2986 3.82128 13.3255C3.67374 13.3738 3.5272 13.4231 3.37811 13.4663L3.15566 13.533L3.04455 13.566L2.93205 13.5963C2.7826 13.6358 2.63351 13.679 2.48329 13.7159C2.33364 13.7549 2.18146 13.7869 2.0133 13.7374C1.97397 13.7256 1.95189 13.6846 1.96462 13.6452C1.96879 13.6323 1.97576 13.622 1.98512 13.6133L1.98675 13.6115C2.11699 13.4903 2.26323 13.4504 2.41199 13.4177C2.55999 13.3815 2.70625 13.3397 2.85367 13.3012L2.96395 13.2716L3.07385 13.2391L3.29245 13.1739C3.43931 13.1323 3.58382 13.084 3.72833 13.0367C3.74227 13.0322 3.75562 13.0275 3.76956 13.023L3.74576 13.0088C3.55088 11.9663 3.35771 10.8796 3.65277 9.84932C3.76518 9.45673 3.9458 9.08504 4.1374 8.72211C4.3712 8.27856 4.62261 7.84388 4.89082 7.41947C5.34419 9.27653 4.99099 11.3256 3.94096 12.9656C4.44711 12.7928 4.94625 12.5988 5.43696 12.385C5.99626 12.1423 6.54498 11.8733 7.0803 11.5797C7.31108 11.4528 7.5395 11.3211 7.76536 11.1854C7.86901 10.219 8.17373 9.27779 8.47651 8.34687C8.78638 7.39471 9.13559 6.3835 9.93205 5.75549C10.2003 7.4614 9.40718 9.52534 8.1993 10.9179C8.34897 10.8233 8.49745 10.7273 8.64476 10.6289C9.153 10.2903 9.6456 9.92855 10.1237 9.54898C10.2625 9.43866 10.3999 9.32659 10.5361 9.21314C10.3527 8.23908 10.4945 7.21327 10.8397 6.26996C11.1949 5.29902 11.7571 4.40875 12.3958 3.58595C12.4452 5.32427 12.2393 7.20225 11.2422 8.59892C11.3321 8.5175 11.4216 8.43529 11.5104 8.3525C11.8484 8.03816 12.1769 7.71386 12.4952 7.38039C12.5738 7.10748 12.7754 6.82412 12.8926 6.58691C13.6062 5.14298 14.6931 3.87294 16.02 2.93352C16.1179 3.93317 15.6792 4.94253 15.0141 5.72157C14.4306 6.40465 13.6242 6.84887 12.8305 7.28818C12.456 7.70779 12.0668 8.11512 11.6628 8.50821C11.2196 8.93619 10.759 9.34779 10.2814 9.73942C9.99787 9.9714 9.70819 10.1961 9.41315 10.4132C11.0822 9.7179 12.9408 9.4798 14.7127 9.75065C13.878 10.4489 12.7894 10.7941 11.7087 10.9061C10.7427 11.0064 9.77306 10.9336 8.80923 10.843C8.80497 10.8457 8.80131 10.8485 8.79746 10.8509C7.77688 11.5513 6.68973 12.1573 5.55585 12.6588C5.27639 12.7816 4.99377 12.898 4.70842 13.008C4.74819 13.0166 4.78734 13.026 4.82629 13.036C6.48342 13.4558 8.02187 14.2891 9.25993 15.438Z" fill="#85A159"/>
</g>
<path d="M12.5319 10.307C11.8768 10.4222 11.2155 10.4988 10.553 10.5375C10.497 10.541 10.5042 10.4553 10.5594 10.4522C10.7464 10.4412 10.933 10.4274 11.1194 10.4102C11.7771 10.3497 12.4318 10.2509 13.0795 10.1148C13.1344 10.1031 13.1504 10.1865 13.0955 10.1983C12.908 10.2376 12.7205 10.274 12.5319 10.307ZM9.41891 7.53072C9.49935 7.34539 9.57919 7.15988 9.65963 6.97455C9.68156 6.92325 9.5993 6.89759 9.57758 6.94829C9.29632 7.59851 9.01526 8.24912 8.73401 8.89934C8.65376 9.08506 8.57373 9.27018 8.49348 9.4559C8.47136 9.50681 8.55362 9.53247 8.57553 9.48216C8.85659 8.83155 9.13785 8.18133 9.41891 7.53072ZM14.0139 5.71314C13.8801 5.86472 13.7465 6.0167 13.6124 6.16888C13.5763 6.21008 13.633 6.27364 13.6701 6.23144C14.1393 5.69851 14.6085 5.16558 15.0777 4.63265C15.2117 4.48047 15.3453 4.32849 15.4789 4.17651C15.5154 4.13512 15.4588 4.07156 15.4217 4.11375C14.9525 4.64668 14.4833 5.17961 14.0139 5.71314ZM11.0646 7.3825C11.0407 7.43284 11.1229 7.4585 11.1467 7.40877C11.4266 6.81769 11.6664 6.20893 11.8633 5.58766C11.8804 5.53484 11.7984 5.50857 11.7815 5.56179C11.5845 6.18306 11.3446 6.79143 11.0646 7.3825ZM7.73255 14.8381C7.07226 14.5788 6.43783 14.2599 5.83907 13.8857C5.67054 13.7799 5.50448 13.6698 5.34188 13.5556C5.29674 13.5241 5.24839 13.5965 5.29354 13.628C5.87501 14.0354 6.49516 14.3885 7.14477 14.6831C7.32905 14.7668 7.51581 14.8454 7.70424 14.9192C7.75595 14.9395 7.78406 14.858 7.73255 14.8381ZM4.16907 11.136C4.21646 10.5124 4.35357 9.89608 4.57494 9.30633C4.59466 9.25467 4.51261 9.2284 4.49309 9.28046C4.26882 9.87657 4.13081 10.5013 4.08274 11.1315C4.07829 11.1864 4.16522 11.191 4.16907 11.136Z" fill="#CFEAB5"/>
</svg>
