<svg width="23" height="22" viewBox="0 0 23 22" fill="none" xmlns="http://www.w3.org/2000/svg">
<circle cx="11" cy="11" r="10" fill="#BBC893"/>
<mask id="mask0_27_89" style="mask-type:luminance" maskUnits="userSpaceOnUse" x="0" y="0" width="23" height="22">
<path d="M14.3237 0.134796L22.1508 9.06686L7.9087 21.5472L0.0815397 12.6152L14.3237 0.134796Z" fill="white"/>
</mask>
<g mask="url(#mask0_27_89)">
<path d="M18.5484 4.95921C18.5484 4.95921 17.2435 7.48508 16.8931 10.8811C16.6563 13.1755 14.6763 17.2711 10.4307 17.3317C6.18512 17.3914 2.52472 15.3172 2.52472 15.3172C2.52472 15.3172 3.92793 13.254 4.24226 11.7734C4.55736 10.2928 5.05944 8.09249 7.64778 6.00938C10.2361 3.92628 16.2498 4.26334 18.5484 4.95921Z" fill="#407237"/>
</g>
<mask id="mask1_27_89" style="mask-type:luminance" maskUnits="userSpaceOnUse" x="0" y="0" width="23" height="22">
<path d="M14.2897 0L22.1984 9.0251L7.90866 21.5472L-2.70209e-05 12.5221L14.2897 0Z" fill="white"/>
</mask>
<g mask="url(#mask1_27_89)">
<path d="M15.0238 15.2079C15.0282 15.1739 15.0041 15.1381 14.9699 15.1269L8.4058 13.0033C9.41906 12.3803 10.3443 11.6202 11.1621 10.6457L16.6625 12.0787C16.6966 12.0876 16.7265 12.0669 16.7291 12.033C16.7316 11.9984 16.7056 11.9634 16.6711 11.9549L11.2477 10.5414C11.4701 10.2682 11.6816 9.98096 11.8855 9.70098C12.1344 9.35956 12.3921 9.00722 12.6707 8.684C12.94 8.37126 13.2132 8.08916 13.492 7.83144L17.2161 8.91984C17.2506 8.92994 17.2809 8.91049 17.2846 8.87641C17.2879 8.84266 17.263 8.80674 17.2289 8.7971L13.5972 7.73529C14.9878 6.48662 16.5379 5.81785 18.5798 5.0195C18.6099 5.0081 18.6196 4.97113 18.6024 4.93797C18.5852 4.90482 18.5471 4.88683 18.5173 4.89867C17.1788 5.42154 16.0505 5.88995 15.0388 6.50126L14.8837 4.44507C14.8812 4.41002 14.8511 4.37867 14.8168 4.37477C14.7824 4.37086 14.7565 4.39601 14.7593 4.4315L14.9204 6.57414C14.0759 7.09912 13.3106 7.73102 12.5708 8.5896C12.4496 8.72981 12.3335 8.87507 12.2197 9.02224L10.5261 4.76975C10.5123 4.73521 10.4756 4.7136 10.4442 4.72133C10.4125 4.72938 10.3977 4.76364 10.4116 4.79818L12.1369 9.13042C12.0154 9.29139 11.8971 9.45363 11.7802 9.61302C11.5578 9.91858 11.327 10.2347 11.0822 10.5283C10.7017 10.9844 10.2962 11.3926 9.87045 11.7626L7.44484 6.20774C7.42988 6.1734 7.39245 6.15322 7.36148 6.16217C7.33014 6.17145 7.31733 6.20639 7.33229 6.24073L9.77814 11.8427C8.91681 12.5737 7.96856 13.15 6.94947 13.635L5.27746 8.85908C5.26552 8.82368 5.22917 8.80096 5.19698 8.80703C5.16479 8.81309 5.14852 8.84633 5.16084 8.8814L6.84193 13.685C5.50192 14.312 4.04198 14.7878 2.49773 15.2554C2.46639 15.2646 2.45398 15.3 2.46894 15.3344C2.47218 15.3418 2.47692 15.3487 2.48202 15.3545C2.50044 15.3756 2.52848 15.3858 2.55265 15.3788C3.27833 15.1589 3.98494 14.9375 4.67059 14.6996L9.59746 17.373C9.62987 17.3905 9.66537 17.3799 9.67676 17.3494C9.68815 17.3188 9.67117 17.2799 9.63874 17.2617L4.81992 14.6471C6.05375 14.2119 7.21454 13.7183 8.27991 13.0797C8.28851 13.0887 8.29974 13.0963 8.31163 13.1001L14.9533 15.2483C14.9874 15.2595 15.0189 15.2414 15.0238 15.2079Z" fill="#6CB961"/>
</g>
</svg>
