<svg width="20" height="20" viewBox="0 0 20 20" fill="none" xmlns="http://www.w3.org/2000/svg">
<circle cx="10" cy="10" r="10" fill="#BBC893"/>
<mask id="mask0_27_27" style="mask-type:luminance" maskUnits="userSpaceOnUse" x="2" y="3" width="18" height="15">
<path d="M2.66553 6.46811L17.7475 3.61952L19.7581 14.2648L4.67613 17.1134L2.66553 6.46811Z" fill="white"/>
</mask>
<g mask="url(#mask0_27_27)">
<path fill-rule="evenodd" clip-rule="evenodd" d="M17.8626 4.22871C15.7347 6.74324 15.0343 10.0839 13.8044 12.1322C5.99957 25.1286 -6.04783 4.05762 17.8626 4.22871Z" fill="#689F38"/>
</g>
<mask id="mask1_27_27" style="mask-type:luminance" maskUnits="userSpaceOnUse" x="2" y="6" width="15" height="13">
<path d="M2.39166 8.52789L14.845 6.17579L16.7059 16.0284L4.25256 18.3805L2.39166 8.52789Z" fill="white"/>
</mask>
<g mask="url(#mask1_27_27)">
<path fill-rule="evenodd" clip-rule="evenodd" d="M4.09646 17.5541C5.56769 14.3854 6.62123 11.1048 9.98471 8.61769C11.3476 7.61026 11.5985 7.28155 13.2016 6.56725L13.1845 6.57519C13.8644 6.349 14.1672 6.35542 14.8462 6.28139C14.3209 6.46172 14.6997 6.35217 14.0465 6.49306C12.4739 6.83276 11.4025 7.89912 10.1732 8.8634C6.71447 11.5759 6.01393 14.8932 4.35762 18.3619L4.09646 17.5541Z" fill="#558B2F"/>
</g>
<path fill-rule="evenodd" clip-rule="evenodd" d="M8.98155 9.48375C9.23891 9.39801 9.50503 9.32042 9.78169 9.25152C11.1701 8.90732 11.4713 8.7322 12.9532 8.69434L12.9373 8.69522C13.5414 8.73905 13.7763 8.84196 14.3304 9.00454C13.8621 8.97516 14.1936 9.01203 13.6375 8.91087C12.2994 8.66587 11.1203 9.15067 9.85026 9.50452C9.57147 9.58236 9.30437 9.66824 9.04808 9.76189C9.06225 9.66402 9.03793 9.56446 8.98155 9.48375Z" fill="#558B2F"/>
<path fill-rule="evenodd" clip-rule="evenodd" d="M6.81072 11.9936C6.82571 11.9899 6.8403 11.9863 6.85571 11.9825C8.49887 11.5744 8.85541 11.3671 10.6097 11.323L10.5908 11.3236C11.3059 11.3755 11.5834 11.4977 12.2398 11.6896C11.6852 11.6548 12.0774 11.6989 11.4197 11.5785C9.83518 11.2887 8.44013 11.863 6.93676 12.2814L6.90462 12.2909C6.90865 12.1842 6.87556 12.0787 6.81072 11.9936Z" fill="#558B2F"/>
<path fill-rule="evenodd" clip-rule="evenodd" d="M10.4771 8.57891C10.5503 8.41225 10.6159 8.24319 10.673 8.07148C10.9593 7.20933 11.1149 6.99126 11.1139 6.17312L11.1135 6.18216C11.0582 5.8669 10.9566 5.77126 10.7925 5.52008C10.8312 5.76548 10.7884 5.59685 10.8964 5.868C11.1562 6.5203 10.7344 7.31199 10.4365 8.11274C10.3713 8.28854 10.2977 8.46039 10.2172 8.62885C10.3075 8.59087 10.4009 8.57323 10.4771 8.57891Z" fill="#558B2F"/>
<path fill-rule="evenodd" clip-rule="evenodd" d="M7.55973 11.374C7.5636 11.3631 7.56746 11.3521 7.57084 11.3408C7.97172 10.1219 8.1707 9.83031 8.22945 8.61669L8.22892 8.6296C8.18678 8.15049 8.07452 7.98728 7.89918 7.57986C7.9272 7.95278 7.88927 7.69358 7.99611 8.11778C8.25417 9.1405 7.69929 10.2267 7.28966 11.3521L7.28068 11.3764C7.38124 11.3497 7.48075 11.3488 7.55973 11.374Z" fill="#558B2F"/>
</svg>
