<svg width="20" height="20" viewBox="0 0 20 20" fill="none" xmlns="http://www.w3.org/2000/svg">
<circle cx="10" cy="10" r="10" fill="#BBC893"/>
<mask id="mask0_27_97" style="mask-type:luminance" maskUnits="userSpaceOnUse" x="3" y="2" width="15" height="15">
<path d="M3 2H18V17H3V2Z" fill="white"/>
</mask>
<g mask="url(#mask0_27_97)">
<path d="M10.1724 8.7293C10.374 8.78711 10.579 8.83945 10.7871 8.88594C11.1173 8.95781 11.4548 9.01719 11.7984 9.06367C12.4855 9.15664 13.1999 9.20273 13.9285 9.18242C13.9544 9.18125 13.9807 9.17969 14.0066 9.17891H14.007C14.0286 9.17813 14.0502 9.17656 14.0722 9.17578C14.1309 9.17305 14.19 9.17031 14.2492 9.16641C14.2789 9.16484 14.3092 9.1625 14.3389 9.16016C14.3981 9.15625 14.4572 9.15195 14.5163 9.14727C14.5474 9.14453 14.5781 9.14141 14.6087 9.13828C14.667 9.1332 14.7253 9.12773 14.7835 9.12148C14.8163 9.11797 14.8487 9.11367 14.8811 9.10977C14.9376 9.10313 14.9937 9.09648 15.0503 9.08906C15.0857 9.08437 15.1211 9.07891 15.1565 9.07383C15.2095 9.06602 15.2626 9.05859 15.3157 9.05039C15.3559 9.04375 15.396 9.03633 15.4361 9.02969C15.4841 9.02109 15.532 9.01367 15.5794 9.00469C15.6287 8.99531 15.6779 8.98477 15.7266 8.975C15.765 8.96719 15.8035 8.96016 15.8419 8.95156C15.9286 8.93281 16.0154 8.91289 16.1013 8.8918C16.188 8.86836 16.2765 8.84805 16.362 8.82305C16.447 8.79766 16.5321 8.77227 16.618 8.74766C16.7 8.71914 16.7828 8.69141 16.8661 8.66367C16.9084 8.65078 16.9469 8.63398 16.987 8.61914C17.0267 8.60352 17.0668 8.58828 17.1066 8.57305C17.3379 8.48008 17.5567 8.37813 17.7626 8.2707L17.7674 8.26836C17.7756 8.26367 17.7842 8.25898 17.7928 8.2543C17.8563 8.2207 17.9193 8.18672 17.9802 8.15195C17.9651 8.14219 17.95 8.13242 17.9349 8.12266C17.8179 8.15508 17.7022 8.18672 17.5874 8.21758C17.0202 8.37109 16.4768 8.50547 15.9178 8.58828C15.7525 8.61445 15.5868 8.63672 15.421 8.65625C14.9186 8.71563 14.4136 8.74648 13.9073 8.75703C13.3181 8.76875 12.7277 8.75352 12.1376 8.72461C12.053 8.7207 11.9689 8.71641 11.8843 8.71172C11.5472 8.69375 11.2096 8.67031 10.8708 8.64727C10.7003 8.6375 10.532 8.62227 10.3602 8.61289C10.2752 8.60664 10.1888 8.60156 10.1038 8.59414C10.099 8.59375 10.0947 8.59375 10.09 8.59336C10.2467 8.40469 10.4025 8.21758 10.5566 8.03164C10.6062 8.04648 10.655 8.06133 10.7051 8.07539C10.7512 8.0875 10.7979 8.09961 10.8449 8.11172C10.9481 8.13789 11.0521 8.16289 11.1578 8.18398C11.2312 8.19922 11.3055 8.21328 11.3801 8.22617C11.438 8.23633 11.4962 8.24531 11.5549 8.25391C11.5696 8.25625 11.5843 8.25859 11.5994 8.26094C11.7647 8.28516 11.9322 8.3043 12.1014 8.31875C12.716 8.37227 13.3535 8.36094 13.9863 8.28945C14.0148 8.28633 14.0433 8.28398 14.0718 8.28047C14.373 8.24219 14.6713 8.18984 14.9648 8.12734C15.3149 8.05312 15.658 7.96406 15.9904 7.86445C16.2955 7.77227 16.5908 7.66953 16.8774 7.56328C17.1627 7.45547 17.4329 7.33828 17.6992 7.22344C17.6849 7.21289 17.6707 7.20234 17.6569 7.1918C17.5688 7.2043 17.4873 7.2207 17.4035 7.23555C17.3629 7.24375 17.3228 7.25195 17.2822 7.26055C17.2412 7.26836 17.2002 7.27578 17.1596 7.28359C17.0768 7.29805 16.9999 7.31758 16.9192 7.3332C16.8389 7.34883 16.7608 7.36602 16.6827 7.38242C16.368 7.44766 16.0637 7.51562 15.7599 7.57656C15.2553 7.67773 14.7598 7.7668 14.2643 7.83281C14.1633 7.84609 14.0623 7.85938 13.9613 7.8707C13.6492 7.90664 13.3358 7.93242 13.0212 7.94922C12.735 7.96484 12.4475 7.97266 12.1579 7.97266C11.9792 7.97305 11.7997 7.96992 11.6188 7.96523C11.5031 7.96172 11.3875 7.95742 11.2714 7.95234C11.2601 7.95195 11.2493 7.95156 11.2385 7.95078C11.1522 7.94805 11.0663 7.94336 10.98 7.93828C10.9105 7.93438 10.8402 7.93008 10.7694 7.92695C10.7297 7.92461 10.6899 7.92227 10.6498 7.91953C10.7715 7.77305 10.8919 7.62813 11.0119 7.48359C11.0681 7.48945 11.1242 7.49531 11.1807 7.50195C11.217 7.50586 11.2528 7.51016 11.2886 7.51367C11.3249 7.51641 11.3611 7.51914 11.3974 7.52187C11.4699 7.52773 11.5428 7.53359 11.6154 7.53945C11.7207 7.55 11.8269 7.55352 11.9339 7.55781C11.9745 7.55938 12.015 7.56094 12.0561 7.56289C12.1467 7.56875 12.2386 7.56953 12.3301 7.56953C12.3875 7.56953 12.445 7.56953 12.5019 7.56992C12.6517 7.57383 12.8015 7.56094 12.9521 7.55547C13.0277 7.55391 13.1023 7.54531 13.177 7.53828C13.2521 7.53125 13.3276 7.52383 13.4027 7.51758C13.4774 7.50781 13.5517 7.49648 13.6263 7.48633C13.7006 7.475 13.777 7.46797 13.8495 7.45234C13.9958 7.42383 14.146 7.40156 14.2889 7.36641C14.6976 7.27578 15.0939 7.16797 15.4875 7.06055C15.6528 7.01562 15.8177 6.97031 15.9826 6.92656C16.2619 6.85234 16.5411 6.78086 16.8243 6.71563C17.1057 6.64883 17.3919 6.58945 17.6798 6.53477C17.6703 6.52305 17.6612 6.51133 17.6513 6.49961C17.4803 6.49297 17.3129 6.49258 17.1497 6.49766C17.072 6.49922 16.9961 6.50273 16.9205 6.50703L16.9145 6.50742C16.8316 6.51211 16.7492 6.51797 16.6672 6.52422C16.3512 6.54961 16.0469 6.59062 15.7508 6.63867C15.7042 6.64648 15.6589 6.65469 15.6127 6.6625H15.6135C15.6053 6.66367 15.5976 6.66523 15.5898 6.6668C15.541 6.67539 15.4927 6.68437 15.4448 6.69336C15.4236 6.69727 15.4029 6.70117 15.3822 6.70508C15.3351 6.71406 15.2885 6.72305 15.2419 6.73242C15.2203 6.73672 15.1988 6.74102 15.1772 6.7457C15.1318 6.75469 15.0865 6.76406 15.0416 6.77344C15.0188 6.77813 14.9959 6.78281 14.9726 6.78789C14.9298 6.79688 14.8871 6.80625 14.8444 6.81523C14.8168 6.82109 14.7896 6.82695 14.7619 6.8332C14.7244 6.84141 14.6864 6.84961 14.6489 6.85742C14.5893 6.8707 14.5302 6.88359 14.471 6.89648C14.4494 6.90117 14.4283 6.90586 14.4067 6.91055C14.3618 6.92031 14.3169 6.93047 14.2725 6.93984C14.2095 6.95352 14.1469 6.96719 14.0843 6.98047C13.8219 7.03984 13.5616 7.08242 13.3 7.12813C13.234 7.13711 13.1675 7.14609 13.1015 7.15547C13.063 7.16055 13.0246 7.1668 12.9862 7.17266C12.9582 7.17656 12.9301 7.18047 12.9016 7.18281C12.8339 7.19023 12.7661 7.19805 12.6988 7.20625C12.6647 7.21016 12.631 7.2168 12.5965 7.21914C12.5619 7.22227 12.5274 7.225 12.4929 7.22773C12.4238 7.2332 12.3543 7.2418 12.2844 7.24961C12.2542 7.25391 12.2231 7.25625 12.1916 7.25859C12.1527 7.26133 12.113 7.26328 12.0733 7.26758C12.0198 7.27187 11.9663 7.27695 11.9123 7.28242C11.8234 7.29102 11.7345 7.30039 11.6443 7.30586C11.5718 7.31289 11.4993 7.31875 11.4263 7.32695C11.3896 7.33086 11.3534 7.33516 11.3167 7.33945C11.28 7.34297 11.2433 7.34688 11.2066 7.35039C11.176 7.35313 11.1453 7.35664 11.1142 7.36016C11.3568 7.06875 11.5942 6.78125 11.8286 6.49883C11.8256 6.50547 11.8221 6.51211 11.8191 6.51875C12.0466 6.57812 12.2887 6.60391 12.5308 6.61172C12.5857 6.61289 12.6409 6.61289 12.6962 6.6125C12.729 6.6125 12.7613 6.61133 12.7941 6.61055C12.814 6.61016 12.8339 6.60977 12.8537 6.60898C12.8982 6.60742 12.9426 6.60547 12.9866 6.60313C12.9918 6.60273 12.997 6.60234 13.0022 6.60195C13.0872 6.59727 13.1722 6.59141 13.2568 6.58398C13.7385 6.53867 14.2103 6.4543 14.673 6.36055C15.1344 6.26367 15.5859 6.1543 16.0279 6.04063C16.248 5.98281 16.466 5.92383 16.6823 5.86523C16.8968 5.80547 17.1087 5.74453 17.3193 5.68477C17.3068 5.67383 17.2947 5.6625 17.2822 5.65156C17.2723 5.65156 17.2628 5.65156 17.2529 5.65117H17.2512C17.1221 5.64961 16.9995 5.65234 16.8791 5.65742C16.7496 5.66328 16.6231 5.67109 16.4988 5.68086C16.2502 5.7 16.0128 5.72734 15.7797 5.7582C15.3149 5.82031 14.8733 5.90117 14.4421 5.98711C14.01 6.07305 13.5914 6.16836 13.1701 6.25898C12.9599 6.30469 12.7488 6.34727 12.5313 6.3875C12.4229 6.40664 12.312 6.42539 12.1976 6.44063C12.0858 6.45469 11.9702 6.46875 11.8454 6.47813C12.0388 6.24492 12.23 6.01484 12.4191 5.78906C12.4911 5.70273 12.5632 5.6168 12.6349 5.53164H12.6353C12.6323 5.53672 12.6293 5.54219 12.6267 5.54727C12.82 5.60273 13.0173 5.6543 13.2236 5.69219C13.4312 5.72539 13.6457 5.73867 13.8581 5.73281C13.9164 5.73008 13.9742 5.72578 14.0316 5.72031C14.0359 5.71992 14.0403 5.71953 14.0446 5.71914C14.3985 5.68516 14.7322 5.60547 15.0455 5.51602C15.1072 5.5 15.1655 5.48086 15.2238 5.46172C15.2549 5.45195 15.2859 5.4418 15.317 5.43203C15.3619 5.41797 15.4068 5.40391 15.4517 5.39023C15.4957 5.375 15.5389 5.36016 15.5825 5.34531C15.6697 5.31523 15.7586 5.28711 15.8445 5.25703C15.9299 5.22656 16.0154 5.19648 16.1013 5.16719C16.188 5.13867 16.2718 5.10781 16.3564 5.07812C16.4406 5.04844 16.5252 5.01914 16.6102 4.99063C16.7746 4.92969 16.9404 4.87148 17.1074 4.81523C17.0958 4.80625 17.0841 4.79766 17.0729 4.78867C17.0133 4.78906 16.9589 4.79336 16.902 4.7957C16.8476 4.8 16.7936 4.80469 16.7397 4.80938C16.6369 4.81797 16.5407 4.83125 16.444 4.84453H16.4436C16.4384 4.84531 16.4332 4.84609 16.4276 4.84687C16.3262 4.86055 16.226 4.87617 16.1293 4.89453C16.0888 4.90117 16.0495 4.90937 16.0106 4.91758H16.0115C16.0029 4.91914 15.9942 4.92109 15.9856 4.92266C15.9386 4.93281 15.8894 4.94062 15.8432 4.95117C15.7491 4.97109 15.6563 4.99219 15.5669 5.01562C15.4754 5.03711 15.3861 5.05977 15.2976 5.08359C15.2531 5.09453 15.21 5.10781 15.1668 5.1207C15.1232 5.13203 15.0796 5.14336 15.036 5.15469C14.9929 5.16641 14.9506 5.18008 14.9083 5.19258C14.866 5.20547 14.8232 5.21797 14.7805 5.22813C14.7386 5.24023 14.6972 5.25234 14.6553 5.26484C14.6346 5.27109 14.6139 5.27734 14.5927 5.28359C14.572 5.28867 14.5513 5.29414 14.5302 5.29922C14.4896 5.31094 14.4481 5.32266 14.4076 5.33438C14.3869 5.33984 14.3666 5.34648 14.3463 5.35156C14.3256 5.35586 14.3053 5.36094 14.285 5.36602C14.2449 5.37656 14.2043 5.38711 14.1637 5.39805C14.1231 5.40781 14.0839 5.41484 14.0433 5.42461C13.9626 5.4457 13.8827 5.45586 13.8007 5.47305C13.6371 5.49766 13.4653 5.51367 13.272 5.51875C13.1748 5.51797 13.0743 5.52031 12.9694 5.51719C12.9176 5.51719 12.8645 5.51602 12.811 5.51562C12.7575 5.51484 12.7035 5.51484 12.6478 5.51641C12.8166 5.31563 12.9832 5.11875 13.1485 4.92539C13.1546 4.92539 13.161 4.92539 13.1671 4.92539C13.1904 4.92539 13.2141 4.92539 13.2374 4.92578C13.2607 4.92461 13.2836 4.92305 13.3069 4.92188C13.3531 4.91914 13.3997 4.91641 13.4463 4.91367C13.4917 4.9082 13.537 4.90313 13.5827 4.89766C13.6052 4.89492 13.6281 4.89219 13.6509 4.88945C13.6729 4.88594 13.695 4.88125 13.717 4.87734C13.761 4.86914 13.805 4.86094 13.849 4.85313C13.8637 4.85039 13.8775 4.84687 13.8913 4.84375C13.9203 4.83711 13.9483 4.83008 13.9772 4.82344C14.0191 4.81289 14.0636 4.80469 14.1041 4.79258C14.4361 4.70234 14.7395 4.58555 15.0231 4.46211C15.1189 4.41914 15.2117 4.375 15.3036 4.33086C15.3351 4.31562 15.3671 4.30039 15.3982 4.28477C15.4249 4.27188 15.4517 4.2582 15.478 4.24492C15.5151 4.22656 15.5514 4.2082 15.5881 4.18984C15.6084 4.1793 15.6291 4.16875 15.6494 4.1582C15.7059 4.12891 15.7625 4.09961 15.8181 4.06953C15.9425 4.00195 16.0681 3.93672 16.188 3.86914C16.3085 3.80234 16.4233 3.73398 16.5416 3.66836C16.5299 3.66211 16.5182 3.65625 16.507 3.65C16.4664 3.65703 16.4263 3.66484 16.387 3.67305C16.3745 3.67539 16.3624 3.67813 16.3508 3.68047C16.3236 3.68633 16.2968 3.69219 16.2701 3.69844C16.2567 3.70156 16.2433 3.70508 16.2299 3.7082C16.2036 3.71445 16.1777 3.72109 16.1518 3.72773C16.1406 3.73086 16.1289 3.73359 16.1177 3.73633C16.084 3.7457 16.0504 3.75508 16.0171 3.76484C16.0111 3.76641 16.0046 3.76836 15.9986 3.76992L15.9921 3.77227C15.9852 3.77422 15.9783 3.77617 15.9714 3.77852C15.9524 3.78438 15.9334 3.78984 15.9144 3.7957C15.8976 3.80117 15.8807 3.80664 15.8639 3.81172C15.8462 3.81758 15.8285 3.82305 15.8112 3.82891C15.7957 3.83438 15.7797 3.83945 15.7642 3.84492L15.7577 3.84688H15.7573C15.6908 3.86992 15.6252 3.89297 15.5605 3.9168C15.4003 3.97617 15.2458 4.03867 15.0939 4.10273C14.9739 4.15352 14.8556 4.20469 14.7386 4.25703C14.4732 4.37461 14.2146 4.49414 13.9423 4.60508C13.8724 4.63203 13.8033 4.65898 13.7342 4.68633C13.6984 4.69883 13.6621 4.71055 13.6263 4.72422C13.6082 4.73086 13.5901 4.73828 13.5719 4.74453C13.5529 4.75 13.5344 4.75586 13.5154 4.76133C13.4204 4.79609 13.3194 4.82266 13.2124 4.85C13.4045 4.62539 13.594 4.40586 13.7817 4.19102C13.7934 4.18867 13.8055 4.18672 13.8167 4.18398C13.837 4.17852 13.8572 4.17305 13.8775 4.16758C13.9177 4.15664 13.9595 4.14648 13.9993 4.13477C14.0377 4.12227 14.0765 4.10938 14.1149 4.09687C14.1344 4.09063 14.1538 4.08437 14.1728 4.07773C14.1909 4.07031 14.2086 4.06328 14.2272 4.05586C14.2634 4.04141 14.2997 4.02734 14.3364 4.01289C14.4041 3.98125 14.4753 3.95156 14.5409 3.91836C14.8051 3.78789 15.0382 3.64297 15.2566 3.49688C15.4707 3.34883 15.6714 3.19961 15.8656 3.05273C15.9614 2.97891 16.0586 2.90664 16.1527 2.83398C16.2463 2.76172 16.337 2.68945 16.4298 2.61914C16.4185 2.61406 16.4073 2.60898 16.3965 2.6043C16.3607 2.61445 16.3257 2.625 16.2912 2.63594C16.2817 2.63867 16.2722 2.64219 16.2627 2.64531C16.2381 2.65312 16.2139 2.66133 16.1906 2.66992C16.179 2.67383 16.1682 2.67773 16.157 2.68203C16.1354 2.68984 16.1142 2.69766 16.0935 2.70586C16.0819 2.71016 16.0702 2.71484 16.0586 2.71953C16.0391 2.72734 16.0193 2.73555 16.0003 2.74375C15.9886 2.74883 15.9765 2.75352 15.9649 2.75859C15.9468 2.76641 15.9286 2.77461 15.9105 2.78281C15.8799 2.79688 15.8492 2.81133 15.819 2.82578C15.8125 2.82891 15.8065 2.83203 15.8 2.83477C15.7784 2.84531 15.7568 2.85625 15.7357 2.86719L15.7258 2.87187C15.6852 2.89258 15.6455 2.91328 15.6062 2.93477C15.3731 3.06211 15.1582 3.20039 14.9501 3.34375C14.9195 3.36484 14.8893 3.38633 14.8586 3.40742L14.8595 3.40664C14.8457 3.41641 14.8319 3.42617 14.8181 3.43594C14.7969 3.45078 14.7753 3.46562 14.7546 3.48047C14.7183 3.50625 14.6825 3.53164 14.6467 3.55703C14.6148 3.58008 14.5824 3.60273 14.5504 3.62539C14.5263 3.64258 14.5021 3.65977 14.4775 3.67695C14.4292 3.71133 14.38 3.74531 14.3303 3.77969C14.2777 3.81602 14.2224 3.85 14.1689 3.88789C14.1408 3.90508 14.1119 3.92188 14.0843 3.94023C14.0705 3.94922 14.0562 3.95859 14.0424 3.96758C14.0282 3.97656 14.0122 3.98398 13.998 3.99297C13.9682 4.01094 13.9388 4.02891 13.9095 4.04688L13.9065 4.04805C14.4417 3.43906 14.9609 2.87109 15.4711 2.35039C15.396 2.42031 15.3205 2.4918 15.2449 2.56367C15.2173 2.58984 15.1893 2.61641 15.1621 2.64297C15.1098 2.69297 15.0576 2.74336 15.0058 2.79375C14.9743 2.82461 14.9428 2.85469 14.9113 2.88555C14.8487 2.94727 14.7857 3.00938 14.7227 3.07227C14.6834 3.11094 14.6441 3.15039 14.6048 3.18945C14.5699 3.225 14.5345 3.26055 14.4995 3.29609C14.4762 3.31992 14.4529 3.34297 14.4296 3.36641C14.4261 3.34375 14.4287 3.32227 14.4309 3.30078C14.4339 3.27461 14.4399 3.24883 14.446 3.22344C14.4598 3.17266 14.4736 3.12188 14.4874 3.07148C14.5146 2.9707 14.5401 2.87031 14.5591 2.76836C14.5776 2.6668 14.5893 2.56367 14.5914 2.45898C14.5919 2.35352 14.5871 2.24688 14.5504 2.13125C14.433 2.20859 14.3601 2.30039 14.3018 2.39687C14.2884 2.41953 14.2764 2.44219 14.2656 2.46563C14.2574 2.48281 14.2505 2.50039 14.2436 2.51758C14.2414 2.52305 14.2388 2.52812 14.2366 2.53359C14.2284 2.55547 14.2211 2.57773 14.2142 2.60039L14.2138 2.60234C14.2069 2.62578 14.2013 2.64922 14.1961 2.67305V2.67344C14.1939 2.68359 14.1913 2.69336 14.1896 2.70352C14.171 2.81055 14.1706 2.92266 14.1978 3.03867C14.2125 3.09648 14.2332 3.15547 14.2673 3.21484C14.285 3.24492 14.3044 3.27461 14.3316 3.30391C14.3549 3.32969 14.3834 3.35547 14.4197 3.37617C14.2906 3.5082 14.1603 3.64258 14.0295 3.77891C14.0126 3.79648 13.9958 3.81406 13.979 3.83164C13.868 3.94766 13.7567 4.06484 13.6449 4.18398C13.6341 4.18984 13.6229 4.19531 13.6121 4.20156L13.619 4.21172C13.5914 4.24102 13.5633 4.27109 13.5361 4.30039C13.6104 4.19727 13.666 4.09297 13.7161 3.98828C13.7817 3.84727 13.8322 3.70586 13.8693 3.56328C13.9069 3.42109 13.9306 3.27734 13.9388 3.13203C13.9418 3.05898 13.9423 2.98555 13.9358 2.91133C13.9345 2.89766 13.9332 2.88437 13.9315 2.87109C13.9306 2.86602 13.9302 2.86094 13.9298 2.85547C13.9224 2.79922 13.9103 2.74258 13.8922 2.68437C13.8745 2.70117 13.8577 2.71836 13.8413 2.73555C13.7757 2.80547 13.7234 2.87852 13.6781 2.95391C13.6548 2.99219 13.6332 3.03086 13.6129 3.07031C13.5529 3.18945 13.5068 3.31289 13.4722 3.43906C13.4675 3.45625 13.4623 3.47305 13.458 3.49063C13.4554 3.50078 13.4537 3.51172 13.4507 3.52227H13.4511C13.4394 3.57266 13.4295 3.62383 13.4213 3.675L13.4209 3.67656C13.4148 3.71484 13.4096 3.75352 13.4058 3.79258C13.4053 3.79766 13.4045 3.80273 13.4045 3.80781C13.4006 3.85 13.3976 3.89219 13.3958 3.93516C13.3937 4.06836 13.3997 4.20391 13.436 4.34453C13.4403 4.36055 13.445 4.37656 13.4498 4.39297C13.4084 4.43789 13.3669 4.48203 13.325 4.52734C13.3216 4.53086 13.3186 4.53477 13.3151 4.53867C13.1338 4.73516 12.9508 4.93555 12.7661 5.13945C12.7752 5.08672 12.7808 5.03359 12.7829 4.98086C12.7868 4.88672 12.7808 4.79375 12.773 4.70234C12.7674 4.63516 12.76 4.56914 12.7553 4.5043C12.7514 4.46055 12.7488 4.4168 12.7475 4.37383C12.7475 4.36797 12.7475 4.3625 12.7471 4.35664C12.7462 4.3168 12.7462 4.27695 12.7471 4.2375C12.7484 4.17813 12.7514 4.11914 12.7562 4.06016C12.7613 4.02383 12.7644 3.9875 12.7682 3.95156C12.7713 3.91523 12.7808 3.8793 12.7864 3.84336C12.7963 3.77148 12.8162 3.70078 12.8326 3.63008C12.9085 3.34766 13.019 3.07383 13.1468 2.80547C13.2698 2.53633 13.4135 2.275 13.5111 2.00195C13.4744 2.02617 13.4386 2.05078 13.4036 2.07578V2.07617C13.3911 2.08477 13.3794 2.09414 13.3669 2.10312C13.3462 2.11875 13.325 2.13438 13.3043 2.15039C13.2897 2.16211 13.2754 2.17383 13.2612 2.18555C13.2435 2.19961 13.2262 2.21367 13.2089 2.22773C13.1947 2.23984 13.1805 2.25234 13.1666 2.26445C13.1498 2.27891 13.1334 2.29375 13.117 2.3082C13.1036 2.32031 13.0907 2.33242 13.0777 2.34492C13.0609 2.36055 13.0445 2.37656 13.0281 2.39219C13.0164 2.40391 13.0048 2.41562 12.9927 2.42734C12.9754 2.44531 12.9586 2.46328 12.9418 2.48125C12.9318 2.49141 12.9219 2.50195 12.9124 2.5125C12.8921 2.53398 12.8731 2.55625 12.8537 2.57852C12.8477 2.58555 12.8412 2.59258 12.8351 2.59961C12.8097 2.62969 12.7842 2.66016 12.76 2.69141C12.7359 2.72188 12.7126 2.75313 12.6897 2.78477C12.6832 2.79414 12.6772 2.80352 12.6703 2.81289C12.6552 2.83477 12.64 2.85664 12.6254 2.87891C12.6167 2.89219 12.6085 2.90586 12.6003 2.91914C12.5887 2.93789 12.577 2.95664 12.5658 2.97539C12.5567 2.99063 12.5481 3.00625 12.5395 3.02188C12.5296 3.03906 12.5205 3.05664 12.511 3.07383C12.5024 3.09063 12.4937 3.10742 12.4851 3.12461C12.4769 3.14102 12.4691 3.15742 12.4614 3.17422C12.4532 3.19219 12.445 3.21016 12.4368 3.22852C12.4298 3.24414 12.4238 3.25977 12.4173 3.27578C12.4096 3.29492 12.4014 3.31445 12.394 3.33398C12.3893 3.34805 12.3845 3.36211 12.3793 3.37617C12.372 3.39805 12.3642 3.41953 12.3573 3.44141V3.4418L12.356 3.4457C12.3457 3.4793 12.3362 3.51289 12.3271 3.54688C12.2922 3.70273 12.2706 3.86289 12.2762 4.02656C12.2835 4.18945 12.3094 4.35703 12.3638 4.51836C12.3962 4.61758 12.4342 4.71328 12.4717 4.80781C12.5356 4.9707 12.5965 5.13008 12.6236 5.29727C12.5736 5.35273 12.5235 5.40859 12.473 5.46445C12.3772 5.57109 12.2805 5.6793 12.1838 5.78828C12.1842 5.78047 12.1851 5.77305 12.1851 5.76523C12.1899 5.58477 12.1489 5.40781 12.0979 5.23984C12.0483 5.07109 11.9831 4.91055 11.9361 4.75586C11.8886 4.60938 11.8679 4.46172 11.8653 4.31211C11.8601 4.01289 11.9292 3.7125 12.0358 3.42031C12.1398 3.12617 12.2878 2.84336 12.435 2.55352C12.2468 2.64883 12.0867 2.76328 11.9438 2.88867C11.8545 2.96719 11.7742 3.05117 11.7008 3.13906V3.13867L11.6956 3.14531C11.6775 3.16719 11.659 3.18945 11.6417 3.21211C11.6192 3.24102 11.5977 3.26992 11.5774 3.29961C11.3754 3.59492 11.2528 3.93281 11.258 4.29336C11.2588 4.32266 11.2606 4.35234 11.2627 4.38203C11.2632 4.38828 11.2636 4.39492 11.2644 4.40156C11.2649 4.40586 11.2649 4.41016 11.2653 4.41445C11.2679 4.4375 11.2709 4.46094 11.2739 4.48398L11.2752 4.49102C11.2791 4.51562 11.2834 4.54063 11.289 4.56562C11.2994 4.61289 11.3128 4.66016 11.3283 4.70742C11.3426 4.75117 11.359 4.79492 11.3771 4.83789C11.4548 5.00859 11.5476 5.16836 11.64 5.32344C11.7587 5.52773 11.8774 5.72305 11.943 5.9332C11.9529 5.96523 11.962 5.99766 11.9693 6.03047C11.7259 6.30586 11.4794 6.58594 11.2299 6.8707C11.1721 6.55391 11.106 6.24805 11.0581 5.94531C10.9964 5.57695 10.9545 5.21563 10.9446 4.85977C10.9429 4.80977 10.9425 4.75977 10.9425 4.70977C10.9416 4.40586 10.9645 4.10664 11.0176 3.81211C11.0771 3.46836 11.1829 3.13437 11.3046 2.79531C10.9476 3.04961 10.7063 3.37656 10.5514 3.73164C10.3977 4.0875 10.336 4.47305 10.3511 4.86055C10.3528 4.90391 10.3559 4.94727 10.3597 4.99063C10.361 5.00938 10.3632 5.02773 10.3649 5.04609C10.3675 5.06953 10.3701 5.09297 10.3731 5.11641C10.3757 5.14062 10.3792 5.16484 10.3826 5.18906C10.3852 5.20508 10.3878 5.22109 10.3904 5.23711C10.3947 5.26523 10.3995 5.29336 10.4051 5.32188C10.4491 5.55586 10.5182 5.78789 10.6105 6.01445C10.7461 6.34102 10.923 6.65859 11.1587 6.95195C11.062 7.0625 10.9649 7.17266 10.8669 7.28398C10.7288 7.4418 10.5894 7.60039 10.4495 7.76016C10.3891 7.53281 10.3304 7.31406 10.2834 7.09648C10.2782 7.07227 10.2721 7.04844 10.2674 7.02461C10.2009 6.71133 10.1552 6.40195 10.1314 6.09414C10.1085 5.78633 10.1064 5.48086 10.1271 5.17539C10.1448 4.86914 10.1914 4.56602 10.2333 4.24883C10.2013 4.27813 10.1707 4.30781 10.1413 4.33828C10.1245 4.35586 10.1094 4.37344 10.0934 4.39102C10.0809 4.40547 10.0675 4.41953 10.0555 4.43398C10.0416 4.45078 10.0283 4.46797 10.0149 4.48516C10.0019 4.50117 9.98941 4.5168 9.97776 4.5332C9.96524 4.55 9.95315 4.56719 9.9415 4.58438C9.92985 4.60156 9.91819 4.61875 9.90697 4.63633C9.89618 4.65313 9.88539 4.67031 9.87503 4.6875C9.86424 4.70586 9.85345 4.72422 9.84309 4.74297C9.83359 4.75977 9.8241 4.77656 9.81546 4.79336C9.80511 4.81328 9.79518 4.83359 9.78525 4.85352C9.77748 4.86953 9.76928 4.88555 9.76237 4.90156C9.75158 4.925 9.74166 4.94844 9.73216 4.97187C9.72655 4.98516 9.72051 4.99883 9.71489 5.01211C9.70065 5.04922 9.68641 5.08672 9.67346 5.12461C9.66094 5.1625 9.64972 5.20117 9.63893 5.23984C9.63504 5.25273 9.63202 5.26602 9.62857 5.27891C9.62209 5.3043 9.61562 5.33008 9.61001 5.35586C9.60656 5.37227 9.6031 5.38867 9.59965 5.40508C9.59533 5.42734 9.59102 5.45 9.58713 5.47266C9.58368 5.49063 9.58109 5.50898 9.5785 5.52734C9.57548 5.54805 9.57246 5.56914 9.56987 5.59023C9.56728 5.60938 9.56512 5.62891 9.56339 5.64844C9.56123 5.66836 9.55994 5.68828 9.55821 5.7082C9.55692 5.72852 9.55519 5.74883 9.55433 5.76914C9.55303 5.78828 9.55303 5.80703 9.55217 5.82617C9.55174 5.84727 9.55088 5.86875 9.55088 5.88984C9.55088 5.90781 9.55131 5.92578 9.55174 5.94375C9.55174 5.96602 9.55217 5.98828 9.55303 6.01016V6.01172C9.5539 6.03516 9.55606 6.0582 9.55778 6.08164C9.55864 6.09727 9.55908 6.11289 9.5608 6.12852C9.59015 6.46875 9.68511 6.80859 9.84136 7.12734C9.97258 7.39023 10.1426 7.64023 10.3641 7.85742C10.352 7.87148 10.3395 7.88516 10.3274 7.89922C10.3149 7.89844 10.3023 7.89766 10.2898 7.89766C10.2821 7.91133 10.2747 7.92539 10.2674 7.93945C10.2739 7.94141 10.2803 7.94336 10.2868 7.9457C10.1405 8.11289 9.99286 8.28047 9.84482 8.44922C9.8392 8.43945 9.83359 8.42891 9.82798 8.41914C9.82194 8.40781 9.81633 8.39687 9.81029 8.38594C9.78439 8.3375 9.75935 8.28945 9.73561 8.2418C9.73346 8.2375 9.7313 8.2332 9.72914 8.22891C9.67303 8.11602 9.62166 8.00391 9.57548 7.89141C9.53188 7.78516 9.49174 7.67852 9.45678 7.57109C9.34456 7.23438 9.27161 6.89297 9.21852 6.54844C9.165 6.20391 9.13133 5.85625 9.09766 5.50781C9.06141 5.15859 9.03292 4.80898 8.95091 4.45625C8.86545 4.63633 8.80027 4.82031 8.7502 5.00781L8.74977 5.00938C8.71697 5.13203 8.69064 5.25586 8.66992 5.38125C8.66301 5.42383 8.65611 5.46641 8.6505 5.50898C8.64532 5.54883 8.641 5.58867 8.63712 5.62891C8.63582 5.64258 8.63453 5.65664 8.63323 5.67031C8.63064 5.69727 8.62848 5.72422 8.62676 5.75117C8.62589 5.7668 8.6246 5.78281 8.62373 5.79844C8.62158 5.83477 8.61985 5.8707 8.61899 5.90703C8.61812 5.92813 8.61812 5.94922 8.61812 5.97031C8.61769 5.98828 8.61726 6.00586 8.61726 6.02344C8.61726 6.04766 8.61769 6.07188 8.61812 6.0957C8.61856 6.10898 8.61899 6.12227 8.61942 6.13555C8.62028 6.15898 8.62028 6.18242 8.62158 6.20547C8.6233 6.24531 8.62632 6.28516 8.62935 6.32539C8.63064 6.33906 8.63194 6.35273 8.63323 6.36641C8.63582 6.39648 8.63927 6.42617 8.64229 6.45586C8.64402 6.46914 8.64532 6.48242 8.64704 6.4957C8.65265 6.5375 8.65827 6.5793 8.66517 6.62109C8.6915 6.77969 8.72948 6.93828 8.77955 7.09492C8.84732 7.30781 8.93753 7.5168 9.05536 7.71523C9.15852 7.88711 9.28154 8.05156 9.42613 8.19922C9.53706 8.3125 9.66008 8.41563 9.79647 8.50469C9.61476 8.71133 9.43261 8.91875 9.24917 9.12656C9.20989 9.11562 9.17147 9.10352 9.13478 9.09023C9.04673 9.05781 8.96602 9.01953 8.8948 8.97383C8.86156 8.95312 8.83092 8.93047 8.80157 8.90703C8.70445 8.82891 8.62719 8.7375 8.56503 8.63711C8.4036 8.37539 8.33066 8.05742 8.31167 7.74102C8.30865 7.65547 8.30562 7.57031 8.30303 7.48516C8.30001 7.39687 8.2957 7.3082 8.29008 7.21875C8.278 7.03984 8.25814 6.8582 8.21757 6.67734C8.17743 6.49687 8.1183 6.31641 8.02334 6.14883C7.92838 5.98203 7.80062 5.82617 7.63012 5.71289C7.68537 5.92031 7.70825 6.1168 7.71515 6.3125V6.31211C7.71731 6.38086 7.71818 6.44961 7.71731 6.51836V6.52617C7.71731 6.5582 7.71645 6.59023 7.71559 6.62266C7.71472 6.6582 7.71386 6.69375 7.71213 6.72969C7.7035 6.90195 7.69573 7.075 7.68926 7.24883C7.68839 7.26523 7.68839 7.28164 7.68796 7.29805C7.6858 7.3707 7.68451 7.44414 7.68494 7.51836C7.68451 7.55195 7.68537 7.58594 7.68623 7.61992V7.61953C7.68667 7.63164 7.68667 7.64375 7.6871 7.65586C7.68796 7.6793 7.68882 7.70234 7.68926 7.72539L7.69012 7.73203C7.69141 7.75508 7.69314 7.77773 7.69444 7.80078C7.7117 8.00117 7.75745 8.2 7.83687 8.39023C7.89083 8.51953 7.96248 8.64453 8.05183 8.75938C8.09369 8.81328 8.13945 8.86484 8.18952 8.91328C8.28102 9.00039 8.3885 9.075 8.50547 9.13125C8.5905 9.17188 8.68071 9.20352 8.77394 9.22148C8.9017 9.24688 9.03076 9.24922 9.1555 9.2332C9.1063 9.28945 9.05709 9.34531 9.00745 9.40156C8.98674 9.41797 8.96688 9.43555 8.94746 9.45273C8.94918 9.45625 8.95091 9.46016 8.95264 9.46406C8.81193 9.62344 8.67078 9.78281 8.52921 9.94219C8.3708 9.91289 8.22102 9.87305 8.08161 9.81797C7.86752 9.73438 7.67933 9.61797 7.52049 9.47539L7.51876 9.47383C7.49027 9.44883 7.46308 9.42227 7.43632 9.39531C7.3146 9.27187 7.21187 9.13281 7.129 8.98281C7.0785 8.89102 7.03491 8.7957 6.99908 8.69766C6.98138 8.64805 6.96584 8.59883 6.95117 8.54805C6.93649 8.49297 6.92225 8.43789 6.90757 8.38281C6.79665 7.94141 6.73061 7.49258 6.70514 7.03906C6.67967 6.58437 6.70341 6.1293 6.74658 5.65781C6.62313 5.82656 6.52299 6.00781 6.444 6.19766L6.44314 6.19961C6.38832 6.33086 6.343 6.46641 6.30718 6.6043C6.30502 6.6125 6.30329 6.6207 6.30113 6.62852C6.29466 6.65352 6.28862 6.67812 6.28301 6.70312C6.28085 6.71406 6.27826 6.72539 6.27567 6.73633C6.27092 6.75859 6.26617 6.78125 6.26186 6.80352C6.25927 6.81602 6.25711 6.82773 6.25495 6.83984C6.25063 6.8625 6.24675 6.88555 6.24286 6.9082C6.24071 6.91953 6.23898 6.93086 6.23725 6.94219C6.23207 6.97578 6.22689 7.00938 6.22258 7.04297C6.21567 7.09922 6.21006 7.15547 6.20574 7.21172C6.20402 7.23008 6.20315 7.24883 6.20186 7.26719C6.1997 7.30547 6.19754 7.34414 6.19625 7.38242C6.19582 7.40391 6.19495 7.42539 6.19495 7.44688C6.19409 7.48477 6.19452 7.52266 6.19495 7.56055C6.19539 7.58047 6.19495 7.60039 6.19582 7.62031C6.19754 7.67188 6.20013 7.72383 6.20402 7.77578C6.20574 7.80117 6.2079 7.82617 6.21049 7.85156L6.21006 7.85117L6.21136 7.86094C6.21395 7.88789 6.2161 7.91445 6.21913 7.94102C6.22258 7.96953 6.22603 7.99805 6.22992 8.02617L6.23035 8.03164L6.23078 8.03438C6.23423 8.05781 6.23768 8.08086 6.24114 8.1043C6.24632 8.13594 6.25107 8.16797 6.25668 8.2C6.2584 8.21016 6.26056 8.21992 6.26229 8.23008C6.27135 8.27773 6.28042 8.32578 6.29078 8.37344C6.30416 8.43203 6.3184 8.49102 6.33394 8.54922C6.35164 8.61055 6.36976 8.67188 6.38789 8.7332C6.39868 8.76562 6.40991 8.79805 6.42113 8.83047C6.43365 8.86289 6.44573 8.89492 6.45911 8.92617C6.4863 8.98945 6.51609 9.05156 6.54889 9.11172C6.58213 9.17188 6.61795 9.23008 6.65637 9.28711C6.73363 9.4 6.82168 9.50547 6.92009 9.59961C6.95764 9.63555 6.99692 9.66875 7.03706 9.70117C7.1031 9.75391 7.17216 9.80273 7.24381 9.84688C7.27316 9.86406 7.30252 9.88086 7.33273 9.89648C7.54293 10.0063 7.77386 10.0734 8.0078 10.0906C8.14204 10.1004 8.2767 10.0961 8.40878 10.0773C8.19685 10.3152 7.98492 10.5523 7.77342 10.7898C7.44323 10.7852 7.12727 10.7273 6.85621 10.5719C6.82125 10.5523 6.78801 10.5312 6.75478 10.5086C6.64903 10.4355 6.55148 10.3477 6.46386 10.2457C6.43796 10.2156 6.41336 10.184 6.38876 10.152C6.37969 10.1398 6.37106 10.1273 6.36199 10.1148C6.34775 10.0953 6.33437 10.0758 6.32056 10.0555C6.30934 10.0383 6.29811 10.0215 6.28689 10.0039C6.27783 9.98906 6.26876 9.97344 6.25927 9.9582C6.24718 9.93789 6.23466 9.91719 6.22301 9.89648C6.20315 9.86133 6.18373 9.82578 6.16517 9.78945C5.99511 9.45391 5.88116 9.08047 5.81339 8.69805C5.74476 8.31484 5.72016 7.92266 5.71843 7.53438C5.67052 7.92188 5.64592 8.31914 5.66837 8.72148C5.68434 9.0082 5.7262 9.29883 5.80001 9.58398V9.58477C5.81382 9.63789 5.82893 9.69102 5.8449 9.74414C5.84663 9.74844 5.84792 9.75313 5.84922 9.75742C5.86648 9.81328 5.88461 9.86875 5.90447 9.92344C5.93382 10.0031 5.96662 10.082 6.00245 10.1602C6.05511 10.2734 6.11553 10.3844 6.18632 10.4898C6.30416 10.6684 6.45264 10.8297 6.62356 10.959C6.79449 11.0895 6.98613 11.1863 7.18468 11.2539C7.1959 11.2578 7.20713 11.2613 7.21835 11.2648C7.25331 11.2762 7.28784 11.2867 7.3228 11.2965C7.23389 11.3969 7.1454 11.4973 7.05692 11.5973C6.9011 11.616 6.73622 11.6098 6.57177 11.5844C6.403 11.5582 6.2338 11.5125 6.06892 11.4512C6.02964 11.4363 5.99036 11.4203 5.95151 11.4043C5.91655 11.3895 5.88202 11.3738 5.84792 11.3578L5.83843 11.3535C5.76289 11.318 5.68822 11.2789 5.61527 11.2367C5.44996 11.1414 5.29198 11.0297 5.14652 10.8996C4.87417 10.6543 4.64368 10.3336 4.48138 9.96719C4.31909 9.60117 4.22327 9.19063 4.21982 8.77422C4.14946 9.43125 4.31218 10.1332 4.65447 10.7125L4.65749 10.7172C4.68468 10.7633 4.71274 10.8078 4.74209 10.852C4.74597 10.8582 4.74986 10.8641 4.75374 10.8699C4.7805 10.9094 4.8077 10.9477 4.83618 10.9855C4.84309 10.9945 4.84913 11.0043 4.85604 11.0133C4.89057 11.0582 4.92596 11.102 4.96308 11.1445C5.24019 11.4582 5.56434 11.7043 5.91655 11.8914C6.09309 11.9844 6.27783 12.0617 6.47206 12.118C6.50659 12.1281 6.54198 12.1371 6.57738 12.1457C6.463 12.2773 6.34991 12.409 6.23768 12.5406C6.14791 12.5813 6.05295 12.6102 5.95497 12.6266C5.89627 12.6367 5.8367 12.6426 5.77714 12.6434C5.74865 12.6438 5.72016 12.643 5.6921 12.6414C5.6852 12.641 5.67829 12.6402 5.67139 12.6398C5.64894 12.6383 5.6265 12.6363 5.60362 12.6332C5.59801 12.6328 5.5924 12.632 5.58679 12.6313C5.56175 12.6277 5.53672 12.6234 5.51168 12.6184L5.50305 12.6168C5.47456 12.6109 5.44608 12.6043 5.41802 12.5969C5.32997 12.573 5.24278 12.541 5.15732 12.4992C4.95661 12.4016 4.76583 12.2551 4.6031 12.0637C4.44038 11.8727 4.30657 11.6344 4.22715 11.3645C4.2647 11.6469 4.36441 11.9246 4.50771 12.168C4.65101 12.4113 4.83575 12.6215 5.04639 12.7852C5.07272 12.8055 5.09948 12.825 5.12667 12.8441C5.30709 12.9695 5.50478 13.0617 5.71455 13.1113C5.56693 13.2055 5.42363 13.2988 5.28163 13.3867C5.20911 13.432 5.1366 13.4762 5.06365 13.5176C5.03214 13.5355 5.00063 13.5531 4.96869 13.5703L4.95661 13.5766C4.92769 13.5918 4.8992 13.607 4.87028 13.6215L4.86165 13.6254C4.83057 13.641 4.79949 13.6559 4.76799 13.6703L4.76669 13.6707C4.73389 13.6859 4.70065 13.7004 4.66785 13.7137C4.57548 13.752 4.48181 13.784 4.38729 13.8078C4.15896 13.8652 3.9194 13.8703 3.6833 13.8047C3.56072 13.7707 3.43857 13.7152 3.32159 13.6375C3.29483 13.6199 3.26894 13.6012 3.24304 13.5816L3.24174 13.5805C3.21584 13.5602 3.19038 13.5391 3.16491 13.5164C3.16016 13.5125 3.15585 13.5078 3.1511 13.5035C3.13038 13.4844 3.10923 13.4645 3.08895 13.4434C3.06391 13.4176 3.03931 13.3902 3.01514 13.3617C3.03283 13.3898 3.05139 13.4168 3.07039 13.4438C3.07729 13.4535 3.08463 13.4637 3.09154 13.4734C3.10621 13.493 3.12089 13.5121 3.13599 13.5309C3.25037 13.6738 3.38202 13.7914 3.52187 13.8828H3.5223C3.54431 13.8973 3.56633 13.9113 3.58877 13.9246C3.61294 13.9391 3.63755 13.9527 3.66215 13.9652C3.78819 14.0297 3.91854 14.0754 4.05019 14.1035C4.17579 14.1305 4.30312 14.1418 4.43045 14.1379C4.46196 14.1371 4.49304 14.1352 4.52411 14.1328C4.53965 14.1316 4.55519 14.1301 4.57116 14.1281C4.58584 14.1266 4.60094 14.1254 4.61605 14.1234C4.63677 14.1211 4.65749 14.118 4.67777 14.1145C4.6877 14.1133 4.6972 14.1117 4.70669 14.1102C4.73087 14.1062 4.75547 14.102 4.77964 14.0969C4.78482 14.0961 4.79043 14.0949 4.79561 14.0938C4.82323 14.0883 4.85043 14.082 4.87805 14.0758L4.88323 14.0746C4.92683 14.0641 4.97085 14.0531 5.01445 14.0406C4.32039 14.9426 3.70402 15.8551 3.20678 16.8027C3.23915 16.8926 3.28879 16.9633 3.36476 16.9891L3.37641 16.9922C3.38893 16.9957 3.40145 16.9984 3.41439 17H3.41396H3.41483C3.4213 17.0008 3.42777 17.0012 3.43425 17.0016L3.43986 17.002C3.44677 17.002 3.45324 17.002 3.45972 17.0016L3.46446 17.0012C3.47137 17.0008 3.47828 17 3.48518 16.9992L3.48863 16.9988C3.49597 16.9977 3.50288 16.9965 3.51022 16.9945H3.51151C3.55036 16.9855 3.58834 16.9703 3.62503 16.9516L3.62848 16.95C3.63409 16.9469 3.63927 16.9441 3.64445 16.9414L3.65309 16.9363C3.65783 16.934 3.66215 16.9313 3.66603 16.9289L3.67812 16.9219L3.68805 16.9156C3.69323 16.9125 3.69884 16.909 3.70402 16.9059L3.71006 16.902C3.71697 16.8973 3.72344 16.893 3.73035 16.8883L3.73121 16.8879C3.74675 16.8773 3.76186 16.8668 3.77653 16.8566C3.80588 16.8363 3.83567 16.8145 3.86674 16.7914C4.3683 15.834 4.9838 14.9008 5.67311 13.9742L5.67484 13.9781C5.67657 13.9828 5.67829 13.9867 5.68002 13.991C5.71412 14.0797 5.75124 14.166 5.79138 14.25L5.79181 14.2508C5.86691 14.4086 5.95195 14.5582 6.04431 14.6969C6.07496 14.743 6.1069 14.7875 6.13927 14.8313V14.8316C6.20229 14.9172 6.2679 14.998 6.33566 15.0742L6.34387 15.084C6.36156 15.1031 6.37926 15.1223 6.39696 15.141C6.40602 15.1508 6.41508 15.1605 6.42458 15.1699C6.43969 15.1859 6.45479 15.2016 6.47033 15.2168C6.48285 15.2293 6.4958 15.2418 6.50832 15.2539C6.5217 15.2668 6.53508 15.2797 6.54846 15.2922C6.56529 15.3074 6.58169 15.3223 6.59853 15.3371C6.60889 15.3465 6.61968 15.3562 6.63004 15.3652C6.65809 15.3895 6.68615 15.4129 6.71464 15.4355C6.81607 15.5168 6.92095 15.5883 7.028 15.6512C7.18123 15.7414 7.3392 15.8129 7.5002 15.8637C7.53085 15.8734 7.56149 15.882 7.59214 15.8902C7.60336 15.893 7.61415 15.8957 7.62494 15.898C7.6448 15.9031 7.66465 15.9074 7.68408 15.9117C7.69746 15.9148 7.71127 15.9176 7.72465 15.9203C7.74148 15.9234 7.75832 15.9262 7.77515 15.9289C7.8386 15.9391 7.90205 15.9465 7.9655 15.95C7.97284 15.9508 7.98061 15.9512 7.98794 15.9516C8.01039 15.9527 8.03283 15.9531 8.05528 15.9535C8.06089 15.9535 8.0665 15.9535 8.07168 15.9535C8.15844 15.9535 8.24433 15.9484 8.32979 15.9359C8.23786 15.934 8.14678 15.9242 8.05657 15.9082C7.99356 15.8969 7.93183 15.8824 7.87011 15.8648C7.86191 15.8625 7.85414 15.8602 7.84594 15.8578C7.82954 15.8527 7.81313 15.8477 7.7963 15.8422C7.7799 15.8367 7.7635 15.8313 7.74753 15.8254C7.73199 15.8199 7.71645 15.8141 7.70091 15.8082C7.67933 15.7996 7.65818 15.791 7.6366 15.782C7.62796 15.7785 7.61933 15.7746 7.61027 15.7707C7.58221 15.7582 7.55459 15.7453 7.52696 15.7316C7.49848 15.7176 7.46999 15.7027 7.44193 15.6871C7.432 15.6813 7.42165 15.6754 7.41172 15.6699C7.39488 15.6602 7.37762 15.6504 7.36079 15.6398C7.34741 15.632 7.33402 15.6238 7.32064 15.6152C7.30856 15.6074 7.29647 15.5996 7.28439 15.5914C7.26885 15.5813 7.25331 15.5711 7.23777 15.5605C7.09274 15.4602 6.95549 15.3426 6.82815 15.2105C6.61925 14.993 6.43667 14.7359 6.29293 14.4543C6.23337 14.3379 6.18114 14.2168 6.13625 14.093C6.12546 14.0641 6.1151 14.0348 6.10517 14.0055C6.09697 13.9797 6.08877 13.9535 6.081 13.9277C6.07841 13.9187 6.07539 13.9105 6.0728 13.902C6.03914 13.7879 6.01237 13.6723 5.99295 13.5563L5.98777 13.5578C6.01324 13.5242 6.03914 13.491 6.0646 13.4574C6.15006 13.3473 6.23682 13.2371 6.32401 13.1266C6.33135 13.125 6.33869 13.1242 6.34559 13.1227L6.35207 13.1211C6.35811 13.1324 6.36372 13.1445 6.37063 13.1559C6.3866 13.1883 6.40645 13.2148 6.42458 13.2438C6.44357 13.2719 6.46127 13.302 6.48112 13.3281C6.52213 13.3793 6.56054 13.4344 6.60414 13.4797C6.63004 13.509 6.6568 13.5375 6.68399 13.5652L6.69478 13.5762C6.72068 13.6023 6.74701 13.6277 6.77377 13.6523L6.7742 13.6531C6.89419 13.7648 7.02023 13.8613 7.14842 13.9477C7.32237 14.0637 7.50107 14.1621 7.68278 14.248C7.84421 14.3246 8.0078 14.3918 8.17354 14.4512L8.17743 14.4527C8.23268 14.4727 8.28836 14.4918 8.34361 14.5102C8.39368 14.5262 8.44375 14.5422 8.49381 14.557C8.52144 14.5652 8.54949 14.573 8.57712 14.5809C8.59913 14.5875 8.62114 14.5941 8.64359 14.6C8.67985 14.6098 8.7161 14.6191 8.75279 14.6285C8.76574 14.632 8.77912 14.6355 8.79293 14.6387C8.83437 14.6492 8.87624 14.659 8.91767 14.6684C8.92588 14.6703 8.93408 14.6723 8.94228 14.6742C8.9876 14.6844 9.03335 14.6938 9.0791 14.7031C9.08299 14.7039 9.08731 14.7051 9.09162 14.7059C9.13996 14.7152 9.18831 14.7246 9.23665 14.7332L9.24183 14.734C9.29147 14.743 9.34154 14.7512 9.39117 14.759L9.39333 14.7594C9.44297 14.7672 9.49304 14.7746 9.54311 14.7812L9.5457 14.7816C9.56641 14.7844 9.5867 14.7875 9.60785 14.7898C9.84438 14.8191 10.0844 14.8367 10.3261 14.8387C10.3442 14.8387 10.3628 14.8387 10.3809 14.8387C10.4055 14.8387 10.4301 14.8387 10.4547 14.8383C10.4944 14.8375 10.5346 14.8363 10.5743 14.8348C10.5877 14.834 10.6015 14.8332 10.6148 14.8328C10.6541 14.8309 10.6943 14.8281 10.734 14.8254C10.7474 14.8242 10.7612 14.8234 10.7745 14.8223C10.8238 14.818 10.8725 14.8133 10.9217 14.8074C10.8669 14.8086 10.8125 14.809 10.7581 14.8078C10.7353 14.8074 10.7124 14.8063 10.6895 14.8055C10.6584 14.8047 10.6274 14.8039 10.5963 14.8023C10.5618 14.8004 10.5277 14.798 10.4936 14.7953C10.4746 14.7937 10.4556 14.793 10.4366 14.7914C10.3943 14.7875 10.352 14.7832 10.3101 14.7785C10.2998 14.7773 10.2894 14.7762 10.279 14.7754C10.2311 14.7695 10.1828 14.7629 10.1349 14.7563L10.1232 14.7547C10.0719 14.7469 10.0201 14.7387 9.96912 14.7297L9.96826 14.7293C9.8651 14.7113 9.76324 14.691 9.6618 14.668C9.65015 14.6656 9.6385 14.6633 9.62727 14.6609C9.20902 14.5637 8.80286 14.4305 8.41439 14.2574C8.4036 14.2523 8.39281 14.2473 8.38159 14.2422C8.28836 14.2 8.19556 14.1551 8.10448 14.1082L8.09412 14.1027C8.05226 14.0813 8.01039 14.0594 7.96895 14.0363C7.95989 14.0316 7.95126 14.0262 7.94219 14.0211C7.90637 14.0012 7.87097 13.9812 7.83558 13.9602C7.82004 13.9512 7.80407 13.941 7.78853 13.9316C7.76004 13.9145 7.73199 13.8973 7.70393 13.8797C7.68062 13.8648 7.65818 13.8496 7.6353 13.8344C7.61502 13.8207 7.5943 13.8074 7.57401 13.7937C7.54293 13.7723 7.51229 13.75 7.48207 13.7277C7.46999 13.7191 7.45833 13.7109 7.44668 13.7027C7.40481 13.6711 7.36294 13.6387 7.32237 13.6055C7.20065 13.5055 7.08497 13.3969 6.98311 13.2789C6.94772 13.2379 6.91405 13.1961 6.88211 13.1527C6.87002 13.1375 6.8588 13.1219 6.84844 13.1059C6.83031 13.0789 6.81391 13.0512 6.79621 13.025C6.78197 13.0035 6.77161 12.9805 6.75953 12.9582C6.7483 12.9359 6.73406 12.9148 6.72586 12.8914C6.69651 12.8297 6.67579 12.7668 6.66068 12.7043C6.75391 12.5883 6.84844 12.4723 6.9434 12.3559C6.94901 12.3672 6.95462 12.3789 6.96066 12.3902C6.97577 12.4223 6.99563 12.4492 7.01289 12.4785C7.03145 12.5066 7.04829 12.5371 7.06814 12.5637C7.10785 12.616 7.14497 12.6715 7.1877 12.7184C7.20669 12.7414 7.22612 12.7633 7.24597 12.7852C7.25763 12.798 7.26928 12.8102 7.2805 12.8227C7.28827 12.8309 7.29647 12.8395 7.30424 12.8477C7.31935 12.8633 7.33402 12.8785 7.34956 12.8938C7.35388 12.898 7.3582 12.9023 7.36208 12.9066C7.37891 12.923 7.39618 12.9391 7.41301 12.9551L7.41776 12.9598C7.51747 13.0527 7.62063 13.1367 7.72638 13.2148C8.10751 13.4941 8.51626 13.6984 8.93623 13.8656C9.31132 14.0141 9.69892 14.1273 10.0956 14.209C10.1426 14.2188 10.1901 14.2281 10.2372 14.2367C10.683 14.318 11.144 14.3586 11.6093 14.3172C11.5321 14.3172 11.4552 14.3141 11.3784 14.3094C10.9955 14.2871 10.6243 14.2133 10.2661 14.1117C10.1586 14.0809 10.052 14.0477 9.94625 14.0117C9.62986 13.9047 9.32254 13.7758 9.02731 13.6246C8.97249 13.5961 8.91767 13.5672 8.86372 13.5371C8.85595 13.5332 8.84861 13.5289 8.84128 13.5246C8.79293 13.498 8.74459 13.4707 8.69711 13.4426C8.69193 13.4395 8.68718 13.4363 8.682 13.4336C8.63107 13.4031 8.58014 13.3723 8.53007 13.3402L8.52532 13.3371C8.4718 13.3031 8.41957 13.2688 8.36778 13.2332C8.21498 13.1281 8.06823 13.0156 7.92967 12.8934C7.855 12.827 7.78335 12.7574 7.71559 12.6852C7.69616 12.6645 7.6776 12.6438 7.65861 12.6227L7.65559 12.6188C7.63876 12.5996 7.62235 12.5805 7.60638 12.5613C7.60379 12.5578 7.60034 12.5539 7.59732 12.55C7.58351 12.5332 7.57013 12.516 7.55675 12.4988C7.552 12.493 7.54768 12.4875 7.54337 12.4816C7.52653 12.4594 7.5097 12.4367 7.49373 12.4141C7.46136 12.3715 7.43718 12.325 7.40913 12.2812C7.39488 12.2594 7.38496 12.2352 7.37287 12.2129C7.36208 12.1898 7.34827 12.1676 7.34007 12.1441C7.31115 12.0797 7.29129 12.0145 7.27705 11.9504C7.30467 11.9172 7.33273 11.8836 7.36035 11.85C7.41085 11.8758 7.4592 11.9059 7.50668 11.9387C7.55329 11.9711 7.59861 12.0059 7.6435 12.041C7.69098 12.0789 7.7376 12.1184 7.78421 12.1586C7.85112 12.2168 7.91716 12.2766 7.9832 12.3371C8.20678 12.5402 8.42821 12.7484 8.66085 12.9434C8.89307 13.1387 9.13478 13.3219 9.39333 13.4797C9.48915 13.5387 9.58756 13.5938 9.6877 13.6441L9.68986 13.6453C9.70238 13.6516 9.71446 13.6574 9.72655 13.6633C9.74856 13.6738 9.77014 13.6848 9.79216 13.6949C9.79647 13.6969 9.80122 13.6988 9.80511 13.7012C9.83532 13.7148 9.8651 13.7281 9.89532 13.7414C9.95186 13.7656 10.0097 13.7879 10.0675 13.8094C10.1163 13.827 10.1655 13.8441 10.2152 13.8598C10.2739 13.8773 10.333 13.893 10.393 13.9074L10.3947 13.9078C10.4288 13.916 10.4629 13.923 10.4974 13.9301L10.5035 13.9313C10.5367 13.9379 10.57 13.9438 10.6032 13.9496L10.6135 13.9512C10.6459 13.9566 10.6783 13.9609 10.7107 13.9652C10.7154 13.966 10.7202 13.9664 10.7253 13.9672C10.7564 13.9711 10.7879 13.9746 10.819 13.9773C10.8255 13.9781 10.832 13.9785 10.838 13.9793C10.8682 13.9816 10.8984 13.984 10.9286 13.9859C10.9364 13.9863 10.9442 13.9867 10.9519 13.9871C10.9809 13.9887 11.0098 13.9898 11.0387 13.991C11.0482 13.991 11.0577 13.9914 11.0672 13.9914C11.0944 13.9918 11.122 13.9922 11.1496 13.9922C11.1609 13.9918 11.1721 13.9918 11.1829 13.9918C11.2092 13.991 11.2355 13.9906 11.2619 13.9898C11.2744 13.9891 11.2869 13.9883 11.2998 13.9879C11.3244 13.9863 11.3495 13.9855 11.3741 13.9836C11.3883 13.9824 11.403 13.9812 11.4172 13.9801C11.4406 13.9781 11.4639 13.9762 11.4872 13.9738C11.5031 13.9719 11.52 13.9699 11.5359 13.968C11.5575 13.9656 11.5791 13.9633 11.6007 13.9602C11.6188 13.9578 11.6374 13.9547 11.6559 13.952C11.6754 13.9492 11.6948 13.9465 11.7142 13.943C11.7354 13.9395 11.7565 13.9355 11.7777 13.9316C11.7945 13.9285 11.8113 13.9254 11.8282 13.9223C11.8528 13.9172 11.8778 13.9113 11.9024 13.9059C11.9158 13.9031 11.9292 13.9004 11.9421 13.8977C11.9801 13.8887 12.0181 13.8793 12.0561 13.8691C12.0949 13.859 12.1342 13.8484 12.173 13.8379C12.1808 13.8355 12.189 13.8332 12.1968 13.8309C12.4588 13.757 12.719 13.6656 12.972 13.5535C13.1235 13.4926 13.2681 13.416 13.4166 13.3465L13.4256 13.3422L13.4304 13.3398C13.5003 13.3078 13.5663 13.2688 13.635 13.234C13.7075 13.1957 13.78 13.1578 13.8534 13.1203C13.8434 13.1047 13.8335 13.0891 13.8236 13.0738C13.736 13.0871 13.6531 13.1066 13.5693 13.1227C13.5279 13.132 13.4873 13.1414 13.4463 13.1512C13.426 13.1559 13.4062 13.1605 13.3859 13.1652C13.3656 13.1695 13.3449 13.1738 13.3246 13.1777C13.1619 13.2094 13.0078 13.252 12.8515 13.2789C12.754 13.3004 12.6582 13.3191 12.5628 13.3371C12.3578 13.375 12.1575 13.4043 11.9641 13.4254C11.9292 13.4289 11.8938 13.4328 11.8584 13.4363C11.8234 13.4395 11.7884 13.4449 11.7539 13.4445C11.6844 13.4465 11.6158 13.4512 11.548 13.4551C11.4803 13.4551 11.4129 13.4508 11.3465 13.4527C11.3132 13.4547 11.2804 13.4512 11.2476 13.4484C11.2148 13.4461 11.182 13.4438 11.1492 13.4414C11.084 13.4391 11.0201 13.427 10.9558 13.4207C10.9239 13.4156 10.8915 13.4152 10.8604 13.4074C10.8289 13.4012 10.7974 13.3945 10.7659 13.3883C10.7348 13.3809 10.7029 13.3781 10.6714 13.3703C10.6403 13.3625 10.6092 13.3547 10.5782 13.3473C10.5475 13.3391 10.516 13.3324 10.4854 13.3234C10.4547 13.3137 10.4241 13.3035 10.3934 13.2934C10.2484 13.248 10.1047 13.1926 9.96179 13.1297C9.65188 12.9918 9.34456 12.816 9.03206 12.6195C9.00141 12.6004 8.9712 12.5809 8.94055 12.5613C8.69495 12.4074 8.4459 12.2398 8.17829 12.084C8.11139 12.0461 8.04233 12.0074 7.97327 11.9711C7.93787 11.9531 7.90205 11.9359 7.86666 11.918C7.83213 11.9 7.79501 11.884 7.75745 11.8688C7.73587 11.859 7.71343 11.85 7.69098 11.8414C7.63832 11.8211 7.58394 11.8031 7.53042 11.7871C7.49675 11.7801 7.46351 11.773 7.43028 11.766C7.5261 11.6508 7.62192 11.5355 7.71861 11.4203C7.72983 11.4066 7.74148 11.393 7.75271 11.3793C7.76609 11.3809 7.77947 11.3828 7.79285 11.3844C7.79414 11.3645 7.79587 11.3453 7.79716 11.3258C7.82565 11.2922 7.85414 11.259 7.88219 11.2254C8.14031 11.3039 8.38375 11.4293 8.60561 11.5859C8.64661 11.6137 8.68718 11.643 8.72733 11.6723C8.73682 11.6793 8.74675 11.6867 8.75625 11.6938C8.79423 11.7219 8.83178 11.7504 8.8689 11.7793L8.87926 11.7871C8.91508 11.8148 8.95048 11.8434 8.98587 11.8719C9.00055 11.8836 9.01522 11.8953 9.02947 11.907C9.05493 11.9277 9.07997 11.9484 9.105 11.9688C9.1719 12.0234 9.23794 12.0785 9.30485 12.1328C9.41966 12.2277 9.53793 12.3195 9.65878 12.409C9.72051 12.4516 9.78007 12.4969 9.84438 12.5367C9.87589 12.557 9.9074 12.5773 9.93891 12.5977C9.97128 12.6172 10.0045 12.6355 10.0373 12.6547C10.1016 12.6938 10.1703 12.7258 10.238 12.7602C10.3062 12.7937 10.3774 12.8203 10.4474 12.8508C10.5195 12.875 10.5907 12.9027 10.6649 12.9234C10.702 12.9332 10.7392 12.943 10.7758 12.9531C10.7948 12.9578 10.813 12.9629 10.832 12.968C10.8509 12.9715 10.8699 12.975 10.8885 12.9785C11.0365 13.0074 11.1868 13.025 11.3387 13.0328C11.4984 13.0414 11.6603 13.0398 11.8221 13.0301C11.9011 13.0258 11.9801 13.0191 12.0591 13.0105C12.2965 12.9848 12.5334 12.9418 12.7708 12.8938C12.8498 12.877 12.9288 12.8598 13.0082 12.8434C13.0868 12.8234 13.1658 12.8039 13.2452 12.7848C13.2849 12.775 13.3242 12.7656 13.3639 12.7559C13.3937 12.7484 13.4235 12.7402 13.4528 12.732C13.4627 12.7293 13.4727 12.7262 13.4826 12.7238C13.5611 12.702 13.6401 12.6805 13.7196 12.6594C13.8775 12.6141 14.0342 12.5641 14.1935 12.5188C14.3506 12.468 14.509 12.4184 14.6683 12.3703C14.6618 12.3539 14.6549 12.3375 14.648 12.3211C14.5155 12.3215 14.3856 12.3262 14.2587 12.3344C14.2155 12.3371 14.1723 12.3402 14.1296 12.3438C14.0446 12.3473 13.9613 12.3543 13.8784 12.3605C13.7951 12.3656 13.7139 12.3777 13.6319 12.3816C13.5504 12.3875 13.4701 12.3957 13.3898 12.4027C13.3501 12.4066 13.3104 12.4109 13.2707 12.4148C13.231 12.418 13.1917 12.4207 13.1524 12.4242C13.0734 12.4293 12.9957 12.4379 12.9189 12.4461C12.8416 12.4516 12.7648 12.4551 12.6893 12.4629C12.1821 12.5039 11.709 12.5168 11.2813 12.4598C11.2429 12.4551 11.2049 12.4492 11.1678 12.443C11.1621 12.4422 11.157 12.4414 11.1514 12.4402C11.1121 12.4336 11.0728 12.4262 11.034 12.418C11.005 12.4125 10.9761 12.4062 10.9476 12.3996C10.9278 12.3949 10.9079 12.3898 10.8881 12.3848C10.8794 12.3824 10.8708 12.3805 10.8622 12.3781C10.8402 12.3723 10.8181 12.3656 10.7961 12.3594C10.7901 12.3574 10.784 12.3559 10.778 12.3539C10.7547 12.3469 10.7314 12.3395 10.7081 12.3316L10.6956 12.3277C10.671 12.3191 10.6459 12.3102 10.6213 12.3012L10.6144 12.2988C10.5881 12.2891 10.5618 12.2789 10.5359 12.2684L10.5346 12.268C10.4806 12.2461 10.4267 12.2227 10.3727 12.1977H10.3723C10.1789 12.1082 9.98553 12 9.78352 11.8766V11.877C9.72396 11.8406 9.66353 11.8031 9.60224 11.7645C9.55649 11.7363 9.5103 11.7082 9.46325 11.6797C9.43649 11.6637 9.40973 11.6477 9.38254 11.6313C9.26125 11.559 9.13522 11.4871 9.00314 11.4207L9.00227 11.4203C8.97335 11.4059 8.94444 11.3922 8.91508 11.3781C8.90818 11.375 8.90127 11.3715 8.89437 11.368C8.85768 11.3512 8.82056 11.3348 8.78344 11.3195C8.74675 11.3031 8.7079 11.2895 8.66992 11.2754C8.63107 11.2617 8.59438 11.2461 8.55467 11.2352C8.47482 11.2129 8.39886 11.1875 8.31685 11.175C8.19772 11.1484 8.07384 11.1398 7.95255 11.143C8.01859 11.066 8.08377 10.9891 8.14765 10.9102C8.21196 10.8336 8.27714 10.7574 8.34274 10.6816C8.41008 10.6816 8.47741 10.6848 8.54475 10.6906C8.63021 10.698 8.71524 10.7102 8.79984 10.7254C8.89523 10.7453 8.99019 10.7688 9.08385 10.7949C9.14773 10.8125 9.21161 10.8316 9.27463 10.852C9.34456 10.8742 9.41448 10.8977 9.48397 10.9219C9.5021 10.9285 9.52023 10.9348 9.53836 10.941C9.60094 10.9629 9.6631 10.9855 9.72525 11.0086C9.76885 11.0246 9.81244 11.041 9.85604 11.0574C9.97344 11.1016 10.0904 11.1461 10.2082 11.1906C10.5207 11.3078 10.838 11.4207 11.1652 11.5156C11.4923 11.6109 11.8299 11.6879 12.1769 11.7406C12.5244 11.7906 12.8805 11.8164 13.2417 11.8199C13.3661 11.8215 13.4912 11.8195 13.6168 11.816C13.8555 11.8094 14.0959 11.7949 14.3368 11.7703C14.383 11.766 14.4292 11.7625 14.4749 11.7578C14.5211 11.7523 14.5668 11.7465 14.613 11.741C14.705 11.7293 14.7978 11.7211 14.8901 11.707C15.0744 11.6797 15.26 11.6559 15.4443 11.6223C15.8147 11.5605 16.182 11.4812 16.5528 11.4055C16.5467 11.3898 16.5407 11.3742 16.5346 11.3582C15.7318 11.3359 14.9976 11.3707 14.2975 11.357C14.2103 11.3551 14.1236 11.3566 14.0377 11.3527C13.9513 11.3488 13.8663 11.3477 13.7813 11.3457C13.6116 11.3348 13.4437 11.3316 13.2789 11.3164C13.2374 11.3137 13.1964 11.3105 13.155 11.3078C13.114 11.3039 13.0734 11.3 13.0324 11.2965C12.9918 11.293 12.9508 11.2891 12.9098 11.2855C12.8692 11.2816 12.8291 11.2754 12.789 11.2707C12.7082 11.2605 12.6271 11.2547 12.5477 11.2418C12.5114 11.2363 12.4752 11.2316 12.4393 11.2266C12.4251 11.2246 12.4109 11.2227 12.397 11.2203C12.3888 11.2191 12.3806 11.218 12.3724 11.2168C12.3547 11.2137 12.337 11.2109 12.3193 11.2074L12.3086 11.2055C12.2594 11.1984 12.211 11.1895 12.1622 11.1813C12.0526 11.1633 11.9434 11.143 11.8346 11.1199C11.6767 11.0902 11.5204 11.0539 11.3629 11.016C11.3396 11.0105 11.3158 11.0051 11.2925 11H11.2929C11.2765 10.9961 11.2606 10.9926 11.2446 10.9891C11.2049 10.9789 11.1656 10.9688 11.1263 10.9586C11.0465 10.9383 10.9675 10.9184 10.8881 10.898C10.8548 10.8895 10.8216 10.8809 10.7884 10.8723H10.7888C10.6602 10.8387 10.5324 10.8059 10.4046 10.7727C10.0775 10.6902 9.74036 10.6059 9.38556 10.5586C9.31348 10.5492 9.24053 10.5426 9.16716 10.5371C9.06011 10.5293 8.95307 10.5258 8.84559 10.5289C8.701 10.5344 8.5564 10.5547 8.41871 10.5914C8.4554 10.5473 8.49252 10.5039 8.52878 10.4598C8.63409 10.4184 8.74071 10.3805 8.84948 10.3496C9.02904 10.2977 9.2142 10.2676 9.4011 10.2535C9.58843 10.2391 9.77748 10.2434 9.96654 10.2582C10.1556 10.2727 10.3446 10.2969 10.5337 10.3262C10.6304 10.3414 10.7271 10.3578 10.8238 10.3754C11.2187 10.4461 11.6132 10.5328 12.0103 10.6242C12.1299 10.6516 12.2494 10.6793 12.3699 10.7074C12.517 10.7418 12.6647 10.7762 12.8127 10.8105C13.0056 10.8555 13.1947 10.9035 13.3915 10.9488C13.5024 10.9734 13.6147 10.9953 13.7278 11.0145C13.8154 11.0293 13.9039 11.0426 13.9928 11.0539C14.4007 11.1055 14.8245 11.1156 15.2475 11.0801C15.3114 11.0746 15.3753 11.0684 15.4396 11.0609C15.4551 11.0594 15.4711 11.057 15.4866 11.0555C15.541 11.0488 15.595 11.0418 15.6485 11.034C15.6584 11.0328 15.6679 11.0312 15.6774 11.0301C15.955 10.9895 16.2299 10.9332 16.4984 10.8645C16.5532 10.8508 16.6072 10.8355 16.662 10.8211H16.6646C16.69 10.8145 16.7151 10.807 16.7405 10.8004C16.7656 10.7934 16.7906 10.7867 16.8156 10.7801C16.8316 10.7754 16.8476 10.7703 16.864 10.766C16.9205 10.75 16.9771 10.7336 17.0336 10.7172C17.0668 10.7074 17.1009 10.6973 17.1342 10.6875L17.1372 10.6863L17.1368 10.6867L17.1428 10.6848C17.2093 10.6648 17.2753 10.6445 17.3414 10.6242C17.3668 10.616 17.3923 10.6082 17.4182 10.6004C17.4752 10.5824 17.5326 10.5641 17.5895 10.5461C17.6245 10.5348 17.6595 10.5238 17.694 10.5129C17.6832 10.4984 17.6729 10.4844 17.6625 10.4699C17.5326 10.4871 17.4052 10.5055 17.2783 10.5234C16.9758 10.5668 16.6805 10.6109 16.3913 10.6457C16.2895 10.6586 16.188 10.6695 16.087 10.6793H16.0866C16.0771 10.6805 16.0676 10.6813 16.0581 10.682C15.9049 10.6965 15.7534 10.7078 15.6045 10.7145C15.4694 10.7207 15.336 10.7234 15.2044 10.7215C15.14 10.7207 15.0762 10.7188 15.0127 10.7164C14.998 10.7156 14.9829 10.7148 14.9683 10.7141C14.8409 10.7078 14.7153 10.6973 14.5906 10.6832C14.5776 10.682 14.5647 10.6805 14.5522 10.6789C14.4896 10.6711 14.427 10.6633 14.3648 10.6539H14.3653C14.2764 10.6406 14.1879 10.6254 14.1003 10.609C14.0558 10.5996 14.0113 10.5902 13.9669 10.5813C13.9224 10.5711 13.8784 10.5605 13.8344 10.5504C13.7908 10.5391 13.7463 10.5289 13.7023 10.5184C13.6583 10.5066 13.6147 10.4949 13.5706 10.4832C13.5271 10.4707 13.4835 10.4582 13.4403 10.4457C13.3924 10.4309 13.3449 10.4164 13.2974 10.4016C13.2012 10.3742 13.1053 10.3469 13.0095 10.3195C12.2887 10.1184 11.5592 9.95547 10.7991 9.87891C10.7486 9.87383 10.6977 9.86914 10.6468 9.86484C10.4422 9.85078 10.2354 9.84141 10.0248 9.84922C9.97258 9.85 9.91906 9.85352 9.8664 9.85625C9.81331 9.86055 9.75978 9.86602 9.70713 9.87148C9.67087 9.87578 9.63461 9.88047 9.59835 9.88594C9.52843 9.89609 9.45851 9.90781 9.38901 9.92461C9.33636 9.93555 9.2837 9.94961 9.23233 9.96367C9.18097 9.98008 9.1296 9.9957 9.07997 10.0145C8.98328 10.048 8.89135 10.0914 8.80329 10.1371C8.87063 10.0539 8.93839 9.97148 9.00659 9.88945C9.07781 9.80469 9.14989 9.72031 9.22241 9.63711C9.29233 9.55625 9.35664 9.47266 9.42484 9.39141C9.44297 9.39023 9.46153 9.38945 9.48009 9.38906C9.65576 9.38828 9.82928 9.41875 10.0024 9.45586C10.0546 9.46758 10.1072 9.48008 10.1599 9.49297C10.1754 9.49688 10.1914 9.50117 10.207 9.50508C10.2523 9.51641 10.2976 9.52813 10.3429 9.53984C10.402 9.55547 10.4612 9.5707 10.5207 9.58633C10.6943 9.63164 10.8699 9.67539 11.0478 9.71523C11.2256 9.75469 11.406 9.78984 11.5882 9.8207C11.7712 9.85039 11.9559 9.87578 12.1424 9.89727C12.1963 9.90313 12.2507 9.90781 12.3051 9.91289L12.3025 9.91328C12.3241 9.91563 12.3457 9.9168 12.3673 9.91875C12.407 9.92227 12.4471 9.92539 12.4868 9.92852C12.5365 9.93242 12.5865 9.93555 12.6362 9.93906C12.6746 9.94141 12.713 9.94375 12.7514 9.94609C12.8088 9.94922 12.8662 9.95195 12.9236 9.9543C12.9543 9.95586 12.9845 9.95742 13.0151 9.95859C13.1036 9.96211 13.1925 9.96523 13.2819 9.96758C13.5037 9.97344 13.7278 9.97578 13.9539 9.97266C14.1188 9.97031 14.285 9.96445 14.452 9.9543C14.6489 9.94219 14.847 9.92305 15.0438 9.89648C15.2406 9.86992 15.4366 9.83555 15.6291 9.79258C15.693 9.77813 15.7564 9.76289 15.8199 9.74727C15.8315 9.74414 15.8427 9.74141 15.8544 9.73828C16.1596 9.66016 16.4544 9.56289 16.7336 9.45234C17.0828 9.31563 17.4096 9.16016 17.7234 9.00195C17.7087 8.99062 17.694 8.9793 17.6793 8.96797C16.9395 9.19141 16.2178 9.40781 15.4961 9.50117C15.1824 9.54336 14.869 9.56289 14.5539 9.5668C14.506 9.56758 14.4581 9.56758 14.4102 9.56758C14.3912 9.56758 14.3717 9.56719 14.3528 9.56719C14.3234 9.5668 14.2945 9.5668 14.2651 9.56641C14.2436 9.56602 14.2224 9.56563 14.2008 9.56523C14.1732 9.56445 14.1451 9.56406 14.1171 9.56328C14.0972 9.5625 14.0769 9.56211 14.0571 9.56133C14.0264 9.56055 13.9958 9.55938 13.9656 9.5582C13.9483 9.55742 13.9311 9.55703 13.9138 9.55625C13.8788 9.55469 13.8434 9.55312 13.8085 9.55156C13.7955 9.55078 13.7826 9.55039 13.7696 9.54961C13.7286 9.54766 13.6876 9.54531 13.6466 9.54297C13.6384 9.54258 13.6306 9.54219 13.6224 9.5418C13.5771 9.53906 13.5318 9.53633 13.486 9.53359C13.4809 9.5332 13.4757 9.53281 13.4705 9.53242C13.436 9.53008 13.4019 9.52813 13.3673 9.52578C13.3505 9.52461 13.3337 9.52344 13.3173 9.52227C13.1891 9.51133 13.0622 9.5 12.9361 9.48828C12.8412 9.47969 12.7467 9.4707 12.6526 9.46172C12.5144 9.44883 12.3772 9.43516 12.2408 9.42148C11.8894 9.38203 11.5441 9.34141 11.1962 9.29102C11.0188 9.26523 10.8423 9.23984 10.6662 9.21484C10.5738 9.20312 10.4819 9.19102 10.39 9.17969C10.2963 9.16992 10.2005 9.15898 10.1016 9.15313C10.0546 9.15039 10.0058 9.14805 9.95704 9.14687C9.90481 9.14531 9.85129 9.14531 9.7982 9.14766C9.74554 9.15039 9.69418 9.15313 9.64109 9.15898C9.63289 9.16016 9.62382 9.16172 9.61519 9.16289C9.74943 9.00234 9.8828 8.84219 10.0153 8.6832C10.0675 8.69922 10.1198 8.71445 10.1724 8.7293Z" fill="#449D2E"/>
</g>
</svg>
