<svg width="20" height="20" viewBox="0 0 20 20" fill="none" xmlns="http://www.w3.org/2000/svg">
<circle cx="10" cy="10" r="10" fill="#BBC893"/>
<path d="M7.26844 7.95306C7.13709 7.88136 7.00114 7.83194 6.86645 7.8048C6.7991 7.79224 6.73175 7.78414 6.66775 7.7809C6.60208 7.77968 6.53975 7.78252 6.4791 7.79224C6.34943 7.81128 6.23105 7.85746 6.13274 7.9243C6.20804 7.78252 6.28208 7.6456 6.35905 7.5107C6.44271 7.48964 6.51842 7.45804 6.58242 7.41834C6.67277 7.36406 6.74305 7.29398 6.79408 7.21296C6.84511 7.13153 6.87607 7.03796 6.88276 6.93587C6.89113 6.8342 6.87607 6.72442 6.83508 6.60815C6.71042 6.61585 6.59873 6.64947 6.50378 6.70214C6.41008 6.75439 6.33437 6.82771 6.28041 6.91359C6.2277 6.99947 6.19842 7.09832 6.19173 7.20324C6.18838 7.2798 6.20009 7.3592 6.22603 7.44062C6.14906 7.57754 6.07209 7.71568 5.99638 7.85908C5.99638 7.7412 5.96835 7.61886 5.91439 7.49936C5.88971 7.44386 5.85834 7.38796 5.82069 7.3353C5.78472 7.28142 5.74372 7.23038 5.69771 7.18096C5.60401 7.08252 5.49065 6.9934 5.35972 6.9217C5.33002 6.97395 5.30534 7.02986 5.2907 7.08697C5.27564 7.1445 5.26769 7.20161 5.26769 7.26076C5.26769 7.3195 5.27271 7.37824 5.28568 7.43576C5.29865 7.4945 5.31831 7.55202 5.34466 7.60752C5.39737 7.72054 5.47266 7.82546 5.57138 7.91944C5.65337 7.99762 5.74874 8.0677 5.85708 8.12644C5.81107 8.2188 5.76338 8.31278 5.71737 8.4096C5.62534 8.6008 5.53499 8.79646 5.44798 8.99374C5.44171 8.85399 5.40071 8.71058 5.32667 8.57528C5.25933 8.45295 5.16897 8.33668 5.05603 8.23298C4.94267 8.12968 4.80798 8.03732 4.65195 7.96724C4.62267 8.02922 4.60134 8.0916 4.58963 8.15682C4.57833 8.22204 4.57498 8.28726 4.57833 8.35248C4.58335 8.4177 4.59464 8.48292 4.61431 8.54652C4.63397 8.61053 4.66199 8.67413 4.69462 8.73611C4.81969 8.96215 5.0393 9.15943 5.31998 9.28663C5.30032 9.33281 5.28066 9.37737 5.26267 9.42355C5.1627 9.66539 5.06398 9.91087 4.9707 10.1604C4.96903 10.1365 4.96568 10.113 4.96233 10.0907C4.941 9.95219 4.88829 9.81365 4.80631 9.68159C4.64568 9.41869 4.37127 9.18333 4.01864 9.04641C3.90361 9.32511 3.94962 9.63217 4.11527 9.89629C4.19893 10.0284 4.31062 10.1495 4.44698 10.2528C4.56495 10.3419 4.70299 10.4185 4.85399 10.4772C4.749 10.7652 4.65028 11.0565 4.55532 11.3477C4.53566 11.1634 4.4633 10.9787 4.34659 10.8086C4.24996 10.6684 4.12364 10.5363 3.97096 10.4233C3.81995 10.3103 3.64259 10.2147 3.44389 10.1495C3.41629 10.2273 3.39955 10.3071 3.39328 10.3865C3.38659 10.4663 3.39161 10.5473 3.40457 10.6255C3.4326 10.7847 3.49827 10.939 3.59657 11.0788C3.7823 11.3449 4.0793 11.5628 4.44866 11.684C4.35998 11.972 4.27464 12.26 4.19558 12.5496C4.16798 12.3426 4.07762 12.1405 3.93958 11.9542C3.71495 11.6568 3.36191 11.402 2.92227 11.2748C2.81393 11.6216 2.90554 11.9878 3.13393 12.2871C3.35061 12.5703 3.69027 12.7947 4.1023 12.9094C4.03997 13.1545 3.98058 13.3979 3.92494 13.6414C3.9149 13.6843 3.90528 13.7289 3.89524 13.7718C3.85759 13.5429 3.74925 13.3218 3.58361 13.1196C3.32593 12.8057 2.92854 12.5464 2.4475 12.4269C2.34752 12.8105 2.46255 13.2071 2.72692 13.5223C2.85785 13.6799 3.02894 13.818 3.22428 13.9278C3.40123 14.0266 3.59992 14.1016 3.8166 14.1494C3.75762 14.4435 3.70491 14.7286 3.66225 15.0053C3.60829 14.7558 3.47694 14.5168 3.28494 14.3037C3.13853 14.1413 2.95322 13.9934 2.74156 13.8755C2.5299 13.756 2.28854 13.6637 2.02585 13.613C1.93717 14.038 2.08148 14.4661 2.38517 14.7939C2.53785 14.9595 2.72818 15.0977 2.9482 15.2046C3.1469 15.2998 3.37027 15.3683 3.60661 15.4051C3.58863 15.5465 3.57022 15.6851 3.55725 15.822L3.70826 15.8362C3.7229 15.6996 3.73963 15.5627 3.75762 15.4226C3.99731 15.4448 4.2303 15.4351 4.44698 15.4003C4.68667 15.3606 4.90963 15.2905 5.10205 15.1965C5.48772 15.0069 5.75836 14.7222 5.83408 14.3624C5.57138 14.3098 5.31371 14.2972 5.07067 14.3227C4.82764 14.3466 4.60468 14.4086 4.40599 14.5042C4.14999 14.6266 3.94293 14.808 3.81493 15.0292C3.85759 14.7542 3.90863 14.4722 3.96761 14.1777C4.18596 14.213 4.3993 14.2162 4.60134 14.1955C4.82597 14.1716 5.0347 14.1174 5.22001 14.038C5.5877 13.8771 5.85541 13.6191 5.94242 13.2833C5.4597 13.1654 4.98869 13.1958 4.61263 13.355C4.37462 13.4554 4.1776 13.6098 4.04792 13.8022C4.05796 13.7593 4.06633 13.7163 4.07595 13.6734C4.13033 13.4315 4.18931 13.1877 4.25164 12.9442C4.67036 13.0301 5.07737 12.992 5.40406 12.8664C5.75167 12.7327 6.00809 12.5018 6.10305 12.1948C5.88302 12.1312 5.66466 12.1024 5.45635 12.1057C5.24803 12.1089 5.05101 12.1454 4.87533 12.2106C4.65697 12.2916 4.47334 12.4208 4.34366 12.5861C4.4223 12.2981 4.50596 12.0117 4.59464 11.7253C4.9707 11.8189 5.34299 11.8014 5.645 11.6998C5.80605 11.6455 5.94869 11.5677 6.06372 11.4689C6.12103 11.4194 6.17207 11.3656 6.21306 11.3048C6.25405 11.2444 6.28877 11.1808 6.31471 11.1108C6.11643 11.0439 5.91774 11.0091 5.72741 11.0042C5.53666 10.9994 5.35637 11.0249 5.19198 11.0788C4.99496 11.1428 4.82597 11.2493 4.70131 11.3895C4.79501 11.0982 4.89331 10.8098 4.99831 10.5234C5.15433 10.5696 5.30869 10.5935 5.45802 10.5983C5.63036 10.6048 5.79601 10.5841 5.94535 10.5408C6.24276 10.4549 6.47575 10.2832 6.57573 10.0348C6.2231 9.89791 5.86168 9.87563 5.56134 9.95989C5.41201 10.0012 5.27732 10.0697 5.1673 10.1604C5.14931 10.1766 5.133 10.1924 5.11669 10.2082C5.20997 9.96151 5.30701 9.71805 5.40699 9.47783C5.42539 9.43327 5.44505 9.38709 5.46472 9.34253C5.75669 9.44421 6.05369 9.45717 6.30341 9.39965C6.37076 9.38385 6.43476 9.36319 6.49374 9.33767C6.55272 9.31215 6.61045 9.28217 6.65939 9.24693C6.71042 9.21209 6.75476 9.17199 6.79408 9.12621C6.8334 9.08124 6.86645 9.03223 6.8928 8.97795C6.73845 8.90786 6.58075 8.8633 6.42639 8.84427C6.27204 8.82523 6.12271 8.83009 5.98676 8.86168C5.83408 8.89531 5.69771 8.96053 5.58937 9.05127C5.67638 8.85561 5.76506 8.66116 5.85708 8.47199C5.90268 8.37638 5.94869 8.2824 5.99638 8.19004C6.10974 8.23622 6.22435 8.26822 6.33771 8.28402C6.47408 8.30468 6.60543 8.30306 6.72674 8.28402C6.78739 8.2743 6.84511 8.26012 6.89908 8.24108C6.95346 8.22204 7.00407 8.19976 7.05176 8.171C7.09777 8.14386 7.14044 8.11064 7.17641 8.07378C7.20946 8.03894 7.24208 7.99924 7.26844 7.95306Z" fill="#009245"/>
<mask id="mask0_27_76" style="mask-type:luminance" maskUnits="userSpaceOnUse" x="3" y="3" width="15" height="13">
<path d="M3.38281 3H18V15.9541H3.38281V3Z" fill="white"/>
</mask>
<g mask="url(#mask0_27_76)">
<path d="M16.5999 7.32922C16.7033 7.15382 16.7919 6.97558 16.8626 6.80382C16.9496 6.59074 17.0149 6.37726 17.058 6.16539C17.181 6.17512 17.3056 6.1496 17.4269 6.086C17.5717 6.00781 17.7076 5.87413 17.813 5.68171C17.9163 5.49091 17.9883 5.24097 17.9933 4.95579C18 4.67101 17.936 4.35422 17.8013 4.0581C17.6633 4.11887 17.5583 4.23513 17.478 4.37813C17.437 4.44983 17.3993 4.53247 17.368 4.61672C17.3533 4.66007 17.3353 4.70463 17.3203 4.74919C17.3056 4.79537 17.2927 4.83993 17.2776 4.88733C17.222 5.07691 17.1743 5.28067 17.1249 5.49213C17.122 5.50509 17.1186 5.51765 17.117 5.53061C17.112 5.19479 17.0413 4.85897 16.9099 4.54705C16.9199 4.40851 16.9036 4.25862 16.8576 4.11238C16.7953 3.91024 16.6819 3.71296 16.5343 3.54566C16.3866 3.37876 16.2059 3.24022 16.0139 3.14624C15.8219 3.05226 15.6215 3.00284 15.4329 3C15.5132 3.16528 15.6132 3.3261 15.7232 3.47882C15.8332 3.63316 15.9533 3.7798 16.0779 3.9228C16.2026 4.06458 16.3322 4.2015 16.4669 4.33032C16.5652 4.42431 16.6639 4.51505 16.7673 4.60255C16.8919 4.89705 16.9576 5.21707 16.9626 5.53547C16.9593 5.52251 16.9559 5.50995 16.9526 5.49699C16.8919 5.30133 16.7819 5.14051 16.6539 5.03073C16.623 5.00359 16.5866 4.97969 16.5539 4.95741C16.5192 4.93675 16.4866 4.91771 16.4489 4.90191C16.3749 4.87153 16.3042 4.85249 16.2306 4.84439C16.0829 4.83021 15.9399 4.85735 15.8022 4.91771C15.8629 5.05139 15.9302 5.16765 16.0072 5.28391C16.0846 5.40017 16.1699 5.51927 16.2666 5.63553C16.3619 5.75179 16.4669 5.86481 16.5849 5.95718C16.6819 6.03333 16.7903 6.09734 16.9082 6.13218C16.8672 6.33432 16.8049 6.5397 16.7213 6.74508C16.6522 6.91198 16.5669 7.08252 16.4669 7.25104C16.3716 7.41024 16.2632 7.56782 16.1436 7.72054C16.1076 7.76672 16.0679 7.81291 16.0285 7.85747C16.0419 7.83356 16.0532 7.80804 16.0649 7.78414C16.1139 7.6776 16.1469 7.56944 16.1683 7.46615C16.1879 7.36082 16.1959 7.25914 16.1896 7.16354C16.1779 6.97112 16.1156 6.8022 16.0156 6.67014C15.9152 6.53808 15.7809 6.44086 15.6232 6.37726C15.5872 6.46152 15.5542 6.54618 15.5249 6.63368C15.4952 6.71956 15.4689 6.80706 15.4475 6.89618C15.4245 6.98368 15.4065 7.0728 15.3919 7.16192C15.3768 7.25104 15.3672 7.34016 15.3605 7.42928C15.3588 7.45156 15.3572 7.47384 15.3572 7.49612C15.3555 7.5184 15.3555 7.54068 15.3555 7.56134C15.3555 7.6059 15.3555 7.64884 15.3588 7.69178C15.3605 7.71406 15.3622 7.73513 15.3639 7.75741C15.3655 7.77969 15.3672 7.80035 15.3706 7.82101C15.3752 7.86395 15.3818 7.90527 15.3919 7.94659C15.4099 8.02922 15.4362 8.10903 15.4722 8.18235C15.4969 8.23299 15.5262 8.28241 15.5626 8.32859C15.4868 8.39543 15.4082 8.46227 15.3262 8.52587C15.0535 8.74421 14.7368 8.95567 14.3624 9.17361C14.2165 9.25828 14.0688 9.33929 13.9245 9.41424C13.9605 9.38385 13.9948 9.35509 14.0278 9.3235C14.2232 9.14039 14.3725 8.94149 14.4662 8.73935C14.4904 8.68993 14.5089 8.63889 14.5252 8.58785C14.5415 8.53721 14.5544 8.48779 14.5645 8.43837C14.5825 8.33993 14.5875 8.24271 14.5791 8.15035C14.5712 8.05799 14.5482 7.96887 14.5135 7.88461C14.4792 7.80035 14.4331 7.72216 14.3742 7.64884C14.1805 7.79225 14.0014 7.95307 13.8425 8.12807C13.6831 8.30307 13.5401 8.48941 13.4351 8.68183C13.2368 9.03993 13.1594 9.41424 13.2874 9.73223C13.0398 9.85012 12.7867 9.968 12.5424 10.0794C12.447 10.1223 12.3521 10.1669 12.2584 10.2098L11.513 10.5538C11.8121 10.3358 12.053 10.0875 12.2224 9.83108C12.3634 9.61962 12.4537 9.40127 12.4847 9.19144C12.5161 8.98119 12.4897 8.77905 12.3977 8.59595C12.1057 8.73287 11.83 8.90463 11.6 9.09259C11.3703 9.28056 11.18 9.48715 11.0403 9.69902C10.778 10.0968 10.6877 10.5141 10.8269 10.8673L9.08388 11.671C9.96859 11.0358 10.4053 10.1604 10.087 9.50943C8.79651 10.1049 8.04314 11.2047 8.36482 12.002L7.97412 12.1867C7.59347 12.3617 7.25046 12.5225 6.90745 12.6943C6.82044 12.7376 6.73678 12.7806 6.65479 12.8235C6.73344 12.7611 6.8104 12.6975 6.88444 12.6339C7.15216 12.4002 7.37846 12.1535 7.54578 11.9003C7.71352 11.6471 7.82144 11.3895 7.86118 11.1411C7.9005 10.8912 7.87247 10.651 7.76581 10.4326C7.5851 10.5157 7.41611 10.6076 7.25548 10.7081C7.09443 10.8069 6.94175 10.9167 6.79911 11.033C6.51341 11.2651 6.27205 11.5264 6.10138 11.7966C5.92904 12.0656 5.82572 12.3427 5.80439 12.5991C5.79267 12.7279 5.80271 12.8506 5.83074 12.9681C5.85374 13.0605 5.88805 13.1496 5.93573 13.2322C5.91607 13.2452 5.89474 13.2578 5.87508 13.2707C5.70441 13.3773 5.54002 13.4887 5.38566 13.6017C5.23633 13.7098 5.08532 13.831 4.92302 13.9711C4.77703 14.0967 4.63397 14.2352 4.49802 14.3815C4.49301 14.3863 4.48966 14.3912 4.48464 14.3961C4.55031 14.2956 4.61431 14.1955 4.67664 14.0951C4.70299 14.0538 4.72767 14.0141 4.75235 13.9727C4.77703 13.9326 4.80129 13.8913 4.82597 13.8516C4.84898 13.8119 4.87366 13.7706 4.89667 13.7305C4.91967 13.6908 4.94268 13.6495 4.96401 13.6098C5.01003 13.53 5.05102 13.449 5.09202 13.3724C5.11168 13.3327 5.13134 13.2946 5.151 13.2545C5.17066 13.2164 5.18864 13.1767 5.20705 13.1387C5.34802 12.8284 5.44674 12.529 5.47434 12.2454C5.48773 12.1057 5.48438 11.9688 5.46138 11.8399C5.4367 11.7107 5.39403 11.59 5.32501 11.477C5.10833 11.6009 4.90169 11.7411 4.71136 11.8954C4.52061 12.0514 4.3466 12.2187 4.19266 12.3986C4.03831 12.5784 3.90864 12.7627 3.80364 12.9507C3.77729 12.9969 3.75261 13.0447 3.7296 13.0925C3.7066 13.1403 3.68359 13.1848 3.66393 13.2322C3.62461 13.3278 3.59031 13.417 3.56395 13.5109C3.45561 13.8788 3.45227 14.2194 3.5376 14.4929C3.61624 14.7428 3.76265 14.934 3.958 15.0709C3.95632 15.0738 3.95298 15.077 3.9513 15.0803L3.87392 15.203L3.8003 15.3318C3.70492 15.5052 3.62294 15.6851 3.55726 15.8666L3.6999 15.916C3.7639 15.7426 3.84464 15.5688 3.93499 15.4019L4.00526 15.2775L4.08265 15.1552C4.08432 15.1536 4.086 15.1503 4.08767 15.1487C4.29933 15.2601 4.53567 15.3128 4.77536 15.3351C5.04266 15.359 5.31539 15.346 5.5877 15.3112C5.65505 15.3014 5.72574 15.2921 5.79267 15.2792C5.82572 15.2731 5.86169 15.2666 5.89641 15.2601C5.93071 15.2536 5.96376 15.2459 5.99806 15.2378C6.1361 15.2063 6.27372 15.1678 6.41176 15.1216C6.54938 15.077 6.69244 15.0215 6.83843 14.9563C6.98442 14.8911 7.13375 14.8161 7.28811 14.7286C7.22076 14.6172 7.13877 14.5152 7.04382 14.4277C6.94844 14.3402 6.8401 14.2652 6.72047 14.2049C6.48078 14.0841 6.19173 14.0201 5.87675 14.0315C5.83701 14.0331 5.79769 14.0347 5.7567 14.0396C5.71738 14.044 5.67638 14.0489 5.63706 14.0538C5.55508 14.0647 5.47434 14.0841 5.39068 14.1064C5.34969 14.1174 5.3087 14.1299 5.26603 14.1445C5.22504 14.1587 5.18237 14.1733 5.14137 14.1907C5.10038 14.2081 5.05771 14.2255 5.0163 14.2446C4.97531 14.2652 4.93431 14.2863 4.89332 14.3086C4.79502 14.3624 4.69797 14.4228 4.60469 14.4929C4.60762 14.4896 4.60929 14.4868 4.61264 14.4852C4.74566 14.3434 4.88537 14.2081 5.02634 14.0854C5.18571 13.9472 5.33338 13.8293 5.47769 13.7244C5.63037 13.613 5.79267 13.5028 5.95874 13.3979C5.9784 13.3854 5.99806 13.374 6.01939 13.3615C6.0767 13.4376 6.14405 13.5061 6.21976 13.5685C6.31304 13.6446 6.41845 13.7115 6.53307 13.7657C6.76146 13.8755 7.02374 13.944 7.31279 13.974C7.60016 14.0027 7.91514 13.9918 8.25188 13.931C8.42087 13.901 8.59488 13.8581 8.7735 13.8006C8.95253 13.7435 9.13491 13.6734 9.3152 13.5907C9.20853 13.3724 9.03452 13.199 8.80989 13.0718C8.58484 12.9442 8.31086 12.8616 8.0055 12.8284C7.70181 12.7947 7.36716 12.8089 7.01914 12.8839C6.92376 12.9045 6.82839 12.9284 6.73344 12.9588C6.81375 12.9159 6.89574 12.8741 6.98107 12.8312C7.32115 12.6611 7.66249 12.5019 8.04314 12.3269L8.43049 12.1486C8.8672 12.8936 10.2212 13.0224 11.5117 12.4285C11.193 11.7775 10.215 11.5531 9.14955 11.8177L10.8926 11.0135C11.088 11.3417 11.477 11.5373 11.9631 11.5916C12.2207 11.62 12.506 11.6074 12.8018 11.5547C13.0988 11.5009 13.4024 11.4069 13.7157 11.2602C13.6258 11.0775 13.4748 10.9325 13.2841 10.826C13.0937 10.7194 12.8624 10.651 12.6047 10.6222C12.2927 10.587 11.9417 10.6125 11.5786 10.6984L12.3241 10.3549C12.419 10.3103 12.5127 10.2674 12.6081 10.2244C12.854 10.1114 13.1071 9.99514 13.3564 9.87564C13.5388 10.1669 13.8948 10.3403 14.3545 10.3581C14.6005 10.3658 14.8765 10.3326 15.1685 10.2386C15.4592 10.1446 15.7642 9.99514 16.0549 9.77841C15.9976 9.7055 15.9252 9.64473 15.8449 9.59572C15.7629 9.5463 15.6726 9.50943 15.5739 9.47946C15.4755 9.44907 15.3689 9.43166 15.2572 9.42031C15.2016 9.41424 15.1438 9.411 15.0849 9.40938C15.0259 9.40775 14.9665 9.40938 14.9058 9.40938C14.6628 9.41869 14.4034 9.45394 14.1378 9.52078C14.0935 9.53171 14.0491 9.54468 14.0031 9.55723C14.1491 9.48108 14.2968 9.39965 14.4449 9.31377C14.8272 9.09259 15.1472 8.87789 15.4262 8.65509C15.5099 8.58947 15.5918 8.51979 15.6692 8.45133C15.7136 8.48941 15.7613 8.52263 15.8135 8.55139C15.8893 8.59109 15.9712 8.61823 16.0616 8.63281C16.1076 8.64051 16.1532 8.64537 16.2026 8.64537C16.2272 8.64537 16.2519 8.64699 16.2766 8.64537C16.3013 8.64375 16.3272 8.64213 16.3536 8.63889C16.4063 8.63281 16.4586 8.62309 16.5146 8.60891C16.5422 8.60243 16.5686 8.59433 16.5966 8.58663C16.6246 8.57691 16.6522 8.56719 16.6803 8.55787C16.7936 8.51655 16.9066 8.45741 17.0216 8.38611C17.135 8.31279 17.2483 8.22529 17.3567 8.11997C17.4633 8.01667 17.5666 7.89716 17.6603 7.76348C17.7536 7.6298 17.8373 7.48194 17.9063 7.32112C17.7486 7.25752 17.5717 7.26076 17.3876 7.3037C17.204 7.34664 17.012 7.4309 16.8166 7.53582C16.7196 7.5901 16.6196 7.64722 16.5209 7.71123C16.4209 7.77483 16.3226 7.84329 16.2222 7.91499C16.1975 7.93241 16.1745 7.94983 16.1503 7.96725C16.1913 7.91944 16.2323 7.87164 16.2699 7.82263C16.3895 7.65694 16.5012 7.4945 16.5999 7.32922Z" fill="#26B239"/>
</g>
<mask id="mask1_27_76" style="mask-type:luminance" maskUnits="userSpaceOnUse" x="3" y="11" width="15" height="6">
<path d="M3.59692 11.4948H17.8393V17H3.59692V11.4948Z" fill="white"/>
</mask>
<g mask="url(#mask1_27_76)">
<path d="M17.0743 12.723C17.1446 12.6931 17.2136 12.6546 17.2776 12.61C17.309 12.5877 17.3416 12.5638 17.3713 12.5383C17.401 12.5132 17.4286 12.4861 17.4566 12.4573C17.565 12.3475 17.657 12.2074 17.7076 12.0546C17.7586 11.9019 17.7653 11.7362 17.7126 11.5961C17.5779 11.6662 17.4566 11.7297 17.3416 11.8015C17.227 11.8732 17.1203 11.9574 17.0199 12.0595C16.8509 12.2345 16.7196 12.4492 16.6522 12.6931C16.4703 12.8409 16.2766 12.9811 16.0746 13.1131C16.0812 13.105 16.0863 13.0986 16.0925 13.0909C16.1386 13.0273 16.1779 12.962 16.2076 12.8936C16.2373 12.8251 16.2599 12.755 16.2732 12.685C16.2862 12.6149 16.2912 12.5432 16.2879 12.4747C16.2845 12.4046 16.2716 12.3362 16.2536 12.2693C16.2143 12.1357 16.1436 12.0117 16.0449 11.9003C15.9336 11.991 15.8466 12.0992 15.7742 12.2155C15.7399 12.2742 15.7069 12.335 15.6822 12.4002C15.6575 12.4654 15.6345 12.529 15.6199 12.5975C15.6052 12.6659 15.5935 12.7328 15.5889 12.8028C15.5839 12.8713 15.5856 12.9426 15.5935 13.0111C15.6069 13.1257 15.6378 13.2403 15.6922 13.3485C15.5542 13.4267 15.4132 13.5016 15.2685 13.5713C14.9849 13.7098 14.6829 13.8374 14.3691 13.9517C14.5285 13.8293 14.6515 13.6782 14.7285 13.5126C14.7632 13.4376 14.7895 13.3631 14.8058 13.2849C14.8222 13.2071 14.8288 13.1289 14.8272 13.0512C14.8222 12.8952 14.7812 12.7376 14.7055 12.5894C14.5544 12.6627 14.4218 12.7583 14.3068 12.8697C14.1934 12.9827 14.0968 13.1115 14.0245 13.2533C13.9521 13.3931 13.9031 13.5474 13.8835 13.7034C13.8668 13.8374 13.8734 13.974 13.9077 14.1076C13.8358 14.1299 13.7634 14.1522 13.6915 14.1733C13.3171 14.2814 12.9231 14.3754 12.5144 14.4532C12.7244 14.345 12.9001 14.1955 13.023 14.0201C13.0757 13.9456 13.1201 13.8674 13.1544 13.7848C13.1891 13.7021 13.2138 13.6175 13.2284 13.5316C13.2564 13.3582 13.2447 13.1784 13.1941 13.0017C12.8214 13.105 12.5077 13.3246 12.291 13.6114C12.0894 13.8788 11.9727 14.2049 12.0074 14.5423C11.9216 14.5565 11.8351 14.5678 11.751 14.5804C11.7054 14.5869 11.661 14.5933 11.615 14.5998C11.5247 14.6124 11.4326 14.6233 11.3423 14.6347C11.2917 14.6411 11.2423 14.6472 11.193 14.6521L10.7696 14.6966C10.7186 14.7015 10.6697 14.7064 10.6186 14.7112C10.6136 14.7112 10.6086 14.7129 10.6023 14.7129C10.8566 14.6156 11.0767 14.4674 11.244 14.2863C11.382 14.1348 11.4837 13.963 11.5427 13.7767C11.6016 13.5907 11.6167 13.3931 11.5853 13.1925C11.1453 13.2561 10.755 13.4615 10.4743 13.7544C10.3346 13.9027 10.2229 14.0696 10.151 14.251C10.087 14.4119 10.0539 14.582 10.0589 14.7586C9.64524 14.7906 9.22652 14.8178 8.82118 14.8433C8.77057 14.8465 8.72121 14.8494 8.67018 14.8526C8.96257 14.7558 9.22024 14.601 9.42187 14.4054C9.5026 14.3276 9.57455 14.2417 9.63687 14.1522C9.6992 14.0619 9.75023 13.9663 9.78955 13.8674C9.87029 13.6685 9.90459 13.4538 9.8866 13.2322C9.37753 13.2707 8.91321 13.4789 8.58317 13.7929C8.27321 14.0886 8.08748 14.4755 8.09585 14.8911C7.7085 14.9178 7.3178 14.9466 6.93213 14.983L6.90577 14.9863C6.84679 14.9928 6.78739 14.9976 6.72841 15.0041C6.79911 14.9786 6.86645 14.9515 6.9338 14.9194C7.05343 14.8623 7.16847 14.8004 7.27346 14.727C7.38013 14.6537 7.47676 14.5759 7.56544 14.4896C7.7428 14.3179 7.88418 14.119 7.97579 13.9043C8.06782 13.6876 8.11049 13.4554 8.09417 13.2148C7.50813 13.2533 6.97479 13.4919 6.61505 13.8484C6.43476 14.025 6.2984 14.232 6.21808 14.4499C6.14404 14.6488 6.11476 14.8591 6.13442 15.0722L6.08339 15.0786C5.77301 15.1183 5.494 15.1617 5.23298 15.2123C5.07904 15.2427 4.941 15.2731 4.813 15.3063C4.80966 15.3079 4.80464 15.3079 4.80129 15.3096C4.88035 15.2682 4.95732 15.2253 5.03136 15.1791C5.27732 15.0276 5.49902 14.851 5.6814 14.6505C5.86336 14.4499 6.00475 14.2304 6.09636 13.9902C6.18671 13.7512 6.2231 13.4984 6.19173 13.2403C6.15074 13.2452 6.10807 13.2501 6.06708 13.2561C6.02608 13.2626 5.98509 13.2707 5.94368 13.28C5.86169 13.2979 5.78305 13.3169 5.70608 13.3392C5.55005 13.3854 5.39737 13.4457 5.25139 13.519C4.96234 13.6637 4.70299 13.8581 4.51099 14.0825C4.31731 14.3069 4.19099 14.5581 4.14497 14.8129C4.13326 14.8765 4.12699 14.9401 4.12364 15.0041C4.12197 15.0677 4.12364 15.1313 4.13159 15.1949C4.1433 15.2966 4.16631 15.3971 4.20061 15.4959C4.13661 15.5198 4.06759 15.5465 3.99229 15.5785C3.87099 15.6312 3.74257 15.6916 3.60327 15.7677L3.67731 15.8969C3.81159 15.8236 3.93499 15.7633 4.05295 15.7138C4.12531 15.6835 4.19266 15.6563 4.25499 15.6328C4.29765 15.728 4.34827 15.8188 4.40599 15.9046C4.4403 15.9573 4.47794 16.0083 4.51768 16.0578C4.557 16.1068 4.598 16.1546 4.63899 16.1991C4.80631 16.3806 4.99497 16.5366 5.19701 16.6626C5.39905 16.7881 5.61405 16.8837 5.85541 16.9409C5.97505 16.9696 6.10305 16.987 6.23607 16.9951C6.30342 17 6.37244 17 6.44104 16.9984C6.47576 16.9968 6.51006 16.9951 6.54478 16.9919C6.57908 16.9887 6.61505 16.987 6.64977 16.9822C6.6184 16.7245 6.52972 16.4843 6.39377 16.2741C6.25908 16.0655 6.07335 15.8807 5.85374 15.7426C5.63371 15.6024 5.37771 15.5052 5.0987 15.4688C5.01504 15.4574 4.92929 15.453 4.8427 15.453C4.84563 15.4513 4.84898 15.4513 4.85232 15.4497C4.97865 15.4177 5.11335 15.3873 5.26435 15.3574C5.52203 15.3063 5.79602 15.2634 6.10305 15.2253L6.15408 15.2188C6.1934 15.4307 6.27706 15.6247 6.39042 15.7997C6.51842 15.9954 6.68575 16.1659 6.88109 16.3045C7.27179 16.5811 7.77752 16.7355 8.34013 16.699C8.32382 16.4588 8.2502 16.2328 8.13182 16.0322C8.01386 15.8317 7.84779 15.6535 7.6491 15.5101C7.54912 15.4384 7.44246 15.3748 7.32575 15.3221C7.21113 15.2699 7.08773 15.2253 6.95973 15.1933C6.88946 15.1759 6.81877 15.1617 6.74473 15.1504C6.80413 15.1439 6.86311 15.1394 6.92041 15.1329L6.94677 15.1297C7.33077 15.0932 7.71979 15.0645 8.10547 15.0373C8.15817 15.4497 8.39284 15.8094 8.73585 16.0622C9.10019 16.3312 9.59588 16.4811 10.1443 16.4398C10.1263 16.2182 10.0539 16.0116 9.94056 15.8269C9.88325 15.7345 9.81591 15.647 9.74061 15.5672C9.6649 15.4862 9.57957 15.4129 9.48754 15.346C9.25789 15.1807 8.98223 15.0596 8.67854 15.0009C8.72916 14.9976 8.78019 14.9944 8.82955 14.9911C9.23656 14.9656 9.65528 14.9385 10.0702 14.9069C10.0949 15.0819 10.1556 15.246 10.2493 15.3938C10.3543 15.5611 10.4986 15.7106 10.6759 15.8269C11.0273 16.0638 11.5117 16.1785 12.0333 16.1052C12.0024 15.9046 11.9204 15.7203 11.8037 15.5595C11.6853 15.3987 11.533 15.2569 11.354 15.1439C11.139 15.0069 10.8876 14.9101 10.617 14.8623C10.6237 14.8623 10.6283 14.8607 10.6349 14.8607C10.686 14.8558 10.7349 14.851 10.786 14.8465L11.2126 14.802C11.2637 14.7955 11.313 14.789 11.3636 14.7841C11.454 14.7732 11.5477 14.7619 11.6397 14.7493C11.6853 14.7428 11.7296 14.7363 11.7757 14.7303C11.861 14.7189 11.948 14.7064 12.035 14.6918C12.1124 15.0232 12.3387 15.2982 12.6654 15.4671C12.8411 15.5563 13.0431 15.6166 13.2627 15.6357C13.4828 15.6551 13.7174 15.6373 13.9554 15.5704C13.9031 15.3938 13.8061 15.2379 13.6798 15.1058C13.6158 15.0406 13.5451 14.9802 13.4681 14.9259C13.3907 14.8716 13.3087 14.8243 13.2217 14.7825C13.0184 14.6857 12.79 14.6233 12.5504 14.601C12.9641 14.5216 13.3631 14.426 13.7438 14.3163C13.8178 14.2956 13.8898 14.2733 13.9638 14.251C14.0178 14.3799 14.0951 14.4945 14.1968 14.5901C14.3152 14.7031 14.4645 14.789 14.6352 14.8449C14.8058 14.8988 14.9978 14.9227 15.1982 14.9053C15.3998 14.8895 15.6102 14.8336 15.8119 14.7363C15.7366 14.5885 15.6232 14.4674 15.4885 14.3705C15.4212 14.3227 15.3475 14.2798 15.2702 14.2446C15.1932 14.2097 15.1112 14.1793 15.0275 14.1554C14.8385 14.1032 14.6368 14.0809 14.4298 14.0918C14.7498 13.9756 15.0568 13.8468 15.3459 13.705C15.4935 13.6337 15.6362 13.5571 15.7776 13.4777C15.8483 13.5762 15.9365 13.6576 16.0403 13.7196C16.1026 13.7576 16.1716 13.7864 16.2436 13.8103C16.3159 13.8326 16.3929 13.8484 16.4736 13.8549C16.5539 13.8609 16.6376 13.8609 16.7213 13.85C16.8066 13.8387 16.8936 13.8212 16.9789 13.7913C17.1529 13.7354 17.3236 13.6398 17.4796 13.5126C17.3813 13.4012 17.2563 13.3218 17.1186 13.2675C17.0496 13.2403 16.9773 13.2213 16.9036 13.2071C16.8279 13.1925 16.7526 13.1832 16.6752 13.1816C16.5983 13.1784 16.518 13.1816 16.4389 13.1893C16.3603 13.1974 16.2799 13.2116 16.2009 13.231C16.1913 13.2339 16.1812 13.2355 16.1699 13.2387C16.3766 13.1034 16.5753 12.9604 16.7622 12.8073C16.8626 12.7964 16.971 12.7676 17.0743 12.723Z" fill="#55C55A"/>
</g>
</svg>
