<svg width="21" height="20" viewBox="0 0 21 20" fill="none" xmlns="http://www.w3.org/2000/svg">
<circle cx="10" cy="10" r="10" fill="#BBC893"/>
<g clip-path="url(#clip0_22_2631)">
<mask id="mask0_22_2631" style="mask-type:luminance" maskUnits="userSpaceOnUse" x="0" y="2" width="21" height="16">
<path d="M0.601562 3.66122L19.4641 2.4019L20.3945 16.3378L1.53197 17.5971L0.601562 3.66122Z" fill="white"/>
</mask>
<g mask="url(#mask0_22_2631)">
<path d="M15.9647 11.096C15.7426 11.1923 15.0933 10.1794 15.1405 9.9043C15.1701 9.7346 15.329 9.73478 15.5557 9.83306C15.5557 9.83306 16.1867 10.9997 15.9647 11.096ZM10.7162 10.1294C10.3652 9.94278 10.7914 9.70388 10.7914 9.70388C11.3599 9.64516 11.6741 10.0654 11.7113 10.2315C11.7485 10.3971 11.0667 10.3165 10.7162 10.1294ZM9.95088 11.5263C9.49854 10.9886 9.79832 10.8005 9.79832 10.8005C10.4161 11.0959 10.4027 12.064 9.95088 11.5263ZM9.36532 12.1121C8.80055 11.8343 8.89809 11.3442 8.89809 11.3442C9.35031 11.1039 9.93008 12.3898 9.36532 12.1121ZM8.29171 12.3942C8.13087 12.3207 8.39344 11.9669 8.40183 12.0925C8.406 12.1549 8.45251 12.4673 8.29171 12.3942ZM6.30248 12.9894C6.11142 12.8548 6.9587 12.6932 6.9587 12.6932C7.17858 12.8678 6.49351 13.1236 6.30248 12.9894ZM5.09396 12.8177C5.54706 12.1989 6.88884 11.6468 6.88884 11.6468C7.10731 11.8004 4.64136 13.4366 5.09396 12.8177ZM19.0178 6.67396C17.6718 7.03018 15.5393 6.78 15.5393 6.78C15.5393 6.78 17.2737 5.48656 18.3939 5.6362C18.497 5.65009 18.1455 4.51746 17.9735 4.27657C17.887 4.15575 17.4371 4.71211 16.892 4.96535C16.3508 5.21713 15.7236 5.27577 15.3602 5.65664L13.8225 7.56751C13.8606 7.35452 15.0355 3.91204 14.9588 3.5386C14.8815 3.16518 12.9553 2.36891 12.902 3.12962C12.8487 3.88993 13.1553 6.14009 12.8304 5.95173C12.5054 5.76298 10.9156 3.7666 10.9156 3.7666L8.44338 4.14171C8.44338 4.14171 11.7075 6.27869 11.8363 6.64866C11.9651 7.01863 8.1223 4.7941 6.9938 5.03756C5.8658 5.28099 5.21292 6.41797 5.21292 6.41797C5.21292 6.41797 10.1928 6.96883 10.3188 7.29666C10.4449 7.62489 6.35691 7.1826 4.71576 7.54455C3.0751 7.90647 2.96892 9.42745 3.02607 9.5075C3.08325 9.58794 6.11584 8.25015 7.21183 8.30317C8.30828 8.35576 3.57509 9.93368 3.1168 10.0905C2.93831 10.1515 2.5872 10.4872 2.23671 10.9431C3.04216 10.6206 5.99522 9.46621 6.21784 9.778C6.47634 10.1393 3.10347 11.0586 2.61683 11.1749C2.31137 11.2484 2.03043 11.3862 1.86391 11.4788C1.47149 12.1048 1.1696 12.823 1.25486 13.3684C1.43679 14.5339 4.56893 10.7922 6.37041 10.5038C8.17239 10.2154 2.73854 13.7741 2.21343 14.482C1.6883 15.1896 1.98961 15.8004 1.98961 15.8004L3.94935 13.9875C3.94935 13.9875 2.30567 15.8635 2.37449 16.1109C2.44285 16.3588 3.02385 16.4881 3.02385 16.4881C3.02385 16.4881 4.76739 13.7648 5.38041 13.5977C5.99344 13.4306 3.42728 16.293 3.39199 16.5478C3.35718 16.8025 4.15899 17.1275 4.15899 17.1275C4.15899 17.1275 5.25975 14.9092 5.61949 14.8432C5.97921 14.7769 5.20339 17.184 5.20339 17.184L6.40631 17.2718L7.48831 17.1153C7.48831 17.1153 7.24769 15.0708 7.3694 14.5583C7.49108 14.0454 7.77106 15.1201 7.70653 15.713C7.642 16.306 7.69512 17.1015 7.69512 17.1015C7.69512 17.1015 8.70089 16.5719 8.69657 15.7312C8.69274 14.8904 8.0543 13.1249 8.25043 12.9436C8.44653 12.762 8.83502 15.4696 9.07306 15.9161C9.31113 16.363 10.1286 16.1399 10.1286 16.1399C10.1286 16.1399 9.73968 13.4328 10.087 13.9563C10.4342 14.4795 10.4424 16.1613 10.4424 16.1613L11.0656 15.3626L10.8837 14.1975L11.7624 16.4514L12.7677 15.9218L12.6442 15.2244L12.3853 13.7558C12.6283 14.3945 13.0126 15.6954 13.0126 15.6954L13.2906 15.4385C13.2959 15.3482 13.1043 14.8215 12.8482 14.1637C12.8376 14.0714 12.8281 13.9654 12.8199 13.8438C12.8149 13.7686 12.7992 13.6814 12.7762 13.5879C12.5444 12.7835 12.1773 11.757 11.7138 11.3107C10.8985 10.5242 11.5361 10.4672 11.788 10.6045C12.0405 10.7422 13.021 12.4426 13.1763 12.951C13.2154 13.079 13.2518 13.2179 13.2846 13.3539C13.6959 14.2078 14.1468 15.1597 14.1272 15.2424C14.0863 15.4133 15.9248 14.1129 15.9164 13.9877C15.908 13.862 14.0196 11.2966 13.8141 10.5535C13.6086 9.8105 14.8921 11.1125 15.1901 11.6812C15.4881 12.25 16.409 13.5762 16.409 13.5762C16.409 13.5762 17.2883 12.7184 17.5964 12.6559C17.6758 12.6398 17.0034 11.0083 16.5678 10.4931C16.7379 10.6235 16.9062 10.7576 17.0617 10.8834C17.7678 11.4528 18.6309 11.7878 18.6309 11.7878L19.1758 9.81699C19.1758 9.81699 17.3909 8.80084 15.956 8.34994C15.2383 7.72537 19.3559 8.095 19.7711 8.6C20.1885 8.61406 19.1342 6.64303 19.0178 6.67396Z" fill="#2E672E"/>
</g>
<path d="M16.4631 7.11081L16.362 7.11117C16.328 7.11184 16.2946 7.11447 16.2606 7.11594C16.1938 7.12079 16.1267 7.12688 16.0602 7.13651C15.9936 7.14454 15.9273 7.15696 15.8615 7.16854C15.7957 7.18132 15.73 7.19489 15.665 7.21041C15.4046 7.27173 15.1514 7.35252 14.9038 7.44253C14.6557 7.53297 14.4137 7.63339 14.1762 7.74109C13.9473 7.84503 13.7212 7.95516 13.5026 8.07319C13.5958 8.06417 13.6883 8.06 13.7815 8.05897C13.8382 8.05837 13.8955 8.05974 13.9523 8.06074C14.0092 8.06372 14.0661 8.06552 14.1226 8.06973L14.2919 8.08518L14.4597 8.10793C14.5156 8.11658 14.5701 8.12811 14.6256 8.13799C14.6809 8.14667 14.7343 8.16228 14.7884 8.17464C14.843 8.18736 14.8972 8.20052 14.9492 8.21821C15.0016 8.23468 15.0549 8.24989 15.1069 8.26758L15.2593 8.32609C15.3109 8.34421 15.3584 8.3686 15.4073 8.39129C15.4552 8.41484 15.5055 8.43545 15.5511 8.46195L15.6882 8.54106C15.7347 8.5659 15.7763 8.59668 15.8187 8.62619L15.9455 8.71516L15.8164 8.62874C15.773 8.60009 15.7311 8.57014 15.6835 8.54576L15.5447 8.46957C15.4986 8.44389 15.4475 8.42455 15.3996 8.40179C15.3508 8.37989 15.3033 8.3559 15.2513 8.33861L15.0985 8.28212C15.0466 8.26562 14.9933 8.25081 14.9409 8.23514C14.889 8.21824 14.8349 8.20588 14.7808 8.19391C14.7267 8.18195 14.6739 8.1675 14.6181 8.15925C14.5632 8.15014 14.5087 8.1394 14.4534 8.13151L14.2868 8.11109L14.1191 8.09792C14.0626 8.0945 14.0063 8.09347 13.9499 8.09085C13.8936 8.09101 13.8373 8.09038 13.7812 8.09133C13.6693 8.09401 13.5558 8.10079 13.4462 8.11489C13.2538 8.16727 13.0631 8.23072 12.8762 8.29751C12.7037 8.36014 12.5339 8.42618 12.3659 8.4965C12.4987 8.59307 13.462 9.29788 14.36 10.0578C14.6021 10.262 14.8385 10.4703 15.0537 10.6708C15.1611 10.771 15.2628 10.8692 15.357 10.964C15.4041 11.0112 15.4501 11.0576 15.4926 11.1031C15.5361 11.1481 15.577 11.1925 15.6149 11.2355C15.6543 11.2784 15.6906 11.3199 15.7239 11.36C15.7577 11.4001 15.7893 11.4383 15.817 11.4752C15.8455 11.5116 15.872 11.5458 15.8939 11.5787C15.9159 11.6115 15.939 11.6407 15.9547 11.6689C15.9714 11.6969 15.9864 11.7218 15.9992 11.7438C16.0115 11.7653 16.0197 11.7851 16.0276 11.8002C16.0426 11.8315 16.0505 11.8477 16.0505 11.8477C16.0505 11.8477 16.0426 11.8315 16.0272 11.8006C16.0192 11.7851 16.011 11.7657 15.9982 11.7438C15.9849 11.7223 15.9699 11.6974 15.9528 11.6698C15.9366 11.6417 15.913 11.6129 15.8911 11.5801C15.8687 11.5476 15.8417 11.5135 15.8127 11.4775C15.7845 11.4406 15.7529 11.4028 15.7182 11.3632C15.6849 11.3231 15.6481 11.282 15.6083 11.2399C15.5699 11.197 15.5285 11.153 15.4846 11.1084C15.4416 11.063 15.3951 11.017 15.3475 10.9702C15.2525 10.8763 15.1493 10.779 15.041 10.6796C14.8239 10.4812 14.5852 10.2748 14.3412 10.0726C13.8533 9.66789 13.3467 9.27842 12.9624 8.9906C12.5828 8.70685 12.3227 8.52215 12.3155 8.51744C12.2262 8.55455 12.1381 8.59438 12.0494 8.63344C11.9604 8.67532 11.8698 8.71532 11.7819 8.75872C11.6056 8.84437 11.4314 8.93307 11.261 9.02632C11.1124 9.10732 10.9666 9.19173 10.8229 9.2784C10.8551 9.28743 10.8954 9.30071 10.9459 9.31731C11.0045 9.33855 11.0777 9.36322 11.1574 9.39703C11.239 9.42832 11.3261 9.47003 11.4228 9.51349C11.4702 9.53628 11.5183 9.56222 11.5689 9.5876C11.5939 9.6007 11.6199 9.61374 11.6455 9.62681C11.6706 9.6415 11.6963 9.65577 11.7219 9.67082C11.7738 9.70051 11.8266 9.73092 11.8805 9.76207C11.9326 9.79533 11.9857 9.82972 12.0393 9.86448C12.0661 9.88186 12.0935 9.8996 12.1208 9.91734C12.1477 9.93512 12.1732 9.95498 12.1996 9.97398C12.2525 10.0124 12.3054 10.0512 12.3593 10.0903C12.4133 10.1294 12.4621 10.1733 12.5137 10.2154C12.5649 10.2579 12.618 10.2987 12.6673 10.3429C12.7152 10.388 12.7631 10.4327 12.811 10.4775L12.8831 10.5441L12.9184 10.5777L12.9518 10.6126C13.038 10.7063 13.1274 10.7962 13.2065 10.8871C13.2827 10.9799 13.3563 11.0696 13.4261 11.1548C13.4931 11.2414 13.5496 11.3267 13.6056 11.4036C13.6328 11.4421 13.659 11.4795 13.684 11.5146C13.7101 11.5496 13.7282 11.5851 13.7491 11.6172C13.7885 11.6825 13.8229 11.7393 13.8512 11.7857C13.9077 11.8794 13.9404 11.9327 13.9404 11.9327C13.9404 11.9327 13.9073 11.8798 13.8492 11.7867C13.8205 11.7403 13.7851 11.6839 13.7448 11.6191C13.7239 11.5874 13.7048 11.5515 13.6783 11.5169C13.6532 11.4819 13.6261 11.4453 13.5984 11.4069C13.5415 11.3308 13.484 11.246 13.4161 11.1603C13.3454 11.0759 13.2704 10.9871 13.1932 10.8952C13.1127 10.8051 13.0223 10.7161 12.9348 10.6237L12.9019 10.5892L12.8656 10.5561L12.7931 10.4902C12.7452 10.4459 12.6964 10.4016 12.6481 10.3574C12.5983 10.314 12.5448 10.2736 12.4936 10.2315C12.4415 10.1906 12.3922 10.1472 12.3384 10.1089C12.284 10.0706 12.2306 10.0322 12.1778 9.9946C12.1509 9.97564 12.1254 9.95657 12.0986 9.93879C12.0708 9.92148 12.0434 9.90414 12.0167 9.88716C11.9626 9.85323 11.9095 9.81963 11.8575 9.78677C11.8036 9.75602 11.7503 9.72643 11.6991 9.69751C11.6729 9.68288 11.6473 9.66862 11.6227 9.65469C11.5966 9.64165 11.5711 9.62898 11.5456 9.6167C11.4951 9.59172 11.4471 9.56658 11.4002 9.54415C11.3036 9.50188 11.2165 9.46137 11.1355 9.43123C11.0564 9.39858 10.9843 9.37504 10.9256 9.3542C10.8662 9.33581 10.8193 9.32057 10.7872 9.31273C10.7816 9.3111 10.7771 9.30981 10.7726 9.30851C10.7678 9.31122 10.7626 9.31397 10.7583 9.31705C10.6769 9.36841 10.5944 9.41785 10.514 9.47034L10.2749 9.62847L10.0421 9.79256C9.9643 9.84727 9.89073 9.90569 9.81504 9.96186C9.77979 9.98818 9.74506 10.0149 9.71133 10.0419C9.71185 10.0422 9.71185 10.0422 9.71289 10.043C9.73575 10.0602 9.76814 10.0872 9.80887 10.1208C9.84919 10.1557 9.89788 10.1975 9.95105 10.2475C9.97739 10.2725 10.0058 10.2989 10.0358 10.3273C10.0649 10.3557 10.094 10.3865 10.1253 10.4184C10.1892 10.4808 10.2508 10.5537 10.3189 10.6283C10.3511 10.6668 10.3838 10.7066 10.4176 10.7471C10.4509 10.7876 10.4858 10.8288 10.5168 10.873C10.5488 10.9164 10.5819 10.9609 10.615 11.0054C10.6486 11.0503 10.6769 11.0979 10.7086 11.1445C10.739 11.192 10.7722 11.2385 10.8006 11.2874C10.8285 11.3362 10.857 11.3854 10.8849 11.4347L10.9273 11.5081C10.9408 11.5328 10.9524 11.5584 10.9649 11.5835C10.9895 11.6338 11.014 11.6836 11.0386 11.7331C11.0646 11.7825 11.0842 11.8331 11.1043 11.8829C11.1244 11.9326 11.144 11.9816 11.164 12.0302C11.1849 12.0779 11.2001 12.1269 11.2146 12.1742C11.2296 12.2219 11.2445 12.2681 11.2589 12.3134C11.291 12.4031 11.3077 12.4907 11.3264 12.5713C11.3355 12.6114 11.3445 12.6495 11.3529 12.6861C11.3612 12.7227 11.3694 12.7573 11.3732 12.7906C11.382 12.8567 11.3903 12.914 11.3969 12.9615C11.4101 13.0561 11.4177 13.1103 11.4177 13.1103C11.4177 13.1103 11.4091 13.0561 11.3949 12.9616C11.3874 12.9146 11.3786 12.8569 11.3683 12.7913C11.3646 12.758 11.3558 12.7235 11.3465 12.6873C11.3377 12.6508 11.3282 12.6123 11.3186 12.5726C11.2985 12.4925 11.2803 12.4054 11.2472 12.3162C11.2324 12.2713 11.217 12.2248 11.201 12.1775C11.1855 12.1302 11.1699 12.0821 11.148 12.0345C11.128 11.9863 11.107 11.9378 11.0864 11.8881C11.0658 11.8387 11.0452 11.7886 11.0188 11.74C10.9938 11.6906 10.9688 11.6411 10.9432 11.5913C10.9307 11.5666 10.9187 11.541 10.9047 11.5168L10.8614 11.4438C10.8325 11.3955 10.8036 11.3467 10.7752 11.2982C10.7463 11.2499 10.7121 11.2038 10.6814 11.1572C10.6492 11.111 10.6199 11.0638 10.5863 11.0197C10.5523 10.9753 10.5193 10.932 10.4863 10.8886C10.4548 10.8452 10.42 10.8044 10.3858 10.7648C10.352 10.7247 10.3188 10.6854 10.2866 10.6476C10.2171 10.574 10.1551 10.5022 10.0908 10.441C10.0591 10.4096 10.0299 10.3792 10.0004 10.3512C9.97047 10.3241 9.94206 10.2976 9.91575 10.273C9.86216 10.2243 9.81304 10.1832 9.7728 10.1496C9.7321 10.1164 9.69976 10.0902 9.67744 10.0737C9.67588 10.0726 9.67537 10.0722 9.67433 10.0715C9.64714 10.0929 9.62047 10.1146 9.59379 10.1364C9.52077 10.1956 9.44718 10.2536 9.37778 10.3153C9.30835 10.3767 9.23683 10.4361 9.16746 10.4983L8.96488 10.6863C8.89551 10.7485 8.83434 10.8152 8.76906 10.8795C8.70432 10.9445 8.63903 11.0088 8.5789 11.0763L8.39543 11.277L8.2222 11.4835L8.21763 11.489C8.21815 11.4893 8.21864 11.4893 8.21968 11.49C8.23901 11.4987 8.26595 11.5105 8.29732 11.5296C8.33006 11.5469 8.36579 11.5721 8.40715 11.6005C8.44571 11.6311 8.49037 11.6644 8.53262 11.7059C8.57768 11.7453 8.61789 11.7933 8.66359 11.8422C8.68357 11.868 8.70461 11.8949 8.72565 11.9219C8.73643 11.9355 8.74672 11.9492 8.75753 11.9633C8.76738 11.9778 8.77674 11.9923 8.78613 12.0073C8.80536 12.0367 8.82512 12.0666 8.8449 12.0968C8.86375 12.1279 8.87971 12.16 8.89714 12.192C8.91411 12.2244 8.9335 12.2562 8.94807 12.2896C8.96263 12.323 8.97769 12.3563 8.99228 12.3901C9.02432 12.4562 9.04621 12.5254 9.06996 12.5929C9.08109 12.6265 9.09464 12.6596 9.1038 12.6933C9.11294 12.7266 9.12207 12.76 9.13066 12.7925C9.14737 12.8581 9.16734 12.9207 9.17732 12.9815C9.18878 13.0422 9.20049 13.0994 9.21043 13.1522C9.22234 13.2049 9.22609 13.2538 9.23196 13.2973C9.2378 13.3405 9.24229 13.3781 9.24635 13.4094C9.25442 13.4711 9.25877 13.5068 9.25877 13.5068C9.25877 13.5068 9.25344 13.4712 9.24438 13.4095C9.23934 13.3783 9.23387 13.3407 9.22754 13.2976C9.22023 13.2546 9.21549 13.2058 9.2026 13.1531C9.19121 13.1008 9.17852 13.0437 9.16512 12.9835C9.15418 12.9232 9.13326 12.8611 9.11461 12.796C9.10504 12.7635 9.09544 12.7306 9.08581 12.6973C9.0757 12.664 9.06168 12.6314 9.04957 12.5979C9.0244 12.5313 9.00109 12.463 8.96811 12.3977C8.95259 12.3648 8.93705 12.3315 8.92153 12.2985C8.9065 12.2656 8.88617 12.2346 8.86923 12.2026C8.85087 12.1715 8.83445 12.1398 8.81516 12.1096C8.79491 12.0798 8.77469 12.0504 8.75551 12.0217C8.74517 12.0072 8.73583 11.9931 8.72601 11.979C8.71523 11.9653 8.70448 11.952 8.69372 11.9388C8.67221 11.9123 8.65125 11.8865 8.63083 11.8615C8.58475 11.8143 8.54462 11.7674 8.4992 11.7301C8.45755 11.6902 8.413 11.6584 8.37553 11.6294C8.33476 11.6025 8.29965 11.5793 8.26847 11.563C8.23818 11.5455 8.21228 11.5344 8.19551 11.5272C8.19295 11.5257 8.19044 11.5251 8.1884 11.5241L8.13586 11.5871L8.0541 11.6928C7.99961 11.7635 7.94409 11.8335 7.8911 11.9045L7.73832 12.1216C7.71309 12.1576 7.68686 12.1933 7.66215 12.2297L7.5911 12.3406L7.44846 12.5618L7.40146 12.6412C7.40252 12.6424 7.40304 12.6427 7.4046 12.6438C7.41309 12.6528 7.42431 12.6657 7.43874 12.6823C7.46711 12.7155 7.50637 12.764 7.5479 12.8243C7.56817 12.8545 7.59059 12.8874 7.61173 12.9231C7.63284 12.9584 7.65558 12.9961 7.67553 13.0362C7.6974 13.0755 7.71648 13.1174 7.73607 13.1596C7.75668 13.2021 7.77245 13.2462 7.79065 13.2897C7.80596 13.3342 7.82124 13.3783 7.83649 13.422C7.84882 13.4663 7.86061 13.5099 7.87232 13.5522C7.88157 13.5947 7.89023 13.6357 7.89875 13.6747C7.90776 13.7136 7.91078 13.7513 7.91653 13.7857C7.92176 13.8197 7.92732 13.8513 7.92871 13.8795C7.93106 13.9073 7.9332 13.9319 7.93455 13.9522C7.93821 13.9923 7.94024 14.0153 7.94024 14.0153C7.94024 14.0153 7.93723 13.9924 7.93259 13.9523C7.93025 13.9321 7.92765 13.9079 7.92429 13.8798C7.92145 13.8521 7.91444 13.821 7.90869 13.7866C7.9015 13.7528 7.89701 13.7151 7.88704 13.6766C7.87707 13.6382 7.86694 13.5973 7.85624 13.5553C7.84311 13.5139 7.82985 13.4704 7.8161 13.427C7.79942 13.3842 7.7827 13.3406 7.76597 13.297C7.74583 13.254 7.7291 13.2104 7.70759 13.1691C7.68658 13.1278 7.66608 13.0868 7.64329 13.0484C7.62194 13.0095 7.59829 12.9731 7.57623 12.9383C7.5537 12.9038 7.53086 12.8722 7.50966 12.8429C7.46679 12.7846 7.42669 12.7382 7.39842 12.7065C7.38992 12.6975 7.38301 12.69 7.37666 12.6836L7.31646 12.7871C7.22379 12.9362 7.15225 13.0916 7.06868 13.2441C7.02589 13.32 6.99316 13.3989 6.95541 13.4765L6.84419 13.7099L6.93384 13.4711C6.96556 13.3919 6.99226 13.3115 7.02949 13.2335C7.09994 13.0767 7.16881 12.9183 7.25284 12.7654L7.37511 12.5348L7.51099 12.3085L7.57945 12.1957C7.60312 12.1585 7.62881 12.1221 7.65347 12.0849L7.80355 11.8644C7.85646 11.7922 7.91191 11.721 7.96582 11.6491L8.04696 11.5415C8.07521 11.5065 8.105 11.4721 8.13423 11.437L8.30929 11.2285L8.49511 11.026C8.55566 10.9572 8.6219 10.8925 8.6871 10.8271C8.75331 10.7619 8.81492 10.6943 8.88475 10.6318L9.01859 10.5078C8.95597 10.516 8.87141 10.528 8.77143 10.5455C8.66262 10.5639 8.53547 10.5884 8.40141 10.6201C8.33379 10.6346 8.2655 10.6539 8.1951 10.671C8.12586 10.6908 8.05512 10.7103 7.98552 10.7321C7.91653 10.7555 7.84532 10.7754 7.77946 10.8014C7.71258 10.827 7.64552 10.8499 7.58421 10.8775C7.52233 10.904 7.4608 10.9285 7.40694 10.9569C7.35206 10.9849 7.29783 11.0077 7.25278 11.035C7.20667 11.0613 7.16438 11.0857 7.12682 11.1069C7.09082 11.1293 7.0607 11.1513 7.03516 11.1678C6.98467 11.2023 6.95587 11.2218 6.95587 11.2218C6.95587 11.2218 6.98412 11.2015 7.03361 11.1667C7.0591 11.1494 7.0882 11.1271 7.12415 11.1039C7.16117 11.0819 7.20294 11.0571 7.24799 11.0298C7.29296 11.0012 7.34665 10.9777 7.40095 10.9485C7.45424 10.919 7.51522 10.8937 7.57651 10.8657C7.63774 10.8368 7.70472 10.8128 7.77103 10.786C7.8373 10.7588 7.90742 10.7373 7.97634 10.7128C8.04583 10.6894 8.11649 10.6687 8.18614 10.6477C8.25595 10.629 8.32464 10.6085 8.39215 10.5924C8.52655 10.5582 8.65357 10.5318 8.76317 10.5105C8.89813 10.4847 9.00611 10.4687 9.0697 10.4605L9.08966 10.4416C9.16001 10.3794 9.23195 10.3187 9.30336 10.2576C9.37372 10.1954 9.44879 10.1373 9.52282 10.0784C9.59685 10.0196 9.67083 9.95991 9.74851 9.90401C9.82568 9.84774 9.90023 9.78925 9.97949 9.73484L10.2087 9.57618C10.1706 9.57393 10.121 9.57085 10.0592 9.56859C9.9102 9.56176 9.69633 9.55847 9.43973 9.56562C9.31125 9.5702 9.17197 9.57551 9.02517 9.58651C8.87829 9.59631 8.72332 9.61065 8.56366 9.6285C8.40407 9.64754 8.23971 9.6689 8.07331 9.69678C7.90683 9.72347 7.73931 9.75662 7.57241 9.79172C7.40616 9.82917 7.24056 9.86898 7.07972 9.91366C6.9184 9.95838 6.76121 10.006 6.61164 10.0567C6.46152 10.1067 6.31906 10.1605 6.18492 10.2134C6.11867 10.241 6.05381 10.2673 5.99139 10.293C5.93007 10.3207 5.87067 10.3474 5.81365 10.3728C5.75611 10.3978 5.70369 10.4256 5.65251 10.4498C5.60239 10.4751 5.55304 10.4972 5.50928 10.5217C5.42067 10.5691 5.34239 10.6087 5.28065 10.6448C5.15715 10.7165 5.08637 10.7576 5.08637 10.7576C5.08637 10.7576 5.15663 10.7161 5.27956 10.6432C5.34078 10.6068 5.41904 10.5668 5.50658 10.5183C5.54985 10.4938 5.59918 10.4714 5.64927 10.4456C5.7004 10.4207 5.7523 10.3924 5.80984 10.3674C5.86632 10.3413 5.92569 10.3142 5.98698 10.2861C6.04886 10.2596 6.11367 10.2325 6.17989 10.2046C6.31345 10.1505 6.45537 10.0959 6.60541 10.0448C6.75488 9.99246 6.91198 9.94363 7.07323 9.89773C7.23396 9.85145 7.39997 9.81042 7.56611 9.77137C7.73343 9.73504 7.90134 9.70027 8.06774 9.67239C8.23452 9.64289 8.39979 9.62027 8.55929 9.60004C8.71937 9.58097 8.87472 9.565 9.02253 9.55434C9.17023 9.54208 9.30993 9.53555 9.43884 9.53014C9.6973 9.52127 9.91254 9.52287 10.0629 9.52841C10.1588 9.53158 10.2282 9.53574 10.2664 9.53838L10.4593 9.41328C10.5407 9.36073 10.6248 9.31199 10.7078 9.26132C10.769 9.22489 10.8307 9.18922 10.893 9.15391C10.7778 9.14323 10.5158 9.12119 10.167 9.09975C9.69089 9.07044 9.05454 9.04344 8.41628 9.04692C8.25694 9.04757 8.09725 9.05025 7.94018 9.05514C7.7831 9.06004 7.62861 9.06676 7.47922 9.07594C7.32986 9.08551 7.18604 9.09671 7.0493 9.11063C6.98118 9.11757 6.9145 9.12402 6.85093 9.13266C6.78682 9.14053 6.72464 9.14788 6.66607 9.15738C6.54728 9.1741 6.44006 9.19403 6.3446 9.21279C6.29743 9.22312 6.25315 9.23247 6.21228 9.24119C6.17202 9.25146 6.13464 9.26075 6.10117 9.26937C6.03363 9.28506 5.98254 9.30325 5.94721 9.31359C5.91191 9.32434 5.89307 9.33039 5.89307 9.33039C5.89307 9.33039 5.91142 9.32437 5.9467 9.31323C5.982 9.30249 6.03309 9.2843 6.10057 9.26781C6.13402 9.25879 6.17087 9.24914 6.21112 9.23847C6.25245 9.22932 6.2967 9.21958 6.34387 9.20924C6.43878 9.18972 6.54595 9.16899 6.66466 9.15108C6.7237 9.14115 6.78533 9.13304 6.84942 9.12477C6.91345 9.1157 6.98007 9.10846 7.04817 9.10112C7.18431 9.08564 7.32907 9.07358 7.47835 9.06282C7.62812 9.05202 7.78256 9.0445 7.94002 9.03798C8.09751 9.03186 8.25712 9.02799 8.41683 9.02572C9.05576 9.0174 9.69419 9.03867 10.1711 9.06434C10.6039 9.08736 10.9041 9.11284 10.9562 9.11735C11.0427 9.06844 11.1303 9.02066 11.219 8.97401C11.392 8.8818 11.5692 8.79409 11.7481 8.70987C11.7787 8.69544 11.8098 8.68138 11.8405 8.66736C11.8166 8.65777 11.7863 8.64622 11.7498 8.63268C11.6997 8.61287 11.6375 8.59106 11.5672 8.565C11.4955 8.54064 11.4156 8.51123 11.3263 8.48285C11.1492 8.42399 10.9402 8.36047 10.713 8.29856C10.5994 8.26701 10.4806 8.23901 10.3606 8.20828C10.2385 8.1817 10.1161 8.15153 9.99161 8.12789C9.86671 8.10468 9.74252 8.07743 9.6185 8.06016C9.49435 8.04089 9.37258 8.02027 9.25286 8.00829C9.13351 7.9943 9.01855 7.97961 8.9081 7.97341C8.85307 7.96949 8.79951 7.96548 8.74745 7.96177C8.72167 7.9599 8.69635 7.95759 8.67111 7.95648C8.6459 7.95577 8.6212 7.95542 8.59697 7.95464C8.5006 7.95229 8.41165 7.95024 8.33355 7.94827C8.25464 7.94875 8.1863 7.95251 8.12962 7.9535C8.01637 7.95707 7.95189 7.95938 7.95189 7.95938C7.95189 7.95938 8.01635 7.95667 8.12952 7.95191C8.18612 7.94973 8.25491 7.94553 8.33329 7.94429C8.41231 7.94541 8.50072 7.94669 8.59753 7.94822C8.62174 7.9486 8.64643 7.94895 8.67162 7.94926C8.69685 7.95037 8.72264 7.95224 8.74839 7.95372C8.80042 7.95703 8.85442 7.96022 8.90943 7.96373C9.02029 7.96871 9.13569 7.98257 9.25545 7.99534C9.37558 8.00609 9.49826 8.02545 9.62282 8.04349C9.74823 8.05948 9.87234 8.08554 9.99815 8.10749C10.1235 8.12987 10.2468 8.15917 10.3694 8.18414C10.4903 8.2136 10.6105 8.24072 10.7245 8.27104C10.9535 8.33083 11.1649 8.39259 11.3439 8.44973C11.4336 8.47768 11.5144 8.50623 11.5866 8.52977C11.6578 8.55536 11.7209 8.5767 11.7721 8.59605C11.8267 8.61597 11.8682 8.63156 11.8956 8.64252C11.9367 8.62379 11.978 8.60547 12.0187 8.58678C12.1103 8.54791 12.2014 8.50789 12.2941 8.47055C12.4785 8.39474 12.6663 8.3247 12.8558 8.25814C12.9156 8.23777 12.9759 8.21777 13.0358 8.1982L10.2199 6.60235L13.0943 8.17952C13.1605 8.15833 13.2267 8.13793 13.294 8.11867C13.2789 8.09891 13.2519 8.06517 13.2158 8.01926C13.1856 7.98134 13.1495 7.93503 13.1119 7.88124C13.0727 7.82754 13.0287 7.76699 12.9809 7.7007C12.8843 7.56898 12.7766 7.41283 12.659 7.24658C12.5427 7.07983 12.4183 6.90204 12.2944 6.72382C11.7998 6.01128 11.3119 5.29589 11.3119 5.29589C11.3119 5.29589 11.8113 6.00611 12.3169 6.71313C12.4437 6.88956 12.5709 7.06636 12.69 7.23172C12.8101 7.39622 12.9201 7.55141 13.0191 7.68177C13.0679 7.7476 13.1124 7.80773 13.1524 7.86056C13.191 7.91429 13.2276 7.95937 13.2577 7.99649C13.3024 8.05182 13.3325 8.08934 13.3454 8.10485C13.3754 8.09646 13.4049 8.0881 13.4355 8.08007L13.4369 8.07957L13.4384 8.07947L13.4395 8.06662L13.6546 6.0927L13.4947 8.02819C13.6301 7.95805 13.7673 7.89139 13.9061 7.82701L13.8974 7.82201C13.8974 7.82201 13.9844 7.72794 14.1182 7.58883C14.185 7.51887 14.2635 7.43776 14.3486 7.35221C14.3916 7.30901 14.4345 7.26421 14.4804 7.21962C14.5257 7.17506 14.5721 7.12963 14.6184 7.08421C14.6642 7.03882 14.711 6.99337 14.7579 6.9503C14.8053 6.9064 14.8513 6.8634 14.8959 6.82169C14.9395 6.77964 14.9848 6.74108 15.0277 6.70387C15.0701 6.66709 15.1107 6.63204 15.1476 6.60003C15.1838 6.56685 15.2205 6.53965 15.2529 6.51512C15.2853 6.49059 15.3135 6.46915 15.3365 6.45164C15.3825 6.41622 15.4093 6.39606 15.4093 6.39606C15.4093 6.39606 15.3835 6.41655 15.3381 6.45273C15.3156 6.4706 15.2879 6.49282 15.2565 6.51767C15.2247 6.54296 15.189 6.5705 15.1533 6.60444C15.117 6.63721 15.0779 6.67256 15.0365 6.71047C14.9951 6.74798 14.9508 6.78727 14.9078 6.83047C14.8648 6.87249 14.8198 6.91662 14.7744 6.96078C14.728 7.00501 14.6828 7.05116 14.6385 7.09725C14.5932 7.1434 14.5484 7.18952 14.5041 7.23481C14.4597 7.2801 14.4179 7.32562 14.3764 7.36952C14.2934 7.45653 14.2175 7.53867 14.1531 7.60966C14.0841 7.68455 14.0285 7.74656 13.9909 7.78821C14.0464 7.76294 14.1025 7.73803 14.1581 7.71355C14.3988 7.60843 14.6434 7.51063 14.8936 7.42324C15.1439 7.33625 15.3997 7.25847 15.6618 7.20024C15.7274 7.18548 15.7932 7.1731 15.8595 7.16069C15.9259 7.14987 15.9922 7.13865 16.0594 7.13137C16.1264 7.1225 16.1936 7.11761 16.2605 7.11355C16.2944 7.11248 16.3283 7.11022 16.3619 7.10997L16.4631 7.11081Z" fill="#5FC233"/>
</g>
<defs>
<clipPath id="clip0_22_2631">
<rect width="19" height="14" fill="white" transform="translate(0.55481 3.64838) rotate(-3.81958)"/>
</clipPath>
</defs>
</svg>
