<svg width="8" height="8" viewBox="0 0 8 8" fill="none" xmlns="http://www.w3.org/2000/svg">
<path d="M4.60779 1.24088C4.16167 0.791222 3.56749 0.54361 2.93473 0.54361C2.30197 0.54361 1.70779 0.791222 1.26145 1.24088C0.339038 2.17035 0.339038 3.68272 1.26145 4.6124C1.70757 5.06184 2.30175 5.30945 2.93473 5.30945C3.56727 5.30945 4.16167 5.06206 4.60779 4.6124C5.05412 4.16275 5.29981 3.56401 5.29981 2.92664C5.29981 2.28927 5.05412 1.69053 4.60779 1.24088ZM4.47546 4.47894C4.06447 4.893 3.51727 5.12087 2.93473 5.12087C2.35175 5.12087 1.80477 4.893 1.39378 4.47894C0.54421 3.62304 0.54421 2.23024 1.39378 1.37412C1.80477 0.960276 2.35197 0.732195 2.93473 0.732195C3.51749 0.732195 4.06447 0.960276 4.47546 1.37412C5.32524 2.23024 5.32524 3.62282 4.47546 4.47894Z" fill="#676767"/>
<mask id="mask0_22_2614" style="mask-type:luminance" maskUnits="userSpaceOnUse" x="0" y="0" width="8" height="8">
<path d="M0 0.0227966H8V7.98113H0V0.0227966Z" fill="white"/>
</mask>
<g mask="url(#mask0_22_2614)">
<path d="M7.77195 6.93104L6.19695 5.34402L5.87088 5.01568C5.83596 4.98031 5.77368 4.98031 5.73855 5.01568L5.68898 5.06581C5.68445 5.05474 5.67799 5.04432 5.66915 5.03543L5.26807 4.63113C5.62346 4.13916 5.81592 3.54801 5.81592 2.92649C5.81592 2.15001 5.51657 1.42063 4.97282 0.872884C4.42928 0.325358 3.70536 0.0239258 2.93467 0.0239258C2.16398 0.0239258 1.44006 0.325575 0.896308 0.873101C-0.227399 2.00526 -0.227399 3.84771 0.896308 4.98009C1.44006 5.52762 2.16398 5.82905 2.93467 5.82905C3.5517 5.82905 4.13833 5.63525 4.62691 5.27718L5.02799 5.68148C5.03704 5.69059 5.04717 5.6971 5.05795 5.70166L5.00881 5.75114C4.97217 5.78803 4.97217 5.84771 5.00881 5.8846L5.34739 6.22553L6.90967 7.79975C7.02476 7.91585 7.17799 7.97987 7.34092 7.97987C7.50364 7.97987 7.65687 7.91585 7.77195 7.79975C8.00967 7.56017 8.00967 7.17041 7.77195 6.93104ZM1.02864 4.84641C-0.0222265 3.7876 -0.0222265 2.06494 1.02864 1.00635C1.53683 0.494412 2.21376 0.212294 2.93467 0.212294C3.65536 0.212294 4.33208 0.494195 4.84027 1.00613C5.34868 1.51807 5.62842 2.20014 5.62842 2.92627C5.62842 3.6524 5.34868 4.33426 4.84027 4.84619C4.33208 5.35813 3.65536 5.64025 2.93445 5.64025C2.21376 5.64046 1.53683 5.35834 1.02864 4.84641ZM5.16032 5.54801L4.77562 5.16043C4.84372 5.10335 4.90945 5.04346 4.97282 4.97965C5.03596 4.91607 5.09566 4.84966 5.15213 4.7813L5.53661 5.16889C5.54545 5.17779 5.55579 5.1843 5.56678 5.18886L5.18014 5.5784C5.17562 5.56733 5.16915 5.55691 5.16032 5.54801ZM5.80471 5.21577L6.0004 5.41281L5.41139 6.02349L5.2073 5.81776L5.80471 5.21577ZM7.63963 7.6665C7.55967 7.7468 7.45364 7.79129 7.34092 7.79129C7.22799 7.79129 7.12174 7.7468 7.042 7.6665L5.54394 6.15674L6.13273 5.54606L7.63984 7.06429C7.8045 7.23031 7.8045 7.50027 7.63963 7.6665Z" fill="#676767"/>
</g>
</svg>
