<svg xmlns="http://www.w3.org/2000/svg" xmlns:xlink="http://www.w3.org/1999/xlink" width="500" zoomAndPan="magnify" viewBox="0 0 375 374.999991" height="500" preserveAspectRatio="xMidYMid meet" version="1.0"><defs><clipPath id="0b2d5c478c"><path d="M 112.5 112.5 L 262.5 112.5 L 262.5 262 L 112.5 262 Z M 112.5 112.5 " clip-rule="nonzero"/></clipPath></defs><g clip-path="url(#0b2d5c478c)"><path fill="#000000" d="M 187.320312 112.332031 C 186.503906 112.34375 185.699219 112.433594 184.90625 112.605469 C 184.109375 112.773438 183.339844 113.019531 182.589844 113.34375 C 181.84375 113.664062 181.136719 114.054688 180.464844 114.519531 C 179.796875 114.980469 179.175781 115.503906 178.609375 116.085938 C 178.042969 116.667969 177.539062 117.300781 177.097656 117.984375 C 176.652344 118.667969 176.28125 119.386719 175.980469 120.140625 C 175.679688 120.898438 175.457031 121.675781 175.308594 122.476562 C 175.160156 123.277344 175.09375 124.082031 175.101562 124.898438 L 175.101562 174.484375 L 125.515625 174.484375 C 124.695312 174.472656 123.878906 174.542969 123.074219 174.691406 C 122.265625 174.839844 121.480469 175.070312 120.71875 175.375 C 119.957031 175.683594 119.230469 176.0625 118.542969 176.511719 C 117.859375 176.960938 117.222656 177.476562 116.636719 178.050781 C 116.050781 178.628906 115.53125 179.257812 115.070312 179.9375 C 114.609375 180.617188 114.222656 181.335938 113.902344 182.09375 C 113.585938 182.851562 113.347656 183.632812 113.1875 184.441406 C 113.023438 185.246094 112.945312 186.058594 112.945312 186.878906 C 112.945312 187.703125 113.023438 188.515625 113.1875 189.320312 C 113.347656 190.125 113.585938 190.90625 113.902344 191.664062 C 114.222656 192.421875 114.609375 193.140625 115.070312 193.824219 C 115.53125 194.503906 116.050781 195.132812 116.636719 195.707031 C 117.222656 196.285156 117.859375 196.796875 118.542969 197.25 C 119.230469 197.699219 119.957031 198.078125 120.71875 198.382812 C 121.480469 198.691406 122.265625 198.917969 123.074219 199.070312 C 123.878906 199.21875 124.695312 199.289062 125.515625 199.277344 L 175.101562 199.277344 L 175.101562 248.863281 C 175.089844 249.683594 175.160156 250.5 175.3125 251.308594 C 175.460938 252.113281 175.691406 252.898438 175.996094 253.660156 C 176.300781 254.421875 176.679688 255.148438 177.132812 255.835938 C 177.582031 256.523438 178.09375 257.160156 178.671875 257.742188 C 179.25 258.328125 179.878906 258.851562 180.558594 259.3125 C 181.238281 259.769531 181.957031 260.160156 182.714844 260.476562 C 183.472656 260.792969 184.253906 261.03125 185.058594 261.195312 C 185.863281 261.355469 186.679688 261.4375 187.5 261.4375 C 188.320312 261.4375 189.136719 261.355469 189.941406 261.195312 C 190.746094 261.03125 191.527344 260.792969 192.285156 260.476562 C 193.042969 260.160156 193.761719 259.769531 194.441406 259.3125 C 195.121094 258.851562 195.75 258.328125 196.328125 257.742188 C 196.90625 257.160156 197.417969 256.523438 197.867188 255.835938 C 198.320312 255.148438 198.699219 254.421875 199.003906 253.660156 C 199.308594 252.898438 199.539062 252.113281 199.6875 251.308594 C 199.839844 250.5 199.910156 249.683594 199.898438 248.863281 L 199.898438 199.277344 L 249.484375 199.277344 C 250.304688 199.289062 251.121094 199.21875 251.925781 199.070312 C 252.734375 198.917969 253.519531 198.691406 254.28125 198.382812 C 255.042969 198.078125 255.769531 197.699219 256.457031 197.25 C 257.140625 196.796875 257.777344 196.285156 258.363281 195.707031 C 258.949219 195.132812 259.46875 194.503906 259.929688 193.824219 C 260.390625 193.140625 260.777344 192.421875 261.097656 191.664062 C 261.414062 190.90625 261.652344 190.125 261.8125 189.320312 C 261.976562 188.515625 262.054688 187.703125 262.054688 186.878906 C 262.054688 186.058594 261.976562 185.246094 261.8125 184.441406 C 261.652344 183.632812 261.414062 182.851562 261.097656 182.09375 C 260.777344 181.335938 260.390625 180.617188 259.929688 179.9375 C 259.46875 179.257812 258.949219 178.628906 258.363281 178.050781 C 257.777344 177.476562 257.140625 176.960938 256.457031 176.511719 C 255.769531 176.0625 255.042969 175.683594 254.28125 175.375 C 253.519531 175.070312 252.734375 174.839844 251.925781 174.691406 C 251.121094 174.542969 250.304688 174.472656 249.484375 174.484375 L 199.898438 174.484375 L 199.898438 124.898438 C 199.90625 124.066406 199.835938 123.246094 199.683594 122.433594 C 199.53125 121.617188 199.296875 120.824219 198.984375 120.058594 C 198.671875 119.289062 198.289062 118.5625 197.828125 117.871094 C 197.371094 117.179688 196.847656 116.542969 196.261719 115.957031 C 195.675781 115.371094 195.039062 114.847656 194.347656 114.390625 C 193.65625 113.933594 192.925781 113.546875 192.15625 113.238281 C 191.390625 112.925781 190.597656 112.695312 189.785156 112.542969 C 188.96875 112.386719 188.148438 112.320312 187.320312 112.332031 Z M 187.320312 112.332031 " fill-opacity="1" fill-rule="nonzero"/></g></svg>