<svg width="443" height="50" viewBox="0 0 443 50" fill="none" xmlns="http://www.w3.org/2000/svg">
<mask id="mask0_30_8496" style="mask-type:luminance" maskUnits="userSpaceOnUse" x="0" y="5" width="228" height="24">
<path d="M0.0411987 11.4248L226.982 5.96064L227.859 23.3702L0.918296 28.8343L0.0411987 11.4248Z" fill="white"/>
</mask>
<g mask="url(#mask0_30_8496)">
<path d="M227.853 23.2557L227.782 21.8275C219.029 16.1614 209.501 13.5608 198.719 13.88C189.1 14.167 180.06 16.7805 172.793 18.8789C167.626 20.3694 163.17 21.6597 159.757 21.8015C151.148 22.1534 142.453 21.0521 137.141 19.0777C137.662 18.5035 138.146 17.879 138.585 17.2088C140.773 13.8794 139.174 12.0965 138.386 11.4857C137.185 10.5529 135.34 10.227 133.681 10.6585C131.772 11.1556 130.574 12.5249 130.476 14.3231C130.398 15.7165 131.203 17.0079 132.852 18.1639C133.478 18.6 134.227 19.016 135.081 19.404C133.208 21.1172 130.932 22.2061 128.434 22.5429C124.638 23.0598 120.454 21.8754 116.333 19.1192C107.484 13.2 101.344 15.1096 96.8638 16.5027C96.5433 16.5997 96.2289 16.7009 95.9256 16.7891C95.5118 16.9139 95.0399 17.0615 94.4982 17.232C89.1331 18.9102 76.5681 22.8427 53.5558 24.7075C40.762 25.7432 26.3283 21.8309 16.4795 18.37C9.43785 15.8969 3.46805 13.2064 0.0470581 11.544L0.1098 12.7894C3.69336 14.5074 9.41862 17.0421 16.3805 19.4575C22.6982 21.6545 28.7876 23.3122 34.4869 24.3921C41.5482 25.7285 48.0143 26.1729 53.7188 25.7121C76.9492 23.8293 89.6482 19.8553 95.0715 18.1587C95.6132 17.9882 96.0792 17.8408 96.4814 17.7204C96.7903 17.6279 97.1109 17.5308 97.4312 17.4295C101.783 16.0778 107.195 14.3942 115.364 19.8574C119.828 22.8437 124.442 24.1156 128.703 23.5364C131.594 23.1434 134.212 21.8888 136.32 19.9188C138.473 20.7394 141.165 21.4235 144.308 21.9309C149.111 22.7131 154.63 23.0228 159.844 22.8079C163.487 22.6606 168.048 21.3423 173.332 19.815C187.982 15.5812 208.039 9.78735 227.853 23.2557ZM133.846 17.4421C132.49 16.496 131.835 15.4606 131.898 14.3654C131.969 12.9679 132.8 11.9649 134.173 11.6084C135.289 11.3177 136.53 11.5389 137.343 12.1661C137.928 12.6202 138.237 13.2255 138.273 13.9396C138.314 14.7642 137.99 15.7337 137.303 16.7801C136.88 17.4286 136.414 18.0271 135.909 18.5755C135.11 18.2202 134.416 17.8412 133.846 17.4421Z" fill="#93AF7E"/>
</g>
<path d="M103.779 25.8254C103.779 25.8211 102.945 23.3687 103.852 21.5341C104.416 20.3843 105.489 19.2564 106.896 18.6481C108.304 18.0611 110.055 18.2829 111.091 19.356C112.521 20.8366 111.849 23.4741 108.967 24.2795C106.934 24.8049 105.248 25.0369 103.779 25.8254Z" fill="#779160"/>
<path d="M105.108 23.3211C105.318 22.6819 105.66 22.0609 106.091 21.4676C106.202 21.3202 106.313 21.1729 106.442 21.0336L106.627 20.8207C106.694 20.7509 106.768 20.6853 106.835 20.6156L107.044 20.4106C107.118 20.345 107.197 20.2835 107.271 20.2179L107.504 20.0251L107.749 19.8405L108 19.66L108.263 19.4834L108.527 19.3111L108.809 19.1512L109.097 18.9953C109.195 18.9504 109.299 18.9011 109.404 18.8603C109.508 18.8152 109.612 18.7744 109.717 18.7294C109.821 18.6928 109.938 18.6602 110.048 18.6235L110.381 18.5262C110.492 18.4937 110.609 18.4739 110.72 18.45C110.954 18.4018 111.183 18.3495 111.418 18.3268C111.536 18.3112 111.653 18.2999 111.771 18.2885C111.889 18.2772 112.007 18.2616 112.125 18.263C112.367 18.2572 112.604 18.2515 112.841 18.2629C112.865 18.2666 112.883 18.2831 112.884 18.3001C112.885 18.3086 112.873 18.3217 112.862 18.3262L112.856 18.3263C112.647 18.408 112.437 18.4768 112.228 18.5414C112.123 18.5737 112.024 18.6144 111.919 18.6467C111.821 18.6831 111.716 18.7197 111.617 18.7518C111.407 18.8165 111.216 18.8976 111.018 18.9662C110.821 19.0348 110.63 19.116 110.444 19.1928L110.154 19.3061C110.061 19.3467 109.969 19.3872 109.876 19.4277C109.783 19.4682 109.685 19.5046 109.592 19.5409L109.314 19.6667L109.03 19.7842L108.759 19.9226L108.488 20.0568L108.241 20.2117L107.989 20.3667L107.754 20.5297C107.674 20.587 107.594 20.6442 107.514 20.7015L107.292 20.877C107.224 20.9382 107.145 20.9955 107.071 21.0568L106.867 21.2447C106.72 21.3674 106.596 21.5023 106.467 21.633C105.955 22.1602 105.54 22.7362 105.192 23.3403C105.181 23.3576 105.158 23.3667 105.134 23.3587C105.11 23.3551 105.103 23.3382 105.108 23.3211Z" fill="#93AF7E"/>
<path d="M153.632 12.5984C153.632 12.6026 155.236 14.8536 154.955 16.7881C154.774 18.001 154.099 19.2726 152.927 20.0965C151.743 20.8994 149.977 20.9758 148.62 20.102C146.748 18.8916 146.542 16.2198 149.082 14.9588C150.891 14.111 152.458 13.6096 153.632 12.5984Z" fill="#779160"/>
<path d="M153.15 15.2527C153.148 15.9123 153.028 16.5748 152.794 17.2188C152.737 17.3818 152.674 17.5451 152.593 17.7002L152.481 17.9412C152.444 18.0187 152.394 18.0965 152.351 18.1741L152.209 18.4073C152.159 18.4809 152.104 18.5588 152.054 18.6323L151.894 18.8575L151.71 19.0789L151.526 19.2961L151.329 19.5093L151.127 19.7227L150.907 19.9238L150.674 20.1251C150.594 20.1823 150.509 20.2482 150.423 20.3056C150.337 20.3672 150.246 20.4248 150.16 20.4821C150.068 20.5354 149.97 20.5888 149.872 20.638L149.578 20.7898C149.479 20.8389 149.375 20.8797 149.271 20.9205C149.062 21.0064 148.859 21.0921 148.632 21.1572C148.521 21.1896 148.416 21.2219 148.305 21.2501C148.194 21.2826 148.083 21.315 147.966 21.3348C147.732 21.3788 147.503 21.4226 147.268 21.4495C147.244 21.4543 147.22 21.4421 147.219 21.4251C147.213 21.4125 147.218 21.3996 147.229 21.3951L147.235 21.3907C147.413 21.2758 147.597 21.1777 147.776 21.0798C147.868 21.0308 147.954 20.9777 148.04 20.9245C148.132 20.8713 148.218 20.8224 148.305 20.7735C148.483 20.6798 148.643 20.5654 148.816 20.4676C148.988 20.3698 149.143 20.2597 149.303 20.1495L149.543 19.9948C149.617 19.9377 149.698 19.8847 149.778 19.8317C149.858 19.7787 149.938 19.7257 150.018 19.6727L150.246 19.5056L150.481 19.3425L150.703 19.1669L150.919 18.9915L151.116 18.7995L151.308 18.6077L151.481 18.4078C151.543 18.3382 151.604 18.2729 151.66 18.2035L151.815 17.9955C151.865 17.922 151.927 17.8566 151.97 17.7832L152.113 17.567C152.212 17.4242 152.294 17.2733 152.375 17.1224C152.706 16.5272 152.922 15.8922 153.061 15.2463C153.066 15.2292 153.089 15.2201 153.113 15.2195C153.137 15.2232 153.15 15.2399 153.15 15.2527Z" fill="#93AF7E"/>
<mask id="mask1_30_8496" style="mask-type:luminance" maskUnits="userSpaceOnUse" x="90" y="8" width="11" height="8">
<path d="M90.9892 8.41666L100.067 8.19859L100.438 15.5517L91.3605 15.7698L90.9892 8.41666Z" fill="white"/>
</mask>
<g mask="url(#mask1_30_8496)">
<path d="M92.2607 8.40313C92.2609 8.40738 91.2544 10.6231 91.916 12.3605C92.326 13.4486 93.2037 14.5425 94.4427 15.1766C95.6867 15.7893 97.3142 15.6779 98.3734 14.7418C99.8349 13.4514 99.4739 10.9876 96.8964 10.0962C95.0737 9.50587 93.5438 9.20641 92.2607 8.40313Z" fill="#779160"/>
</g>
<path d="M93.2444 10.7797C93.3813 11.3807 93.63 11.9705 93.9722 12.5367C94.0622 12.6793 94.1463 12.8219 94.2537 12.9555L94.406 13.1604C94.4569 13.2315 94.5192 13.2939 94.5759 13.3606L94.7516 13.5606C94.814 13.623 94.8763 13.6853 94.9447 13.7517L95.1378 13.9429L95.3479 14.1208L95.5583 14.303L96.0137 14.6495L96.2527 14.814L96.5034 14.974C96.5944 15.0186 96.6856 15.0675 96.7767 15.1121C96.8679 15.161 96.9589 15.2056 97.0497 15.246C97.1466 15.2905 97.2488 15.3221 97.3455 15.3623L97.6409 15.4701C97.7433 15.5059 97.8509 15.5289 97.9531 15.5605C98.1628 15.6108 98.3612 15.6741 98.5818 15.7071C98.6893 15.7258 98.7967 15.7445 98.9042 15.7632C99.0114 15.7776 99.1189 15.7963 99.2257 15.8023C99.4513 15.8181 99.6654 15.8385 99.8842 15.8375C99.9079 15.837 99.9309 15.8237 99.9302 15.8109C99.9296 15.7982 99.9233 15.7898 99.911 15.7816L99.9051 15.7817C99.7233 15.6967 99.5303 15.6248 99.3492 15.5525C99.2527 15.5165 99.1619 15.4761 99.0713 15.44C98.9864 15.3995 98.8958 15.3634 98.8052 15.3272C98.6184 15.2594 98.4541 15.1697 98.2729 15.0975C98.0977 15.0251 97.9336 14.9396 97.7639 14.8586L97.5094 14.7413C97.4302 14.6964 97.3513 14.6557 97.2664 14.6152C97.1815 14.5747 97.0966 14.5342 97.0117 14.4937L96.7687 14.3676L96.5197 14.2416L96.2878 14.1025L96.0501 13.9635L95.8351 13.807L95.6144 13.6548L95.4165 13.4851C95.3487 13.4314 95.2809 13.3777 95.2129 13.3198L95.0265 13.1455C94.9644 13.0874 94.9023 13.0293 94.84 12.967L94.671 12.7838C94.5466 12.6634 94.4454 12.5339 94.3385 12.4088C93.9161 11.8955 93.5862 11.3374 93.3265 10.7649C93.3198 10.7481 93.2957 10.7401 93.2723 10.7449C93.2548 10.7496 93.2436 10.7627 93.2444 10.7797Z" fill="#93AF7E"/>
<mask id="mask2_30_8496" style="mask-type:luminance" maskUnits="userSpaceOnUse" x="131" y="22" width="11" height="6">
<path d="M131.081 22.4422L141.672 22.188L141.946 27.62L131.355 27.8742L131.081 22.4422Z" fill="white"/>
</mask>
<g mask="url(#mask2_30_8496)">
<path d="M140.891 26.9942C140.885 26.9944 138.246 27.696 136.123 27.364C134.793 27.1576 133.436 26.6625 132.624 25.9288C131.83 25.1946 131.897 24.1929 132.987 23.5029C134.489 22.5562 137.478 22.6802 138.656 24.2222C139.445 25.3182 139.87 26.24 140.891 26.9942Z" fill="#779160"/>
</g>
<path d="M137.984 26.4853C137.253 26.4262 136.53 26.2989 135.829 26.1114C135.655 26.0645 135.481 26.0176 135.312 25.9579L135.059 25.8703C134.969 25.8427 134.89 25.8063 134.806 25.7743L134.564 25.6779C134.479 25.6417 134.401 25.6053 134.322 25.5688L134.085 25.4554L133.86 25.3331L133.629 25.211L133.416 25.0799L133.196 24.949L132.988 24.8051L132.785 24.661C132.723 24.6072 132.661 24.5533 132.605 24.4994C132.543 24.4455 132.487 24.3915 132.431 24.3376C132.381 24.2792 132.331 24.2208 132.281 24.1625L132.141 23.9828C132.091 23.9244 132.058 23.8614 132.02 23.7985C131.942 23.6727 131.865 23.5511 131.817 23.4204C131.784 23.3531 131.763 23.2897 131.736 23.2223C131.709 23.1591 131.682 23.0959 131.673 23.0281C131.643 22.8926 131.612 22.7572 131.605 22.6254C131.605 22.6084 131.616 22.5996 131.64 22.599C131.651 22.5945 131.663 22.6027 131.67 22.6068L131.67 22.6111C131.782 22.719 131.876 22.8317 131.971 22.9443C132.015 22.9986 132.071 23.0525 132.121 23.1067C132.171 23.1608 132.221 23.2149 132.265 23.2649C132.353 23.3777 132.465 23.4771 132.565 23.5811C132.659 23.6853 132.765 23.7849 132.87 23.8845L133.026 24.0339C133.081 24.0837 133.137 24.1291 133.187 24.179C133.243 24.2287 133.292 24.2786 133.342 24.3285L133.509 24.4734L133.671 24.6227L133.843 24.759L134.022 24.8994L134.218 25.0266L134.413 25.1496L134.62 25.2681C134.693 25.3046 134.76 25.3455 134.833 25.3821L135.052 25.4917C135.124 25.524 135.198 25.5649 135.276 25.597L135.5 25.698C135.651 25.7667 135.814 25.8224 135.971 25.8825C136.61 26.1225 137.294 26.3018 137.993 26.4382C138.017 26.4419 138.023 26.4545 138.018 26.4674C138.019 26.4802 138.002 26.4891 137.984 26.4853Z" fill="#93AF7E"/>
<mask id="mask3_30_8496" style="mask-type:luminance" maskUnits="userSpaceOnUse" x="214" y="9" width="228" height="25">
<path d="M214.096 15.0026L441.037 9.55522L441.971 28.0528L215.029 33.5002L214.096 15.0026Z" fill="white"/>
</mask>
<g mask="url(#mask3_30_8496)">
<path d="M441.92 27.0453L441.848 25.6172C433.089 19.9506 423.561 17.3493 412.779 17.672C403.166 17.9538 394.12 20.5668 386.853 22.6647C381.686 24.159 377.231 25.4447 373.823 25.5861C365.208 25.9418 356.514 24.8398 351.201 22.8651C351.728 22.2907 352.212 21.6663 352.651 20.9962C354.832 17.6671 353.239 15.8797 352.445 15.2689C351.25 14.3359 349.399 14.0143 347.746 14.4413C345.837 14.9382 344.634 16.3118 344.535 18.11C344.457 19.4992 345.262 20.7905 346.912 21.9467C347.544 22.3869 348.287 22.7989 349.14 23.1869C347.274 24.8999 344.992 25.9888 342.494 26.3296C338.698 26.842 334.514 25.6573 330.393 22.905C321.544 16.9852 315.403 18.8944 310.923 20.2871C310.603 20.3841 310.294 20.4809 309.985 20.5734C309.571 20.6983 309.106 20.8456 308.558 21.0162C303.193 22.694 290.628 26.6256 267.622 28.4842C254.822 29.5192 240.394 25.61 230.539 22.1442C223.497 19.6706 217.527 16.9839 214.111 15.3169L214.174 16.5623C217.758 18.2806 223.484 20.8156 230.44 23.236C236.758 25.4291 242.847 27.0916 248.547 28.1718C255.608 29.5088 262.08 29.9492 267.785 29.4889C291.009 27.6122 303.708 23.6349 309.131 21.9387C309.673 21.7725 310.139 21.6251 310.541 21.5048C310.85 21.4123 311.17 21.311 311.497 21.2095C315.843 19.8583 321.255 18.1794 329.424 23.6389C333.888 26.6255 338.503 27.8978 342.763 27.3232C345.655 26.9303 348.278 25.6716 350.379 23.7019C352.533 24.5226 355.231 25.2068 358.369 25.7187C363.171 26.4971 368.69 26.8115 373.91 26.5968C377.547 26.4457 382.108 25.1276 387.392 23.605C402.042 19.3723 422.099 13.58 441.92 27.0453ZM347.906 21.2292C346.55 20.2788 345.894 19.2434 345.957 18.1525C346.029 16.7549 346.866 15.7476 348.232 15.3913C349.348 15.1007 350.59 15.322 351.402 15.9493C351.987 16.4034 352.296 17.013 352.332 17.7271C352.374 18.5517 352.05 19.5212 351.363 20.5675C350.94 21.2117 350.474 21.8144 349.969 22.3628C349.17 22.0074 348.482 21.6282 347.906 21.2292Z" fill="#93AF7E"/>
</g>
<path d="M317.837 29.6026C317.837 29.5941 317.003 27.1417 317.91 25.307C318.474 24.1615 319.547 23.0336 320.954 22.4253C322.369 21.8382 324.113 22.0559 325.15 23.1289C326.58 24.6138 325.914 27.2469 323.031 28.0566C320.999 28.5777 319.306 28.8141 317.837 29.6026Z" fill="#779160"/>
<path d="M319.167 27.0982C319.383 26.459 319.718 25.8339 320.15 25.2447C320.261 25.0974 320.372 24.95 320.501 24.8108L320.691 24.5977C320.753 24.5239 320.826 24.4583 320.894 24.3885L321.103 24.1878C321.176 24.1222 321.256 24.0564 321.329 23.9908L321.562 23.798L321.807 23.6176L322.059 23.4329L322.322 23.2606L322.585 23.0841L322.867 22.9241L323.155 22.7682C323.259 22.7232 323.358 22.6783 323.462 22.6332C323.566 22.5882 323.671 22.5473 323.775 22.5065C323.885 22.4656 323.996 22.4331 324.107 22.4007L324.439 22.3033C324.55 22.2709 324.668 22.2511 324.784 22.2227C325.013 22.1789 325.241 22.1224 325.477 22.104C325.594 22.0884 325.712 22.0728 325.83 22.0615C325.953 22.05 326.065 22.0388 326.189 22.0358C326.426 22.0344 326.662 22.0287 326.899 22.04C326.929 22.0393 326.948 22.0559 326.943 22.073C326.943 22.0858 326.932 22.0946 326.92 22.0991L326.92 22.1034C326.706 22.1851 326.496 22.2497 326.286 22.3186C326.181 22.3466 326.083 22.3873 325.978 22.4239C325.879 22.4603 325.774 22.4926 325.676 22.529C325.472 22.5892 325.275 22.6748 325.077 22.7434C324.879 22.812 324.694 22.8888 324.503 22.9699L324.212 23.0833C324.12 23.1238 324.027 23.1643 323.934 23.2006C323.842 23.2411 323.743 23.2776 323.65 23.3181L323.372 23.4396L323.089 23.5614L322.817 23.6955L322.552 23.8338L322.299 23.9846L322.047 24.1396L321.813 24.3069C321.733 24.3642 321.653 24.4171 321.573 24.4744L321.357 24.654C321.283 24.7111 321.203 24.7684 321.135 24.8296L320.925 25.0176C320.784 25.1444 320.66 25.275 320.531 25.4058C320.013 25.9332 319.599 26.5133 319.25 27.1175C319.239 27.1348 319.216 27.1396 319.192 27.1359C319.174 27.1278 319.161 27.1111 319.167 27.0982Z" fill="#93AF7E"/>
<path d="M367.69 16.3713C367.69 16.3798 369.301 18.6264 369.014 20.5653C368.832 21.774 368.157 23.0498 366.986 23.8737C365.807 24.6765 364.036 24.7488 362.678 23.875C360.807 22.6688 360.601 19.9927 363.146 18.7316C364.95 17.8882 366.516 17.3825 367.69 16.3713Z" fill="#779160"/>
<path d="M367.209 19.0299C367.212 19.6851 367.086 20.3478 366.858 20.9958C366.795 21.1548 366.738 21.3179 366.658 21.4772L366.539 21.7141C366.502 21.7959 366.453 21.8694 366.409 21.9471L366.273 22.1801C366.218 22.2581 366.162 22.3317 366.113 22.4095L365.953 22.6346L365.768 22.8518L365.584 23.0733L365.388 23.2823L365.186 23.4957L364.965 23.701L364.738 23.8979C364.653 23.9595 364.567 24.0212 364.481 24.0828C364.396 24.1402 364.304 24.1977 364.218 24.2551C364.126 24.3126 364.028 24.3618 363.93 24.4152L363.642 24.5625C363.544 24.6117 363.433 24.6527 363.329 24.6977C363.12 24.7793 362.918 24.8693 362.696 24.9299C362.585 24.9624 362.474 24.9948 362.363 25.0273C362.252 25.0555 362.142 25.0879 362.024 25.1078C361.796 25.1516 361.567 25.1953 361.332 25.2265C361.303 25.2272 361.284 25.2149 361.277 25.198C361.277 25.1853 361.282 25.1767 361.294 25.1679C361.471 25.053 361.656 24.9549 361.834 24.8528C361.932 24.8078 362.012 24.7506 362.104 24.7016C362.19 24.6484 362.277 24.5996 362.363 24.5464C362.542 24.4528 362.702 24.3425 362.874 24.2405C363.047 24.1428 363.201 24.0327 363.361 23.9267L363.602 23.7677C363.682 23.7147 363.756 23.6576 363.836 23.6046C363.916 23.5517 363.996 23.4987 364.077 23.4499L364.305 23.2827L364.545 23.1195L364.761 22.9441L364.977 22.7645L365.174 22.5725L365.366 22.3806L365.545 22.1806C365.601 22.1154 365.663 22.0458 365.719 21.9807L365.874 21.7684C365.923 21.6991 365.985 21.6296 366.034 21.556L366.171 21.34C366.271 21.1972 366.352 21.0463 366.433 20.8996C366.764 20.3002 366.981 19.6694 367.12 19.0235C367.125 19.0063 367.148 18.993 367.171 18.9967C367.195 19.0004 367.208 19.0129 367.209 19.0299Z" fill="#93AF7E"/>
<mask id="mask4_30_8496" style="mask-type:luminance" maskUnits="userSpaceOnUse" x="304" y="11" width="11" height="10">
<path d="M304.764 12.2007L313.842 11.9828L314.257 20.2242L305.18 20.4421L304.764 12.2007Z" fill="white"/>
</mask>
<g mask="url(#mask4_30_8496)">
<path d="M306.319 12.1761C306.319 12.1846 305.319 14.4002 305.974 16.1377C306.384 17.2258 307.262 18.3197 308.501 18.9538C309.745 19.5665 311.378 19.455 312.438 18.5189C313.893 17.2286 313.532 14.7648 310.955 13.8692C309.132 13.2831 307.602 12.9794 306.319 12.1761Z" fill="#779160"/>
</g>
<path d="M307.303 14.5526C307.44 15.1536 307.688 15.7434 308.031 16.314C308.121 16.4522 308.211 16.5948 308.312 16.7327L308.471 16.9375C308.521 17.0043 308.578 17.0711 308.634 17.1378L308.81 17.3336C308.873 17.4002 308.935 17.4625 309.003 17.5247L309.196 17.7158L309.617 18.0802L310.072 18.4267L310.562 18.7469C310.653 18.7958 310.744 18.8447 310.835 18.8893C310.926 18.9339 311.017 18.9786 311.114 19.023C311.205 19.0634 311.307 19.0993 311.404 19.1352L311.705 19.2429C311.802 19.2789 311.91 19.3061 312.012 19.3334C312.221 19.388 312.426 19.4512 312.64 19.4843C312.748 19.503 312.855 19.5217 312.963 19.5362C313.07 19.5548 313.177 19.5735 313.29 19.5794C313.51 19.5954 313.73 19.6114 313.949 19.6146C313.972 19.614 313.989 19.6009 313.989 19.5839C313.988 19.5754 313.982 19.5628 313.97 19.5588C313.782 19.4697 313.595 19.3976 313.408 19.3255C313.311 19.2937 313.226 19.249 313.136 19.2128C313.045 19.1767 312.954 19.1363 312.864 19.1002C312.683 19.0322 312.513 18.9469 312.337 18.8703C312.156 18.798 311.992 18.7169 311.822 18.6358L311.574 18.5141C311.489 18.4736 311.41 18.4287 311.325 18.3882C311.24 18.3477 311.155 18.3114 311.076 18.2707L310.833 18.1404L310.584 18.0144L310.108 17.7365L309.894 17.5842L309.679 17.4276L309.475 17.2623C309.407 17.2044 309.339 17.1507 309.271 17.097L309.091 16.9183C309.029 16.8602 308.961 16.8023 308.899 16.7442L308.73 16.561C308.605 16.4363 308.504 16.3111 308.403 16.1816C307.975 15.6685 307.645 15.1146 307.385 14.5379C307.378 14.5253 307.354 14.5173 307.337 14.522C307.313 14.5226 307.302 14.5399 307.303 14.5526Z" fill="#93AF7E"/>
<path d="M354.949 30.7672C354.943 30.7673 352.31 31.4731 350.181 31.1412C348.851 30.9306 347.495 30.4397 346.682 29.706C345.888 28.9676 345.962 27.9658 347.045 27.2801C348.548 26.3334 351.536 26.4574 352.721 27.9993C353.503 29.0912 353.929 30.0172 354.949 30.7672Z" fill="#779160"/>
<path d="M352.042 30.2625C351.311 30.2034 350.588 30.0718 349.887 29.8886C349.713 29.8375 349.539 29.7906 349.37 29.7308L349.117 29.6475C349.033 29.6155 348.948 29.5835 348.87 29.5513L348.622 29.4509C348.544 29.4187 348.465 29.3781 348.386 29.3417L348.144 29.2326L347.919 29.1103L347.688 28.9882L347.474 28.8571L347.254 28.7262L347.046 28.5823L346.843 28.434C346.787 28.3842 346.725 28.3304 346.664 28.2766C346.608 28.2226 346.546 28.1687 346.489 28.1105C346.439 28.0564 346.389 27.9938 346.345 27.9353L346.2 27.76C346.155 27.6973 346.116 27.6343 346.078 27.5714C346.006 27.4455 345.923 27.3241 345.875 27.1933C345.848 27.1301 345.821 27.0627 345.794 26.9995C345.767 26.9321 345.746 26.8687 345.731 26.801C345.701 26.6656 345.676 26.5342 345.663 26.3984C345.663 26.3856 345.674 26.3726 345.698 26.372C345.709 26.3717 345.721 26.3757 345.728 26.384C345.84 26.4962 345.934 26.6089 346.035 26.7171C346.073 26.7758 346.129 26.8255 346.179 26.8796C346.229 26.9337 346.279 26.9879 346.323 27.0421C346.417 27.1505 346.529 27.25 346.623 27.3541C346.717 27.4625 346.829 27.5619 346.928 27.6574L347.084 27.8111C347.139 27.8566 347.195 27.9063 347.245 27.9562C347.301 28.0017 347.351 28.0558 347.4 28.1057L347.568 28.2506L347.729 28.3957L347.907 28.5361L348.086 28.6722L348.276 28.7996L348.472 28.9268L348.684 29.0409C348.752 29.0818 348.819 29.1227 348.892 29.1593L349.11 29.2647C349.189 29.3011 349.256 29.3378 349.334 29.3742L349.564 29.4708C349.715 29.5395 349.872 29.5996 350.029 29.6554C350.668 29.8954 351.352 30.0748 352.057 30.211C352.075 30.2149 352.088 30.2316 352.082 30.2445C352.077 30.2574 352.06 30.262 352.042 30.2625Z" fill="#93AF7E"/>
<mask id="mask5_30_8496" style="mask-type:luminance" maskUnits="userSpaceOnUse" x="295" y="4" width="2" height="2">
<path d="M295.293 4.62764L296.138 4.60735L296.172 5.27891L295.327 5.2992L295.293 4.62764Z" fill="white"/>
</mask>
<g mask="url(#mask5_30_8496)">
<mask id="mask6_30_8496" style="mask-type:luminance" maskUnits="userSpaceOnUse" x="295" y="4" width="2" height="1">
<path d="M296.135 4.78202C295.25 5.29266 295.896 4.62179 295.896 4.62179Z" fill="white"/>
</mask>
<g mask="url(#mask6_30_8496)">
<path d="M290.513 1.48259L300.501 1.24285L300.863 8.42597L290.876 8.66571L290.513 1.48259Z" fill="#93AF7E"/>
</g>
</g>
<mask id="mask7_30_8496" style="mask-type:luminance" maskUnits="userSpaceOnUse" x="224" y="22" width="5" height="3">
<path d="M224.994 22.3669L228.428 22.2845L228.513 23.9761L225.079 24.0585L224.994 22.3669Z" fill="white"/>
</mask>
<g mask="url(#mask7_30_8496)">
<mask id="mask8_30_8496" style="mask-type:luminance" maskUnits="userSpaceOnUse" x="226" y="22" width="3" height="2">
<path d="M227.691 23.9915C223.704 21.5552 228.079 22.7566 228.334 23.2399C228.459 23.4837 227.691 23.9915 227.691 23.9915Z" fill="white"/>
</mask>
<g mask="url(#mask8_30_8496)">
<path d="M218.893 18.4833L232.622 18.1537L233.075 27.1305L219.346 27.46L218.893 18.4833Z" fill="#FEFAE0"/>
</g>
</g>
<mask id="mask9_30_8496" style="mask-type:luminance" maskUnits="userSpaceOnUse" x="212" y="41" width="4" height="4">
<path d="M212.644 41.5791L215.622 41.5076L215.764 44.3171L212.786 44.3886L212.644 41.5791Z" fill="white"/>
</mask>
<g mask="url(#mask9_30_8496)">
<mask id="mask10_30_8496" style="mask-type:luminance" maskUnits="userSpaceOnUse" x="212" y="41" width="4" height="4">
<path d="M212.711 42.3264C213.358 41.6555 212.94 42.4018 212.94 42.4018C212.94 42.4018 213.131 41.7418 213.358 41.6555C213.809 41.5639 215.434 42.3419 215.577 42.8279C215.709 43.2332 213.949 44.3393 213.949 44.3393" fill="white"/>
</mask>
<g mask="url(#mask10_30_8496)">
<path d="M207.975 38.5165L219.889 38.2306L220.355 47.4539L208.44 47.7398L207.975 38.5165Z" fill="#FEFAE0"/>
</g>
</g>
<mask id="mask11_30_8496" style="mask-type:luminance" maskUnits="userSpaceOnUse" x="226" y="22" width="2" height="2">
<path d="M226.827 22.7016L227.85 22.677L227.874 23.1701L226.852 23.1946L226.827 22.7016Z" fill="white"/>
</mask>
<g mask="url(#mask11_30_8496)">
<mask id="mask12_30_8496" style="mask-type:luminance" maskUnits="userSpaceOnUse" x="227" y="22" width="1" height="1">
<path d="M227.858 22.8429C226.852 23.1948 227.737 22.6841 227.737 22.6841Z" fill="white"/>
</mask>
<g mask="url(#mask12_30_8496)">
<path d="M222.124 19.5505L232.224 19.3081L232.578 26.3254L222.478 26.5679L222.124 19.5505Z" fill="#FEFAE0"/>
</g>
</g>
<mask id="mask13_30_8496" style="mask-type:luminance" maskUnits="userSpaceOnUse" x="226" y="22" width="2" height="1">
<path d="M226.572 22.2184L227.6 22.1937L227.625 22.6867L226.597 22.7114L226.572 22.2184Z" fill="white"/>
</mask>
<g mask="url(#mask13_30_8496)">
<mask id="mask14_30_8496" style="mask-type:luminance" maskUnits="userSpaceOnUse" x="227" y="22" width="1" height="1">
<path d="M227.609 22.3594C226.603 22.7113 227.482 22.1965 227.482 22.1965Z" fill="white"/>
</mask>
<g mask="url(#mask14_30_8496)">
<path d="M221.874 19.0629L231.974 18.8204L232.329 25.842L222.229 26.0845L221.874 19.0629Z" fill="#FEFAE0"/>
</g>
</g>
<mask id="mask15_30_8496" style="mask-type:luminance" maskUnits="userSpaceOnUse" x="226" y="22" width="2" height="2">
<path d="M226.518 22.5474L227.392 22.5264L227.417 23.0194L226.543 23.0404L226.518 22.5474Z" fill="white"/>
</mask>
<g mask="url(#mask15_30_8496)">
<mask id="mask16_30_8496" style="mask-type:luminance" maskUnits="userSpaceOnUse" x="226" y="22" width="2" height="1">
<path d="M227.395 22.6923C226.389 23.0398 227.274 22.5292 227.274 22.5292Z" fill="white"/>
</mask>
<g mask="url(#mask16_30_8496)">
<path d="M221.66 19.3957L231.761 19.1533L232.115 26.1706L222.015 26.413L221.66 19.3957Z" fill="#FEFAE0"/>
</g>
</g>
<mask id="mask17_30_8496" style="mask-type:luminance" maskUnits="userSpaceOnUse" x="225" y="21" width="5" height="3">
<path d="M225.271 21.9942L229.195 21.9L229.274 23.4727L225.35 23.5669L225.271 21.9942Z" fill="white"/>
</mask>
<g mask="url(#mask17_30_8496)">
<mask id="mask18_30_8496" style="mask-type:luminance" maskUnits="userSpaceOnUse" x="225" y="22" width="5" height="2">
<path d="M229.25 23.4648C225.397 23.5573 225.543 22.0005 225.543 22.0005Z" fill="white"/>
</mask>
<g mask="url(#mask18_30_8496)">
<path d="M220.84 18.8451L233.546 18.5401L233.97 26.9431L221.264 27.2481L220.84 18.8451Z" fill="#FEFAE0"/>
</g>
</g>
<mask id="mask19_30_8496" style="mask-type:luminance" maskUnits="userSpaceOnUse" x="224" y="21" width="5" height="3">
<path d="M224.947 21.4403L228.168 21.363L228.272 23.4201L225.051 23.4975L224.947 21.4403Z" fill="white"/>
</mask>
<g mask="url(#mask19_30_8496)">
<mask id="mask20_30_8496" style="mask-type:luminance" maskUnits="userSpaceOnUse" x="226" y="22" width="3" height="2">
<path d="M227.544 23.4206C224.155 21.4593 227.834 22.354 228.079 22.7567C228.209 22.9961 227.544 23.4206 227.544 23.4206Z" fill="white"/>
</mask>
<g mask="url(#mask20_30_8496)">
<path d="M219.338 18.3918L232.387 18.0786L232.815 26.5623L219.766 26.8756L219.338 18.3918Z" fill="#FEFAE0"/>
</g>
</g>
<mask id="mask21_30_8496" style="mask-type:luminance" maskUnits="userSpaceOnUse" x="212" y="14" width="4" height="2">
<path d="M212.46 14.1269L215.852 14.0455L215.941 15.8051L212.549 15.8865L212.46 14.1269Z" fill="white"/>
</mask>
<g mask="url(#mask21_30_8496)">
<mask id="mask22_30_8496" style="mask-type:luminance" maskUnits="userSpaceOnUse" x="213" y="14" width="3" height="2">
<path d="M215.907 15.6144C212.512 15.8576 213.105 14.1284 213.105 14.1284Z" fill="white"/>
</mask>
<g mask="url(#mask22_30_8496)">
<path d="M208.171 10.9786L220.203 10.6898L220.632 19.1777L208.599 19.4666L208.171 10.9786Z" fill="#FEFAE0"/>
</g>
</g>
<mask id="mask23_30_8496" style="mask-type:luminance" maskUnits="userSpaceOnUse" x="214" y="15" width="2" height="1">
<path d="M214.035 15.3275L214.981 15.3048L215.006 15.7978L214.06 15.8205L214.035 15.3275Z" fill="white"/>
</mask>
<g mask="url(#mask23_30_8496)">
<mask id="mask24_30_8496" style="mask-type:luminance" maskUnits="userSpaceOnUse" x="214" y="15" width="1" height="1">
<path d="M214.989 15.4706C213.983 15.8225 214.869 15.3118 214.869 15.3118Z" fill="white"/>
</mask>
<g mask="url(#mask24_30_8496)">
<path d="M209.255 12.1783L219.355 11.9358L219.709 18.9532L209.609 19.1956L209.255 12.1783Z" fill="#FEFAE0"/>
</g>
</g>
<mask id="mask25_30_8496" style="mask-type:luminance" maskUnits="userSpaceOnUse" x="213" y="14" width="3" height="3">
<path d="M213.005 14.6074L215.51 14.5473L215.587 16.0562L213.081 16.1163L213.005 14.6074Z" fill="white"/>
</mask>
<g mask="url(#mask25_30_8496)">
<mask id="mask26_30_8496" style="mask-type:luminance" maskUnits="userSpaceOnUse" x="213" y="14" width="3" height="2">
<path d="M213.809 14.6009C216.741 16.4115 213.412 15.7552 213.167 15.3525C213.042 15.1087 213.809 14.6009 213.809 14.6009Z" fill="white"/>
</mask>
<g mask="url(#mask26_30_8496)">
<path d="M208.426 11.4619L221.132 11.1569L221.548 19.3983L208.842 19.7033L208.426 11.4619Z" fill="#FEFAE0"/>
</g>
</g>
<mask id="mask27_30_8496" style="mask-type:luminance" maskUnits="userSpaceOnUse" x="214" y="15" width="2" height="1">
<path d="M214.871 15.4734L215.899 15.4487L215.924 15.9417L214.896 15.9664L214.871 15.4734Z" fill="white"/>
</mask>
<g mask="url(#mask27_30_8496)">
<mask id="mask28_30_8496" style="mask-type:luminance" maskUnits="userSpaceOnUse" x="215" y="15" width="1" height="1">
<path d="M215.908 15.6144C214.901 15.962 215.781 15.4515 215.781 15.4515Z" fill="white"/>
</mask>
<g mask="url(#mask28_30_8496)">
<path d="M210.173 12.3179L220.273 12.0755L220.627 19.0928L210.527 19.3352L210.173 12.3179Z" fill="#FEFAE0"/>
</g>
</g>
<mask id="mask29_30_8496" style="mask-type:luminance" maskUnits="userSpaceOnUse" x="214" y="15" width="4" height="2">
<path d="M214.278 15.2237L217.056 15.157L217.136 16.7339L214.358 16.8006L214.278 15.2237Z" fill="white"/>
</mask>
<g mask="url(#mask29_30_8496)">
<mask id="mask30_30_8496" style="mask-type:luminance" maskUnits="userSpaceOnUse" x="214" y="15" width="3" height="2">
<path d="M214.977 15.2283C218.116 16.7019 214.687 16.2948 214.446 15.9729C214.326 15.8141 214.977 15.2283 214.977 15.2283Z" fill="white"/>
</mask>
<g mask="url(#mask30_30_8496)">
<path d="M209.706 12.0865L222.53 11.7787L222.93 19.6929L210.105 20.0007L209.706 12.0865Z" fill="#FEFAE0"/>
</g>
</g>
<mask id="mask31_30_8496" style="mask-type:luminance" maskUnits="userSpaceOnUse" x="224" y="21" width="5" height="3">
<path d="M224.939 21.2787L228.467 21.194L228.591 23.6423L225.062 23.7269L224.939 21.2787Z" fill="white"/>
</mask>
<g mask="url(#mask31_30_8496)">
<mask id="mask32_30_8496" style="mask-type:luminance" maskUnits="userSpaceOnUse" x="225" y="21" width="4" height="3">
<path d="M227.899 23.6589C223.212 20.8308 228.176 22.3458 228.429 22.9099C228.554 23.1538 227.899 23.6589 227.899 23.6589Z" fill="white"/>
</mask>
<g mask="url(#mask32_30_8496)">
<path d="M218.4 17.7589L232.697 17.4158L233.17 26.8006L218.874 27.1438L218.4 17.7589Z" fill="#FEFAE0"/>
</g>
</g>
<mask id="mask33_30_8496" style="mask-type:luminance" maskUnits="userSpaceOnUse" x="222" y="20" width="5" height="4">
<path d="M222.627 20.7342L226.422 20.6431L226.562 23.4186L222.768 23.5097L222.627 20.7342Z" fill="white"/>
</mask>
<g mask="url(#mask33_30_8496)">
<mask id="mask34_30_8496" style="mask-type:luminance" maskUnits="userSpaceOnUse" x="222" y="20" width="4" height="3">
<path d="M223.432 20.7447C228.575 23.5618 223.049 22.0603 222.79 21.4921C222.665 21.2525 223.432 20.7447 223.432 20.7447Z" fill="white"/>
</mask>
<g mask="url(#mask34_30_8496)">
<path d="M218.049 17.6057L232.913 17.2489L233.382 26.5487L218.519 26.9055L218.049 17.6057Z" fill="#FEFAE0"/>
</g>
</g>
<mask id="mask35_30_8496" style="mask-type:luminance" maskUnits="userSpaceOnUse" x="222" y="20" width="5" height="4">
<path d="M222.372 20.834L226.426 20.7367L226.562 23.4186L222.507 23.516L222.372 20.834Z" fill="white"/>
</mask>
<g mask="url(#mask35_30_8496)">
<mask id="mask36_30_8496" style="mask-type:luminance" maskUnits="userSpaceOnUse" x="222" y="20" width="5" height="3">
<path d="M223.667 20.8199C228.234 23.4891 225.129 22.8275 224.082 22.3632C223.386 22.0522 222.453 21.5001 222.553 21.2552C222.545 21.0894 223.667 20.8199 223.667 20.8199Z" fill="white"/>
</mask>
<g mask="url(#mask36_30_8496)">
<path d="M217.829 17.6918L232.58 17.3377L233.041 26.476L218.29 26.8301L217.829 17.6918Z" fill="#FEFAE0"/>
</g>
</g>
<mask id="mask37_30_8496" style="mask-type:luminance" maskUnits="userSpaceOnUse" x="224" y="21" width="6" height="3">
<path d="M224.939 21.2787L229.194 21.1766L229.31 23.4718L225.055 23.5739L224.939 21.2787Z" fill="white"/>
</mask>
<g mask="url(#mask37_30_8496)">
<mask id="mask38_30_8496" style="mask-type:luminance" maskUnits="userSpaceOnUse" x="225" y="21" width="5" height="3">
<path d="M228.683 23.4783C221.722 20.6197 228.731 22.0856 229.101 22.7321C229.225 22.9717 228.683 23.4783 228.683 23.4783Z" fill="white"/>
</mask>
<g mask="url(#mask38_30_8496)">
<path d="M216.911 17.5479L233.364 17.1529L233.842 26.6227L217.388 27.0177L216.911 17.5479Z" fill="#FEFAE0"/>
</g>
</g>
<mask id="mask39_30_8496" style="mask-type:luminance" maskUnits="userSpaceOnUse" x="222" y="20" width="3" height="3">
<path d="M222.37 20.6723L224.905 20.6115L224.994 22.3669L222.458 22.4277L222.37 20.6723Z" fill="white"/>
</mask>
<g mask="url(#mask39_30_8496)">
<mask id="mask40_30_8496" style="mask-type:luminance" maskUnits="userSpaceOnUse" x="222" y="20" width="3" height="2">
<path d="M223.428 20.6597C226.252 22.5537 222.453 21.5002 222.437 21.1771C222.428 21.0114 223.428 20.6597 223.428 20.6597Z" fill="white"/>
</mask>
<g mask="url(#mask40_30_8496)">
<path d="M217.708 17.5287L230.639 17.2184L231.064 25.6256L218.133 25.936L217.708 17.5287Z" fill="#FEFAE0"/>
</g>
</g>
<mask id="mask41_30_8496" style="mask-type:luminance" maskUnits="userSpaceOnUse" x="224" y="21" width="3" height="3">
<path d="M224.939 21.2787L226.682 21.2369L226.774 23.0475L225.03 23.0894L224.939 21.2787Z" fill="white"/>
</mask>
<g mask="url(#mask41_30_8496)">
<mask id="mask42_30_8496" style="mask-type:luminance" maskUnits="userSpaceOnUse" x="225" y="21" width="2" height="3">
<path d="M225.821 23.0534C223.567 21.0649 226.682 22.054 226.703 22.462C226.715 22.7085 225.821 23.0534 225.821 23.0534Z" fill="white"/>
</mask>
<g mask="url(#mask42_30_8496)">
<path d="M218.75 17.9973L231.007 17.7031L231.435 26.1869L219.178 26.4811L218.75 17.9973Z" fill="#FEFAE0"/>
</g>
</g>
<mask id="mask43_30_8496" style="mask-type:luminance" maskUnits="userSpaceOnUse" x="221" y="20" width="6" height="4">
<path d="M221.348 20.3607L226.052 20.2478L226.198 23.1295L221.494 23.2424L221.348 20.3607Z" fill="white"/>
</mask>
<g mask="url(#mask43_30_8496)">
<mask id="mask44_30_8496" style="mask-type:luminance" maskUnits="userSpaceOnUse" x="221" y="20" width="6" height="4">
<path d="M225.635 21.5897C225.635 21.5897 226.119 22.1484 226.019 22.3976C225.805 22.7304 224.011 23.182 223.211 23.0352C222.523 22.89 221.927 22.3298 221.676 21.9273C221.426 21.4439 222.053 20.3693 222.053 20.3693" fill="white"/>
</mask>
<g mask="url(#mask44_30_8496)">
<path d="M216.894 17.2249L230.286 16.9034L230.751 26.1225L217.359 26.4439L216.894 17.2249Z" fill="#FEFAE0"/>
</g>
</g>
<mask id="mask45_30_8496" style="mask-type:luminance" maskUnits="userSpaceOnUse" x="223" y="21" width="4" height="2">
<path d="M223.899 21.3037L226.546 21.2402L226.601 22.3283L223.954 22.3918L223.899 21.3037Z" fill="white"/>
</mask>
<g mask="url(#mask45_30_8496)">
<mask id="mask46_30_8496" style="mask-type:luminance" maskUnits="userSpaceOnUse" x="223" y="21" width="4" height="2">
<path d="M226.562 21.8952C224.217 22.6834 223.916 21.3033 223.916 21.3033Z" fill="white"/>
</mask>
<g mask="url(#mask46_30_8496)">
<path d="M219.213 18.148L230.903 17.8674L231.306 25.8666L219.617 26.1472L219.213 18.148Z" fill="#FEFAE0"/>
</g>
</g>
<mask id="mask47_30_8496" style="mask-type:luminance" maskUnits="userSpaceOnUse" x="225" y="20" width="5" height="4">
<path d="M225.582 21.0037L229.465 20.9105L229.573 23.0655L225.691 23.1587L225.582 21.0037Z" fill="white"/>
</mask>
<g mask="url(#mask47_30_8496)">
<mask id="mask48_30_8496" style="mask-type:luminance" maskUnits="userSpaceOnUse" x="225" y="20" width="4" height="3">
<path d="M226.404 20.9968C230.364 23.0295 226.011 22.2318 225.755 21.7485C225.631 21.509 226.404 20.9968 226.404 20.9968Z" fill="white"/>
</mask>
<g mask="url(#mask48_30_8496)">
<path d="M221.015 17.8579L234.75 17.5282L235.178 26.0162L221.443 26.3459L221.015 17.8579Z" fill="#93AF7E"/>
</g>
</g>
<mask id="mask49_30_8496" style="mask-type:luminance" maskUnits="userSpaceOnUse" x="227" y="21" width="4" height="3">
<path d="M227.096 21.4568L230.199 21.3823L230.286 23.1207L227.184 23.1952L227.096 21.4568Z" fill="white"/>
</mask>
<g mask="url(#mask49_30_8496)">
<mask id="mask50_30_8496" style="mask-type:luminance" maskUnits="userSpaceOnUse" x="227" y="21" width="4" height="2">
<path d="M227.788 21.4572C230.248 22.9472 229.34 22.8881 229.217 22.8102C229.101 22.7321 229.752 22.142 229.87 22.1392C229.982 22.1365 230.244 22.8664 230.023 22.9526C229.689 23.1266 227.386 22.5265 227.258 22.2019C227.133 21.9623 227.788 21.4572 227.788 21.4572Z" fill="white"/>
</mask>
<g mask="url(#mask50_30_8496)">
<path d="M222.517 18.3155L234.544 18.0268L234.952 26.1025L222.925 26.3912L222.517 18.3155Z" fill="#93AF7E"/>
</g>
</g>
<mask id="mask51_30_8496" style="mask-type:luminance" maskUnits="userSpaceOnUse" x="212" y="15" width="5" height="2">
<path d="M212.821 15.6673L216.172 15.5868L216.237 16.8577L212.886 16.9381L212.821 15.6673Z" fill="white"/>
</mask>
<g mask="url(#mask51_30_8496)">
<mask id="mask52_30_8496" style="mask-type:luminance" maskUnits="userSpaceOnUse" x="212" y="15" width="5" height="2">
<path d="M216.177 16.5059C212.902 16.9122 212.953 15.6854 212.953 15.6854Z" fill="white"/>
</mask>
<g mask="url(#mask52_30_8496)">
<path d="M208.249 12.5301L220.506 12.2358L220.906 20.15L208.648 20.4442L208.249 12.5301Z" fill="#93AF7E"/>
</g>
</g>
<mask id="mask53_30_8496" style="mask-type:luminance" maskUnits="userSpaceOnUse" x="213" y="15" width="3" height="3">
<path d="M213.267 15.5927L215.247 15.5452L215.322 17.0158L213.342 17.0634L213.267 15.5927Z" fill="white"/>
</mask>
<g mask="url(#mask53_30_8496)">
<mask id="mask54_30_8496" style="mask-type:luminance" maskUnits="userSpaceOnUse" x="213" y="15" width="3" height="2">
<path d="M214.091 15.7389C215.251 16.2004 214.426 15.5649 214.206 15.6553C213.979 15.7415 213.908 16.5603 213.908 16.5603C213.908 16.5603 213.863 15.6635 213.975 15.6608C214.087 15.6581 214.675 16.0525 214.683 16.214C214.692 16.3755 213.796 16.563 213.679 16.4849C213.557 16.4028 213.975 15.6608 214.206 15.6553C214.43 15.6499 215.172 16.8577 215.063 16.9411C214.955 17.0246 213.341 16.5739 213.328 16.3274C213.32 16.1659 214.091 15.7389 214.091 15.7389Z" fill="white"/>
</mask>
<g mask="url(#mask54_30_8496)">
<path d="M208.592 12.5218L219.596 12.2576L219.991 20.0911L208.987 20.3552L208.592 12.5218Z" fill="#93AF7E"/>
</g>
</g>
</svg>
